<svg width="16" height="16" viewBox="0 0 16 16" fill="none" xmlns="http://www.w3.org/2000/svg">
<g clip-path="url(#clip0_185_3771)">
<path d="M15.5 8C15.5 9.48336 15.0601 10.9334 14.236 12.1668C13.4119 13.4001 12.2406 14.3614 10.8701 14.9291C9.49968 15.4968 7.99168 15.6453 6.53683 15.3559C5.08197 15.0665 3.7456 14.3522 2.6967 13.3033C1.64781 12.2544 0.933503 10.918 0.644114 9.46318C0.354725 8.00832 0.50325 6.50032 1.07091 5.12987C1.63856 3.75943 2.59986 2.58809 3.83323 1.76398C5.0666 0.939867 6.51664 0.5 8 0.5" stroke="#454545" stroke-linecap="round" stroke-linejoin="round"/>
<path d="M10.7 1C11.6765 1.37806 12.5634 1.95579 13.3038 2.69623C14.0442 3.43666 14.622 4.3235 15 5.3" stroke="#454545" stroke-linecap="round" stroke-linejoin="round"/>
<path d="M3.5 8C3.5 7.10999 3.76392 6.23996 4.25839 5.49994C4.75285 4.75991 5.45566 4.18314 6.27792 3.84254C7.10019 3.50195 8.00499 3.41283 8.87791 3.58647C9.75082 3.7601 10.5526 4.18868 11.182 4.81802C11.8113 5.44736 12.2399 6.24918 12.4135 7.1221C12.5872 7.99501 12.4981 8.89981 12.1575 9.72208C11.8169 10.5443 11.2401 11.2471 10.5001 11.7416C9.76004 12.2361 8.89002 12.5 8 12.5" stroke="#454545" stroke-linecap="round" stroke-linejoin="round"/>
<path d="M8 9.5C8.82843 9.5 9.5 8.82843 9.5 8C9.5 7.17157 8.82843 6.5 8 6.5C7.17157 6.5 6.5 7.17157 6.5 8C6.5 8.82843 7.17157 9.5 8 9.5Z" stroke="#454545" stroke-linecap="round" stroke-linejoin="round"/>
</g>
<defs>
<clipPath id="clip0_185_3771">
<rect width="16" height="16" fill="white"/>
</clipPath>
</defs>
</svg>
