<svg width="16" height="16" viewBox="0 0 16 16" fill="none" xmlns="http://www.w3.org/2000/svg">
<g clip-path="url(#clip0_311_1506)">
<path d="M0.5 5.5H15.5" stroke="white" stroke-linecap="round" stroke-linejoin="round"/>
<path d="M15.5 8.5V4C15.5 3.60218 15.342 3.22064 15.0607 2.93934C14.7794 2.65804 14.3978 2.5 14 2.5H2C1.60218 2.5 1.22064 2.65804 0.93934 2.93934C0.658035 3.22064 0.5 3.60218 0.5 4V13C0.5 13.3978 0.658035 13.7794 0.93934 14.0607C1.22064 14.342 1.60218 14.5 2 14.5H6.5" stroke="white" stroke-linecap="round" stroke-linejoin="round"/>
<path d="M4.5 0.5V2.5" stroke="white" stroke-linecap="round" stroke-linejoin="round"/>
<path d="M11.5 0.5V2.5" stroke="white" stroke-linecap="round" stroke-linejoin="round"/>
<path d="M9.5 13.5L11.5 15.5L15.5 11.5" stroke="white" stroke-linecap="round" stroke-linejoin="round"/>
</g>
<defs>
<clipPath id="clip0_311_1506">
<rect width="16" height="16" fill="white"/>
</clipPath>
</defs>
</svg>
