<svg width="16" height="16" viewBox="0 0 16 16" fill="none" xmlns="http://www.w3.org/2000/svg">
<g clip-path="url(#clip0_185_3797)">
<path d="M15.8 12.5261L9.48298 0.880062C9.32718 0.591126 9.08959 0.354584 8.79998 0.200062C8.4065 -0.0105069 7.94579 -0.0571977 7.51807 0.0701455C7.09035 0.197489 6.7302 0.488565 6.51598 0.880062L0.199976 12.5261C0.0618683 12.7823 -0.00718487 13.0702 -0.000398422 13.3612C0.00638803 13.6522 0.0887806 13.9365 0.238683 14.1861C0.388586 14.4357 0.60084 14.6419 0.854589 14.7846C1.10834 14.9274 1.39485 15.0016 1.68598 15.0001H14.314C14.593 15.0001 14.8678 14.9314 15.114 14.8001C15.309 14.6965 15.4817 14.5554 15.6219 14.3848C15.7622 14.2142 15.8673 14.0176 15.9311 13.8062C15.995 13.5948 16.0164 13.3728 15.994 13.1531C15.9717 12.9334 15.9061 12.7203 15.801 12.5261H15.8ZM7.99998 13.0001C7.80219 13.0001 7.60885 12.9414 7.44441 12.8315C7.27996 12.7217 7.15178 12.5655 7.0761 12.3827C7.00041 12.2 6.98061 11.999 7.01919 11.805C7.05778 11.611 7.15302 11.4328 7.29287 11.293C7.43272 11.1531 7.6109 11.0579 7.80489 11.0193C7.99887 10.9807 8.19993 11.0005 8.38266 11.0762C8.56538 11.1519 8.72156 11.28 8.83144 11.4445C8.94133 11.6089 8.99998 11.8023 8.99998 12.0001C8.99998 12.2653 8.89462 12.5196 8.70708 12.7072C8.51955 12.8947 8.26519 13.0001 7.99998 13.0001ZM8.99998 9.50006C8.99998 9.63267 8.9473 9.75985 8.85353 9.85362C8.75976 9.94738 8.63258 10.0001 8.49998 10.0001H7.49998C7.36737 10.0001 7.24019 9.94738 7.14642 9.85362C7.05265 9.75985 6.99998 9.63267 6.99998 9.50006V5.50006C6.99998 5.36745 7.05265 5.24028 7.14642 5.14651C7.24019 5.05274 7.36737 5.00006 7.49998 5.00006H8.49998C8.63258 5.00006 8.75976 5.05274 8.85353 5.14651C8.9473 5.24028 8.99998 5.36745 8.99998 5.50006V9.50006Z" fill="#FC5D5D"/>
</g>
<defs>
<clipPath id="clip0_185_3797">
<rect width="16" height="16" fill="white"/>
</clipPath>
</defs>
</svg>
