<svg width="12" height="12" viewBox="0 0 12 12" fill="none" xmlns="http://www.w3.org/2000/svg">
<g clip-path="url(#clip0_358_1956)">
<path d="M11.625 0.375H0.375V4.875H11.625V0.375Z" stroke="white" stroke-linecap="round" stroke-linejoin="round"/>
<path d="M4.875 2.625H2.625" stroke="white" stroke-linecap="round" stroke-linejoin="round"/>
<path d="M9.375 3C9.58211 3 9.75 2.83211 9.75 2.625C9.75 2.41789 9.58211 2.25 9.375 2.25C9.16789 2.25 9 2.41789 9 2.625C9 2.83211 9.16789 3 9.375 3Z" fill="white"/>
<path d="M11.625 7.125H0.375V11.625H11.625V7.125Z" stroke="white" stroke-linecap="round" stroke-linejoin="round"/>
<path d="M4.875 9.375H2.625" stroke="white" stroke-linecap="round" stroke-linejoin="round"/>
<path d="M9.375 9.75C9.58211 9.75 9.75 9.58211 9.75 9.375C9.75 9.16789 9.58211 9 9.375 9C9.16789 9 9 9.16789 9 9.375C9 9.58211 9.16789 9.75 9.375 9.75Z" fill="white"/>
</g>
<defs>
<clipPath id="clip0_358_1956">
<rect width="12" height="12" fill="white"/>
</clipPath>
</defs>
</svg>
