<svg width="17" height="16" viewBox="0 0 17 16" fill="none" xmlns="http://www.w3.org/2000/svg">
<g clip-path="url(#clip0_100_2109)">
<path d="M16.1442 0.569336L16.1933 5.90434L11.1019 4.20234" stroke="white" stroke-linecap="round" stroke-linejoin="round"/>
<path d="M1.49268 7.40812C1.63104 5.65897 2.37881 4.01365 3.60588 2.75846C4.83295 1.50326 6.46163 0.717647 8.20854 0.538313C9.95545 0.358979 11.71 0.797277 13.1669 1.77694C14.6238 2.75661 15.6908 4.21562 16.1822 5.90012" stroke="white" stroke-linecap="round" stroke-linejoin="round"/>
<path d="M1.80771 15.4312L1.75867 10.0962L6.85002 11.7982" stroke="white" stroke-linecap="round" stroke-linejoin="round"/>
<path d="M16.4592 8.59229C16.3209 10.3414 15.5731 11.9868 14.346 13.2419C13.119 14.4971 11.4903 15.2828 9.74337 15.4621C7.99646 15.6414 6.24192 15.2031 4.78503 14.2235C3.32814 13.2438 2.26114 11.7848 1.76968 10.1003" stroke="white" stroke-linecap="round" stroke-linejoin="round"/>
</g>
<defs>
<clipPath id="clip0_100_2109">
<rect width="16.0137" height="16" fill="white" transform="translate(0.969238)"/>
</clipPath>
</defs>
</svg>
