<svg width="16" height="16" viewBox="0 0 16 16" fill="none" xmlns="http://www.w3.org/2000/svg">
<g clip-path="url(#clip0_333_1510)">
<path d="M5.5 15.5H1.5C1.23478 15.5 0.98043 15.3946 0.792893 15.2071C0.605357 15.0196 0.5 14.7652 0.5 14.5V1.5C0.5 1.23478 0.605357 0.98043 0.792893 0.792893C0.98043 0.605357 1.23478 0.5 1.5 0.5H10.5C10.7652 0.5 11.0196 0.605357 11.2071 0.792893C11.3946 0.98043 11.5 1.23478 11.5 1.5V4.5" stroke="#454545" stroke-linecap="round" stroke-linejoin="round"/>
<path d="M11.5 15.5C13.7091 15.5 15.5 13.7091 15.5 11.5C15.5 9.29086 13.7091 7.5 11.5 7.5C9.29086 7.5 7.5 9.29086 7.5 11.5C7.5 13.7091 9.29086 15.5 11.5 15.5Z" stroke="#454545" stroke-linecap="round" stroke-linejoin="round"/>
<path d="M11.5 9.5V13.5" stroke="#454545" stroke-linecap="round" stroke-linejoin="round"/>
<path d="M9.5 11.5H13.5" stroke="#454545" stroke-linecap="round" stroke-linejoin="round"/>
</g>
<defs>
<clipPath id="clip0_333_1510">
<rect width="16" height="16" fill="white"/>
</clipPath>
</defs>
</svg>
