<svg width="16" height="16" viewBox="0 0 16 16" fill="none" xmlns="http://www.w3.org/2000/svg">
<g clip-path="url(#clip0_359_2473)">
<path d="M8 0C3.6 0 0 3.6 0 8C0 12.4 3.6 16 8 16C12.4 16 16 12.4 16 8C16 3.6 12.4 0 8 0ZM11.182 9.768C11.377 9.963 11.377 10.28 11.182 10.475L10.475 11.182C10.28 11.377 9.963 11.377 9.768 11.182L8 9.414L6.232 11.182C6.037 11.377 5.72 11.377 5.525 11.182L4.818 10.475C4.623 10.28 4.623 9.963 4.818 9.768L6.586 8L4.818 6.232C4.623 6.037 4.623 5.72 4.818 5.525L5.525 4.818C5.72 4.623 6.037 4.623 6.232 4.818L8 6.586L9.768 4.818C9.963 4.623 10.28 4.623 10.475 4.818L11.182 5.525C11.377 5.72 11.377 6.037 11.182 6.232L9.414 8L11.182 9.768Z" fill="#FC5D5D"/>
</g>
<defs>
<clipPath id="clip0_359_2473">
<rect width="16" height="16" fill="white"/>
</clipPath>
</defs>
</svg>
