<svg width="16" height="16" viewBox="0 0 16 16" fill="none" xmlns="http://www.w3.org/2000/svg">
<g clip-path="url(#clip0_359_2470)">
<path d="M15.7999 12.5259L9.48285 0.87994C9.32706 0.591004 9.08947 0.354461 8.79985 0.19994C8.40638 -0.010629 7.94567 -0.0573198 7.51795 0.0700234C7.09023 0.197367 6.73008 0.488443 6.51585 0.87994L0.199854 12.5259C0.0617462 12.7822 -0.00730694 13.07 -0.000520493 13.3611C0.00626596 13.6521 0.0886585 13.9364 0.238561 14.186C0.388463 14.4355 0.600718 14.6418 0.854467 14.7845C1.10822 14.9272 1.39473 15.0015 1.68585 14.9999H14.3139C14.5929 14.9999 14.8676 14.9313 15.1139 14.7999C15.3089 14.6964 15.4816 14.5553 15.6218 14.3847C15.762 14.2141 15.8671 14.0174 15.931 13.806C15.9949 13.5946 16.0163 13.3727 15.9939 13.153C15.9716 12.9333 15.905 12.7202 15.7999 12.5259ZM7.99985 12.9999C7.80207 12.9999 7.60873 12.9413 7.44428 12.8314C7.27983 12.7215 7.15166 12.5653 7.07597 12.3826C7.00029 12.1999 6.98048 11.9988 7.01907 11.8048C7.05765 11.6109 7.15289 11.4327 7.29275 11.2928C7.4326 11.153 7.61078 11.0577 7.80476 11.0192C7.99874 10.9806 8.19981 11.0004 8.38254 11.0761C8.56526 11.1517 8.72144 11.2799 8.83132 11.4444C8.9412 11.6088 8.99985 11.8022 8.99985 11.9999C8.99985 12.2652 8.8945 12.5195 8.70696 12.707C8.51942 12.8946 8.26507 12.9999 7.99985 12.9999ZM8.99985 9.49994C8.99985 9.63255 8.94718 9.75973 8.85341 9.85349C8.75964 9.94726 8.63246 9.99994 8.49985 9.99994H7.49985C7.36725 9.99994 7.24007 9.94726 7.1463 9.85349C7.05253 9.75973 6.99985 9.63255 6.99985 9.49994V5.49994C6.99985 5.36733 7.05253 5.24015 7.1463 5.14639C7.24007 5.05262 7.36725 4.99994 7.49985 4.99994H8.49985C8.63246 4.99994 8.75964 5.05262 8.85341 5.14639C8.94718 5.24015 8.99985 5.36733 8.99985 5.49994V9.49994Z" fill="#FAB80E"/>
</g>
<defs>
<clipPath id="clip0_359_2470">
<rect width="16" height="16" fill="white"/>
</clipPath>
</defs>
</svg>
