<svg width="765" height="328" viewBox="0 0 765 328" fill="none" xmlns="http://www.w3.org/2000/svg">
<path d="M1.26454 9V8.33523L2.8178 6.89702C2.9499 6.76918 3.0607 6.65412 3.15019 6.55185C3.2411 6.44957 3.30999 6.34943 3.35686 6.25142C3.40374 6.15199 3.42718 6.04474 3.42718 5.92969C3.42718 5.80185 3.39806 5.69176 3.33982 5.59943C3.28158 5.50568 3.20204 5.43395 3.10118 5.38423C3.00033 5.3331 2.88598 5.30753 2.75814 5.30753C2.62462 5.30753 2.50814 5.33452 2.40871 5.38849C2.30928 5.44247 2.23257 5.51989 2.1786 5.62074C2.12462 5.72159 2.09763 5.84162 2.09763 5.98082H1.22192C1.22192 5.69531 1.28655 5.44744 1.41581 5.23722C1.54507 5.02699 1.72618 4.86435 1.95914 4.74929C2.19209 4.63423 2.46056 4.5767 2.76454 4.5767C3.07704 4.5767 3.34905 4.6321 3.58059 4.7429C3.81354 4.85227 3.99465 5.00426 4.12391 5.19886C4.25317 5.39347 4.3178 5.61648 4.3178 5.8679C4.3178 6.03267 4.28513 6.19531 4.21979 6.35582C4.15587 6.51634 4.04152 6.6946 3.87675 6.89062C3.71198 7.08523 3.47973 7.31889 3.18002 7.59162L2.54294 8.21591V8.24574H4.37533V9H1.26454ZM4.58403 8.23295V7.50639L6.40576 4.63636H7.03218V5.64205H6.66145L5.51301 7.45952V7.49361H8.10179V8.23295H4.58403ZM6.67849 9V8.01136L6.69554 7.68963V4.63636H7.56059V9H6.67849ZM10.1274 9.09588C9.76095 9.09446 9.44561 9.00426 9.1814 8.82528C8.91862 8.64631 8.7162 8.38707 8.57416 8.04759C8.43353 7.7081 8.36393 7.29972 8.36535 6.82244C8.36535 6.34659 8.43566 5.94105 8.57629 5.60582C8.71833 5.2706 8.92075 5.01562 9.18353 4.84091C9.44774 4.66477 9.76237 4.5767 10.1274 4.5767C10.4925 4.5767 10.8064 4.66477 11.0692 4.84091C11.3334 5.01705 11.5365 5.27273 11.6786 5.60795C11.8206 5.94176 11.8909 6.34659 11.8895 6.82244C11.8895 7.30114 11.8185 7.71023 11.6764 8.04972C11.5358 8.3892 11.3341 8.64844 11.0713 8.82741C10.8085 9.00639 10.4939 9.09588 10.1274 9.09588ZM10.1274 8.33097C10.3774 8.33097 10.577 8.20526 10.7261 7.95384C10.8753 7.70241 10.9492 7.32528 10.9477 6.82244C10.9477 6.49148 10.9136 6.21591 10.8455 5.99574C10.7787 5.77557 10.6835 5.61009 10.56 5.49929C10.4378 5.38849 10.2936 5.3331 10.1274 5.3331C9.87885 5.3331 9.67998 5.45739 9.53083 5.70597C9.38169 5.95455 9.3064 6.3267 9.30498 6.82244C9.30498 7.15767 9.33836 7.4375 9.40512 7.66193C9.47331 7.88494 9.56919 8.05256 9.69277 8.16477C9.81635 8.27557 9.96123 8.33097 10.1274 8.33097ZM1.28211 22V21.3352L2.83538 19.897C2.96748 19.7692 3.07828 19.6541 3.16777 19.5518C3.25868 19.4496 3.32757 19.3494 3.37444 19.2514C3.42132 19.152 3.44476 19.0447 3.44476 18.9297C3.44476 18.8018 3.41564 18.6918 3.3574 18.5994C3.29916 18.5057 3.21961 18.4339 3.11876 18.3842C3.01791 18.3331 2.90356 18.3075 2.77572 18.3075C2.6422 18.3075 2.52572 18.3345 2.42629 18.3885C2.32686 18.4425 2.25015 18.5199 2.19618 18.6207C2.1422 18.7216 2.11521 18.8416 2.11521 18.9808H1.2395C1.2395 18.6953 1.30413 18.4474 1.43339 18.2372C1.56265 18.027 1.74376 17.8643 1.97672 17.7493C2.20967 17.6342 2.47814 17.5767 2.78211 17.5767C3.09461 17.5767 3.36663 17.6321 3.59816 17.7429C3.83112 17.8523 4.01223 18.0043 4.14149 18.1989C4.27075 18.3935 4.33538 18.6165 4.33538 18.8679C4.33538 19.0327 4.30271 19.1953 4.23737 19.3558C4.17345 19.5163 4.0591 19.6946 3.89433 19.8906C3.72956 20.0852 3.49731 20.3189 3.1976 20.5916L2.56052 21.2159V21.2457H4.39291V22H1.28211ZM6.37434 22.0597C6.05615 22.0597 5.77277 22.005 5.52419 21.8956C5.27703 21.7848 5.08172 21.6328 4.93826 21.4396C4.79621 21.245 4.72306 21.0206 4.7188 20.7663H5.64777C5.65346 20.8729 5.68826 20.9666 5.75218 21.0476C5.81752 21.1271 5.90417 21.1889 6.01212 21.233C6.12007 21.277 6.24152 21.299 6.37647 21.299C6.51709 21.299 6.64138 21.2741 6.74934 21.2244C6.85729 21.1747 6.94181 21.1058 7.00289 21.0178C7.06397 20.9297 7.09451 20.8281 7.09451 20.7131C7.09451 20.5966 7.06184 20.4936 6.9965 20.4041C6.93257 20.3132 6.84025 20.2422 6.71951 20.1911C6.60019 20.1399 6.45814 20.1143 6.29337 20.1143H5.88641V19.4368H6.29337C6.43257 19.4368 6.55544 19.4126 6.66198 19.3643C6.76993 19.3161 6.85374 19.2493 6.9134 19.1641C6.97306 19.0774 7.00289 18.9766 7.00289 18.8615C7.00289 18.7521 6.97661 18.6562 6.92405 18.5739C6.87292 18.4901 6.80047 18.4247 6.70672 18.3778C6.61439 18.331 6.50644 18.3075 6.38286 18.3075C6.25786 18.3075 6.14351 18.3303 6.03982 18.3757C5.93613 18.4197 5.85303 18.483 5.79053 18.5653C5.72803 18.6477 5.69465 18.7443 5.69039 18.8551H4.80615C4.81042 18.6037 4.88215 18.3821 5.02135 18.1903C5.16056 17.9986 5.34806 17.8487 5.58385 17.7408C5.82107 17.6314 6.08882 17.5767 6.38712 17.5767C6.68826 17.5767 6.95175 17.6314 7.1776 17.7408C7.40346 17.8501 7.57888 17.9979 7.70388 18.1839C7.8303 18.3686 7.8928 18.576 7.89138 18.8061C7.8928 19.0504 7.81681 19.2543 7.6634 19.4176C7.51141 19.581 7.31326 19.6847 7.06894 19.7287V19.7628C7.38996 19.804 7.63428 19.9155 7.80189 20.0973C7.97093 20.2777 8.05473 20.5036 8.05331 20.7749C8.05473 21.0234 7.983 21.2443 7.83811 21.4375C7.69465 21.6307 7.4965 21.7827 7.24365 21.8935C6.99081 22.0043 6.70104 22.0597 6.37434 22.0597ZM10.1274 22.0959C9.76095 22.0945 9.44561 22.0043 9.1814 21.8253C8.91862 21.6463 8.7162 21.3871 8.57416 21.0476C8.43353 20.7081 8.36393 20.2997 8.36535 19.8224C8.36535 19.3466 8.43566 18.9411 8.57629 18.6058C8.71833 18.2706 8.92075 18.0156 9.18353 17.8409C9.44774 17.6648 9.76237 17.5767 10.1274 17.5767C10.4925 17.5767 10.8064 17.6648 11.0692 17.8409C11.3334 18.017 11.5365 18.2727 11.6786 18.608C11.8206 18.9418 11.8909 19.3466 11.8895 19.8224C11.8895 20.3011 11.8185 20.7102 11.6764 21.0497C11.5358 21.3892 11.3341 21.6484 11.0713 21.8274C10.8085 22.0064 10.4939 22.0959 10.1274 22.0959ZM10.1274 21.331C10.3774 21.331 10.577 21.2053 10.7261 20.9538C10.8753 20.7024 10.9492 20.3253 10.9477 19.8224C10.9477 19.4915 10.9136 19.2159 10.8455 18.9957C10.7787 18.7756 10.6835 18.6101 10.56 18.4993C10.4378 18.3885 10.2936 18.3331 10.1274 18.3331C9.87885 18.3331 9.67998 18.4574 9.53083 18.706C9.38169 18.9545 9.3064 19.3267 9.30498 19.8224C9.30498 20.1577 9.33836 20.4375 9.40512 20.6619C9.47331 20.8849 9.56919 21.0526 9.69277 21.1648C9.81635 21.2756 9.96123 21.331 10.1274 21.331ZM1.45789 35V34.3352L3.01116 32.897C3.14326 32.7692 3.25406 32.6541 3.34355 32.5518C3.43446 32.4496 3.50335 32.3494 3.55022 32.2514C3.5971 32.152 3.62054 32.0447 3.62054 31.9297C3.62054 31.8018 3.59142 31.6918 3.53318 31.5994C3.47494 31.5057 3.39539 31.4339 3.29454 31.3842C3.19369 31.3331 3.07934 31.3075 2.9515 31.3075C2.81798 31.3075 2.7015 31.3345 2.60207 31.3885C2.50264 31.4425 2.42593 31.5199 2.37196 31.6207C2.31798 31.7216 2.29099 31.8416 2.29099 31.9808H1.41528C1.41528 31.6953 1.47991 31.4474 1.60917 31.2372C1.73843 31.027 1.91954 30.8643 2.1525 30.7493C2.38545 30.6342 2.65392 30.5767 2.95789 30.5767C3.27039 30.5767 3.54241 30.6321 3.77395 30.7429C4.0069 30.8523 4.18801 31.0043 4.31727 31.1989C4.44653 31.3935 4.51116 31.6165 4.51116 31.8679C4.51116 32.0327 4.47849 32.1953 4.41315 32.3558C4.34923 32.5163 4.23488 32.6946 4.07011 32.8906C3.90534 33.0852 3.67309 33.3189 3.37338 33.5916L2.7363 34.2159V34.2457H4.56869V35H1.45789ZM4.93719 35V34.3352L6.49046 32.897C6.62256 32.7692 6.73336 32.6541 6.82284 32.5518C6.91375 32.4496 6.98265 32.3494 7.02952 32.2514C7.0764 32.152 7.09983 32.0447 7.09983 31.9297C7.09983 31.8018 7.07071 31.6918 7.01248 31.5994C6.95424 31.5057 6.87469 31.4339 6.77384 31.3842C6.67299 31.3331 6.55864 31.3075 6.4308 31.3075C6.29728 31.3075 6.1808 31.3345 6.08137 31.3885C5.98194 31.4425 5.90523 31.5199 5.85125 31.6207C5.79728 31.7216 5.77029 31.8416 5.77029 31.9808H4.89458C4.89458 31.6953 4.95921 31.4474 5.08847 31.2372C5.21773 31.027 5.39884 30.8643 5.63179 30.7493C5.86475 30.6342 6.13321 30.5767 6.43719 30.5767C6.74969 30.5767 7.02171 30.6321 7.25324 30.7429C7.4862 30.8523 7.6673 31.0043 7.79657 31.1989C7.92583 31.3935 7.99046 31.6165 7.99046 31.8679C7.99046 32.0327 7.95779 32.1953 7.89245 32.3558C7.82853 32.5163 7.71418 32.6946 7.54941 32.8906C7.38463 33.0852 7.15239 33.3189 6.85267 33.5916L6.2156 34.2159V34.2457H8.04799V35H4.93719ZM10.1274 35.0959C9.76095 35.0945 9.44561 35.0043 9.1814 34.8253C8.91862 34.6463 8.7162 34.3871 8.57416 34.0476C8.43353 33.7081 8.36393 33.2997 8.36535 32.8224C8.36535 32.3466 8.43566 31.9411 8.57629 31.6058C8.71833 31.2706 8.92075 31.0156 9.18353 30.8409C9.44774 30.6648 9.76237 30.5767 10.1274 30.5767C10.4925 30.5767 10.8064 30.6648 11.0692 30.8409C11.3334 31.017 11.5365 31.2727 11.6786 31.608C11.8206 31.9418 11.8909 32.3466 11.8895 32.8224C11.8895 33.3011 11.8185 33.7102 11.6764 34.0497C11.5358 34.3892 11.3341 34.6484 11.0713 34.8274C10.8085 35.0064 10.4939 35.0959 10.1274 35.0959ZM10.1274 34.331C10.3774 34.331 10.577 34.2053 10.7261 33.9538C10.8753 33.7024 10.9492 33.3253 10.9477 32.8224C10.9477 32.4915 10.9136 32.2159 10.8455 31.9957C10.7787 31.7756 10.6835 31.6101 10.56 31.4993C10.4378 31.3885 10.2936 31.3331 10.1274 31.3331C9.87885 31.3331 9.67998 31.4574 9.53083 31.706C9.38169 31.9545 9.3064 32.3267 9.30498 32.8224C9.30498 33.1577 9.33836 33.4375 9.40512 33.6619C9.47331 33.8849 9.56919 34.0526 9.69277 34.1648C9.81635 34.2756 9.96123 34.331 10.1274 34.331ZM2.30164 48V47.3352L3.85491 45.897C3.98701 45.7692 4.09781 45.6541 4.1873 45.5518C4.27821 45.4496 4.3471 45.3494 4.39397 45.2514C4.44085 45.152 4.46429 45.0447 4.46429 44.9297C4.46429 44.8018 4.43517 44.6918 4.37693 44.5994C4.31869 44.5057 4.23914 44.4339 4.13829 44.3842C4.03744 44.3331 3.92309 44.3075 3.79525 44.3075C3.66173 44.3075 3.54525 44.3345 3.44582 44.3885C3.34639 44.4425 3.26968 44.5199 3.21571 44.6207C3.16173 44.7216 3.13474 44.8416 3.13474 44.9808H2.25903C2.25903 44.6953 2.32366 44.4474 2.45292 44.2372C2.58218 44.027 2.76329 43.8643 2.99625 43.7493C3.2292 43.6342 3.49767 43.5767 3.80164 43.5767C4.11414 43.5767 4.38616 43.6321 4.6177 43.7429C4.85065 43.8523 5.03176 44.0043 5.16102 44.1989C5.29028 44.3935 5.35491 44.6165 5.35491 44.8679C5.35491 45.0327 5.32224 45.1953 5.2569 45.3558C5.19298 45.5163 5.07863 45.6946 4.91386 45.8906C4.74909 46.0852 4.51684 46.3189 4.21713 46.5916L3.58005 47.2159V47.2457H5.41244V48H2.30164ZM7.67938 43.6364V48H6.75679V44.5121H6.73123L5.73194 45.1385V44.3203L6.81219 43.6364H7.67938ZM10.1274 48.0959C9.76095 48.0945 9.44561 48.0043 9.1814 47.8253C8.91862 47.6463 8.7162 47.3871 8.57416 47.0476C8.43353 46.7081 8.36393 46.2997 8.36535 45.8224C8.36535 45.3466 8.43566 44.9411 8.57629 44.6058C8.71833 44.2706 8.92075 44.0156 9.18353 43.8409C9.44774 43.6648 9.76237 43.5767 10.1274 43.5767C10.4925 43.5767 10.8064 43.6648 11.0692 43.8409C11.3334 44.017 11.5365 44.2727 11.6786 44.608C11.8206 44.9418 11.8909 45.3466 11.8895 45.8224C11.8895 46.3011 11.8185 46.7102 11.6764 47.0497C11.5358 47.3892 11.3341 47.6484 11.0713 47.8274C10.8085 48.0064 10.4939 48.0959 10.1274 48.0959ZM10.1274 47.331C10.3774 47.331 10.577 47.2053 10.7261 46.9538C10.8753 46.7024 10.9492 46.3253 10.9477 45.8224C10.9477 45.4915 10.9136 45.2159 10.8455 44.9957C10.7787 44.7756 10.6835 44.6101 10.56 44.4993C10.4378 44.3885 10.2936 44.3331 10.1274 44.3331C9.87885 44.3331 9.67998 44.4574 9.53083 44.706C9.38169 44.9545 9.3064 45.3267 9.30498 45.8224C9.30498 46.1577 9.33836 46.4375 9.40512 46.6619C9.47331 46.8849 9.56919 47.0526 9.69277 47.1648C9.81635 47.2756 9.96123 47.331 10.1274 47.331ZM1.10633 61V60.3352L2.6596 58.897C2.7917 58.7692 2.9025 58.6541 2.99199 58.5518C3.08289 58.4496 3.15179 58.3494 3.19866 58.2514C3.24554 58.152 3.26897 58.0447 3.26897 57.9297C3.26897 57.8018 3.23985 57.6918 3.18162 57.5994C3.12338 57.5057 3.04383 57.4339 2.94298 57.3842C2.84213 57.3331 2.72778 57.3075 2.59994 57.3075C2.46642 57.3075 2.34994 57.3345 2.25051 57.3885C2.15108 57.4425 2.07437 57.5199 2.02039 57.6207C1.96642 57.7216 1.93943 57.8416 1.93943 57.9808H1.06372C1.06372 57.6953 1.12835 57.4474 1.25761 57.2372C1.38687 57.027 1.56798 56.8643 1.80093 56.7493C2.03389 56.6342 2.30235 56.5767 2.60633 56.5767C2.91883 56.5767 3.19085 56.6321 3.42238 56.7429C3.65534 56.8523 3.83645 57.0043 3.96571 57.1989C4.09497 57.3935 4.1596 57.6165 4.1596 57.8679C4.1596 58.0327 4.12693 58.1953 4.06159 58.3558C3.99767 58.5163 3.88332 58.6946 3.71855 58.8906C3.55378 59.0852 3.32153 59.3189 3.02182 59.5916L2.38474 60.2159V60.2457H4.21713V61H1.10633ZM6.29657 61.0959C5.93009 61.0945 5.61475 61.0043 5.35054 60.8253C5.08776 60.6463 4.88534 60.3871 4.7433 60.0476C4.60267 59.7081 4.53307 59.2997 4.53449 58.8224C4.53449 58.3466 4.6048 57.9411 4.74543 57.6058C4.88748 57.2706 5.08989 57.0156 5.35267 56.8409C5.61688 56.6648 5.93151 56.5767 6.29657 56.5767C6.66162 56.5767 6.97554 56.6648 7.23833 56.8409C7.50253 57.017 7.70566 57.2727 7.8477 57.608C7.98975 57.9418 8.06006 58.3466 8.05864 58.8224C8.05864 59.3011 7.98762 59.7102 7.84557 60.0497C7.70495 60.3892 7.50324 60.6484 7.24046 60.8274C6.97767 61.0064 6.66304 61.0959 6.29657 61.0959ZM6.29657 60.331C6.54657 60.331 6.74614 60.2053 6.89529 59.9538C7.04444 59.7024 7.1183 59.3253 7.11688 58.8224C7.11688 58.4915 7.08279 58.2159 7.01461 57.9957C6.94784 57.7756 6.85267 57.6101 6.72909 57.4993C6.60694 57.3885 6.46276 57.3331 6.29657 57.3331C6.04799 57.3331 5.84912 57.4574 5.69998 57.706C5.55083 57.9545 5.47554 58.3267 5.47412 58.8224C5.47412 59.1577 5.5075 59.4375 5.57427 59.6619C5.64245 59.8849 5.73833 60.0526 5.86191 60.1648C5.98549 60.2756 6.13037 60.331 6.29657 60.331ZM10.1274 61.0959C9.76095 61.0945 9.44561 61.0043 9.1814 60.8253C8.91862 60.6463 8.7162 60.3871 8.57416 60.0476C8.43353 59.7081 8.36393 59.2997 8.36535 58.8224C8.36535 58.3466 8.43566 57.9411 8.57629 57.6058C8.71833 57.2706 8.92075 57.0156 9.18353 56.8409C9.44774 56.6648 9.76237 56.5767 10.1274 56.5767C10.4925 56.5767 10.8064 56.6648 11.0692 56.8409C11.3334 57.017 11.5365 57.2727 11.6786 57.608C11.8206 57.9418 11.8909 58.3466 11.8895 58.8224C11.8895 59.3011 11.8185 59.7102 11.6764 60.0497C11.5358 60.3892 11.3341 60.6484 11.0713 60.8274C10.8085 61.0064 10.4939 61.0959 10.1274 61.0959ZM10.1274 60.331C10.3774 60.331 10.577 60.2053 10.7261 59.9538C10.8753 59.7024 10.9492 59.3253 10.9477 58.8224C10.9477 58.4915 10.9136 58.2159 10.8455 57.9957C10.7787 57.7756 10.6835 57.6101 10.56 57.4993C10.4378 57.3885 10.2936 57.3331 10.1274 57.3331C9.87885 57.3331 9.67998 57.4574 9.53083 57.706C9.38169 57.9545 9.3064 58.3267 9.30498 58.8224C9.30498 59.1577 9.33836 59.4375 9.40512 59.6619C9.47331 59.8849 9.56919 60.0526 9.69277 60.1648C9.81635 60.2756 9.96123 60.331 10.1274 60.331ZM4.01844 69.6364V74H3.09586V70.5121H3.07029L2.071 71.1385V70.3203L3.15125 69.6364H4.01844ZM6.33439 69.5767C6.55882 69.5767 6.77473 69.6143 6.98211 69.6896C7.19092 69.7649 7.377 69.8849 7.54035 70.0497C7.70512 70.2145 7.8351 70.4332 7.93027 70.706C8.02686 70.9773 8.07586 71.3104 8.07728 71.7053C8.07728 72.076 8.03538 72.407 7.95157 72.6982C7.86919 72.9879 7.75058 73.2344 7.59575 73.4375C7.44092 73.6406 7.25413 73.7955 7.03538 73.902C6.81663 74.0071 6.57231 74.0597 6.30243 74.0597C6.01123 74.0597 5.75413 74.0036 5.53112 73.8913C5.30811 73.7777 5.12842 73.6236 4.99206 73.429C4.85711 73.233 4.77544 73.0128 4.74703 72.7685H5.65683C5.69234 72.9276 5.76691 73.0511 5.88055 73.1392C5.99419 73.2259 6.13481 73.2692 6.30243 73.2692C6.58652 73.2692 6.80243 73.1456 6.95015 72.8984C7.09788 72.6499 7.17245 72.3097 7.17387 71.8778H7.14404C7.0787 72.0057 6.99064 72.1158 6.87984 72.2081C6.76904 72.299 6.64191 72.3693 6.49845 72.419C6.3564 72.4688 6.20512 72.4936 6.04461 72.4936C5.78751 72.4936 5.55811 72.4332 5.3564 72.3125C5.1547 72.1918 4.99561 72.0256 4.87913 71.8139C4.76265 71.6023 4.70441 71.3608 4.70441 71.0895C4.70299 70.7969 4.77047 70.5362 4.90683 70.3075C5.04319 70.0788 5.23353 69.8999 5.47785 69.7706C5.72359 69.6399 6.0091 69.5753 6.33439 69.5767ZM6.34078 70.3011C6.19731 70.3011 6.06947 70.3352 5.95726 70.4034C5.84646 70.4716 5.75839 70.5632 5.69305 70.6783C5.62913 70.7933 5.59788 70.9219 5.5993 71.0639C5.5993 71.2074 5.63055 71.3366 5.69305 71.4517C5.75697 71.5653 5.84362 71.6562 5.95299 71.7244C6.06379 71.7912 6.19021 71.8246 6.33226 71.8246C6.43879 71.8246 6.53751 71.8047 6.62842 71.7649C6.71933 71.7251 6.79816 71.6705 6.86493 71.6009C6.93311 71.5298 6.98637 71.4482 7.02473 71.3558C7.06308 71.2635 7.08226 71.1655 7.08226 71.0618C7.08083 70.924 7.04816 70.7976 6.98424 70.6825C6.92032 70.5675 6.83226 70.4751 6.72004 70.4055C6.60782 70.3359 6.4814 70.3011 6.34078 70.3011ZM10.1274 74.0959C9.76095 74.0945 9.44561 74.0043 9.1814 73.8253C8.91862 73.6463 8.7162 73.3871 8.57416 73.0476C8.43353 72.7081 8.36393 72.2997 8.36535 71.8224C8.36535 71.3466 8.43566 70.9411 8.57629 70.6058C8.71833 70.2706 8.92075 70.0156 9.18353 69.8409C9.44774 69.6648 9.76237 69.5767 10.1274 69.5767C10.4925 69.5767 10.8064 69.6648 11.0692 69.8409C11.3334 70.017 11.5365 70.2727 11.6786 70.608C11.8206 70.9418 11.8909 71.3466 11.8895 71.8224C11.8895 72.3011 11.8185 72.7102 11.6764 73.0497C11.5358 73.3892 11.3341 73.6484 11.0713 73.8274C10.8085 74.0064 10.4939 74.0959 10.1274 74.0959ZM10.1274 73.331C10.3774 73.331 10.577 73.2053 10.7261 72.9538C10.8753 72.7024 10.9492 72.3253 10.9477 71.8224C10.9477 71.4915 10.9136 71.2159 10.8455 70.9957C10.7787 70.7756 10.6835 70.6101 10.56 70.4993C10.4378 70.3885 10.2936 70.3331 10.1274 70.3331C9.87885 70.3331 9.67998 70.4574 9.53083 70.706C9.38169 70.9545 9.3064 71.3267 9.30498 71.8224C9.30498 72.1577 9.33836 72.4375 9.40512 72.6619C9.47331 72.8849 9.56919 73.0526 9.69277 73.1648C9.81635 73.2756 9.96123 73.331 10.1274 73.331ZM4.01258 82.6364V87H3.09V83.5121H3.06443L2.06514 84.1385V83.3203L3.14539 82.6364H4.01258ZM6.37753 87.0597C6.04941 87.0597 5.7575 87.0064 5.50182 86.8999C5.24756 86.7919 5.04799 86.6449 4.9031 86.4588C4.75821 86.2727 4.68577 86.0618 4.68577 85.826C4.68577 85.6442 4.72696 85.4773 4.80935 85.3253C4.89316 85.1719 5.00679 85.0447 5.15026 84.9439C5.29373 84.8416 5.45424 84.7763 5.63179 84.7479V84.718C5.39884 84.6712 5.20992 84.5582 5.06503 84.3793C4.92015 84.1989 4.8477 83.9893 4.8477 83.7507C4.8477 83.5249 4.91375 83.3239 5.04586 83.1477C5.17796 82.9702 5.35907 82.831 5.58918 82.7301C5.82071 82.6278 6.0835 82.5767 6.37753 82.5767C6.67157 82.5767 6.93364 82.6278 7.16375 82.7301C7.39529 82.8324 7.57711 82.9723 7.70921 83.1499C7.84131 83.326 7.90807 83.5263 7.90949 83.7507C7.90807 83.9908 7.83421 84.2003 7.6879 84.3793C7.54159 84.5582 7.35409 84.6712 7.1254 84.718V84.7479C7.30012 84.7763 7.4585 84.8416 7.60054 84.9439C7.74401 85.0447 7.85765 85.1719 7.94145 85.3253C8.02668 85.4773 8.07 85.6442 8.07142 85.826C8.07 86.0618 7.99685 86.2727 7.85196 86.4588C7.70708 86.6449 7.50679 86.7919 7.25111 86.8999C6.99685 87.0064 6.70566 87.0597 6.37753 87.0597ZM6.37753 86.3821C6.52384 86.3821 6.65168 86.3558 6.76105 86.3033C6.87043 86.2493 6.95566 86.1754 7.01674 86.0817C7.07924 85.9865 7.11049 85.8771 7.11049 85.7536C7.11049 85.6271 7.07853 85.5156 7.01461 85.419C6.95069 85.321 6.86404 85.2443 6.75466 85.1889C6.64529 85.1321 6.51958 85.1037 6.37753 85.1037C6.23691 85.1037 6.1112 85.1321 6.0004 85.1889C5.88961 85.2443 5.80225 85.321 5.73833 85.419C5.67583 85.5156 5.64458 85.6271 5.64458 85.7536C5.64458 85.8771 5.67512 85.9865 5.7362 86.0817C5.79728 86.1754 5.88321 86.2493 5.99401 86.3033C6.1048 86.3558 6.23265 86.3821 6.37753 86.3821ZM6.37753 84.4325C6.49969 84.4325 6.60836 84.4077 6.70353 84.358C6.7987 84.3082 6.87327 84.2393 6.92725 84.1513C6.98123 84.0632 7.00821 83.9616 7.00821 83.8466C7.00821 83.733 6.98123 83.6335 6.92725 83.5483C6.87327 83.4616 6.79941 83.3942 6.70566 83.3459C6.61191 83.2962 6.50253 83.2713 6.37753 83.2713C6.25395 83.2713 6.14458 83.2962 6.04941 83.3459C5.95424 83.3942 5.87966 83.4616 5.82569 83.5483C5.77313 83.6335 5.74685 83.733 5.74685 83.8466C5.74685 83.9616 5.77384 84.0632 5.82782 84.1513C5.88179 84.2393 5.95637 84.3082 6.05154 84.358C6.14671 84.4077 6.25537 84.4325 6.37753 84.4325ZM10.1274 87.0959C9.76095 87.0945 9.44561 87.0043 9.1814 86.8253C8.91862 86.6463 8.7162 86.3871 8.57416 86.0476C8.43353 85.7081 8.36393 85.2997 8.36535 84.8224C8.36535 84.3466 8.43566 83.9411 8.57629 83.6058C8.71833 83.2706 8.92075 83.0156 9.18353 82.8409C9.44774 82.6648 9.76237 82.5767 10.1274 82.5767C10.4925 82.5767 10.8064 82.6648 11.0692 82.8409C11.3334 83.017 11.5365 83.2727 11.6786 83.608C11.8206 83.9418 11.8909 84.3466 11.8895 84.8224C11.8895 85.3011 11.8185 85.7102 11.6764 86.0497C11.5358 86.3892 11.3341 86.6484 11.0713 86.8274C10.8085 87.0064 10.4939 87.0959 10.1274 87.0959ZM10.1274 86.331C10.3774 86.331 10.577 86.2053 10.7261 85.9538C10.8753 85.7024 10.9492 85.3253 10.9477 84.8224C10.9477 84.4915 10.9136 84.2159 10.8455 83.9957C10.7787 83.7756 10.6835 83.6101 10.56 83.4993C10.4378 83.3885 10.2936 83.3331 10.1274 83.3331C9.87885 83.3331 9.67998 83.4574 9.53083 83.706C9.38169 83.9545 9.3064 84.3267 9.30498 84.8224C9.30498 85.1577 9.33836 85.4375 9.40512 85.6619C9.47331 85.8849 9.56919 86.0526 9.69277 86.1648C9.81635 86.2756 9.96123 86.331 10.1274 86.331ZM4.50477 95.6364V100H3.58218V96.5121H3.55662L2.55733 97.1385V96.3203L3.63758 95.6364H4.50477ZM5.41446 100L7.22341 96.4205V96.3906H5.11617V95.6364H8.17796V96.4013L6.36688 100H5.41446ZM10.1274 100.096C9.76095 100.094 9.44561 100.004 9.1814 99.8253C8.91862 99.6463 8.7162 99.3871 8.57416 99.0476C8.43353 98.7081 8.36393 98.2997 8.36535 97.8224C8.36535 97.3466 8.43566 96.9411 8.57629 96.6058C8.71833 96.2706 8.92075 96.0156 9.18353 95.8409C9.44774 95.6648 9.76237 95.5767 10.1274 95.5767C10.4925 95.5767 10.8064 95.6648 11.0692 95.8409C11.3334 96.017 11.5365 96.2727 11.6786 96.608C11.8206 96.9418 11.8909 97.3466 11.8895 97.8224C11.8895 98.3011 11.8185 98.7102 11.6764 99.0497C11.5358 99.3892 11.3341 99.6484 11.0713 99.8274C10.8085 100.006 10.4939 100.096 10.1274 100.096ZM10.1274 99.331C10.3774 99.331 10.577 99.2053 10.7261 98.9538C10.8753 98.7024 10.9492 98.3253 10.9477 97.8224C10.9477 97.4915 10.9136 97.2159 10.8455 96.9957C10.7787 96.7756 10.6835 96.6101 10.56 96.4993C10.4378 96.3885 10.2936 96.3331 10.1274 96.3331C9.87885 96.3331 9.67998 96.4574 9.53083 96.706C9.38169 96.9545 9.3064 97.3267 9.30498 97.8224C9.30498 98.1577 9.33836 98.4375 9.40512 98.6619C9.47331 98.8849 9.56919 99.0526 9.69277 99.1648C9.81635 99.2756 9.96123 99.331 10.1274 99.331ZM4.01844 108.636V113H3.09586V109.512H3.07029L2.071 110.138V109.32L3.15125 108.636H4.01844ZM6.43027 113.06C6.20583 113.058 5.98922 113.021 5.78041 112.947C5.57302 112.873 5.38694 112.753 5.22217 112.587C5.0574 112.42 4.92672 112.2 4.83012 111.926C4.73495 111.652 4.68737 111.315 4.68737 110.916C4.68879 110.55 4.73069 110.222 4.81308 109.934C4.89689 109.644 5.0162 109.398 5.17103 109.197C5.32728 108.995 5.51407 108.842 5.7314 108.737C5.94873 108.63 6.19234 108.577 6.46223 108.577C6.75342 108.577 7.01052 108.634 7.23353 108.747C7.45654 108.859 7.63552 109.012 7.77047 109.205C7.90683 109.398 7.98922 109.615 8.01762 109.855H7.10782C7.07231 109.703 6.99774 109.584 6.8841 109.497C6.77047 109.411 6.62984 109.367 6.46223 109.367C6.17814 109.367 5.96223 109.491 5.8145 109.738C5.66819 109.985 5.59362 110.321 5.59078 110.746H5.62061C5.68595 110.616 5.77402 110.506 5.88481 110.415C5.99703 110.323 6.12416 110.253 6.2662 110.205C6.40967 110.155 6.56095 110.13 6.72004 110.13C6.97856 110.13 7.20868 110.191 7.41038 110.313C7.61208 110.434 7.77118 110.6 7.88765 110.812C8.00413 111.023 8.06237 111.266 8.06237 111.538C8.06237 111.834 7.99348 112.097 7.85569 112.327C7.71933 112.557 7.52828 112.737 7.28254 112.868C7.03822 112.997 6.75413 113.061 6.43027 113.06ZM6.42601 112.335C6.56805 112.335 6.69518 112.301 6.8074 112.233C6.91961 112.165 7.00768 112.072 7.0716 111.956C7.13552 111.839 7.16748 111.709 7.16748 111.564C7.16748 111.419 7.13552 111.289 7.0716 111.174C7.0091 111.059 6.92245 110.967 6.81166 110.899C6.70086 110.831 6.57444 110.797 6.4324 110.797C6.32586 110.797 6.22714 110.817 6.13623 110.857C6.04674 110.896 5.96791 110.952 5.89973 111.023C5.83297 111.094 5.78041 111.176 5.74206 111.27C5.7037 111.362 5.68453 111.461 5.68453 111.566C5.68453 111.707 5.71649 111.835 5.78041 111.952C5.84575 112.068 5.93382 112.161 6.04461 112.231C6.15683 112.3 6.28396 112.335 6.42601 112.335ZM10.1274 113.096C9.76095 113.094 9.44561 113.004 9.1814 112.825C8.91862 112.646 8.7162 112.387 8.57416 112.048C8.43353 111.708 8.36393 111.3 8.36535 110.822C8.36535 110.347 8.43566 109.941 8.57629 109.606C8.71833 109.271 8.92075 109.016 9.18353 108.841C9.44774 108.665 9.76237 108.577 10.1274 108.577C10.4925 108.577 10.8064 108.665 11.0692 108.841C11.3334 109.017 11.5365 109.273 11.6786 109.608C11.8206 109.942 11.8909 110.347 11.8895 110.822C11.8895 111.301 11.8185 111.71 11.6764 112.05C11.5358 112.389 11.3341 112.648 11.0713 112.827C10.8085 113.006 10.4939 113.096 10.1274 113.096ZM10.1274 112.331C10.3774 112.331 10.577 112.205 10.7261 111.954C10.8753 111.702 10.9492 111.325 10.9477 110.822C10.9477 110.491 10.9136 110.216 10.8455 109.996C10.7787 109.776 10.6835 109.61 10.56 109.499C10.4378 109.388 10.2936 109.333 10.1274 109.333C9.87885 109.333 9.67998 109.457 9.53083 109.706C9.38169 109.955 9.3064 110.327 9.30498 110.822C9.30498 111.158 9.33836 111.438 9.40512 111.662C9.47331 111.885 9.56919 112.053 9.69277 112.165C9.81635 112.276 9.96123 112.331 10.1274 112.331ZM4.11219 121.636V126H3.18961V122.512H3.16404L2.16475 123.138V122.32L3.245 121.636H4.11219ZM6.44305 126.06C6.14191 126.06 5.87345 126.004 5.63765 125.893C5.40328 125.783 5.2172 125.63 5.07941 125.435C4.94163 125.241 4.8699 125.018 4.86422 124.766H5.7591C5.76904 124.935 5.84007 125.072 5.97217 125.178C6.10427 125.283 6.26123 125.335 6.44305 125.335C6.58794 125.335 6.71578 125.303 6.82657 125.239C6.93879 125.174 7.02615 125.084 7.08865 124.969C7.15257 124.852 7.18453 124.719 7.18453 124.568C7.18453 124.415 7.15186 124.28 7.08652 124.163C7.0226 124.047 6.93382 123.956 6.82018 123.891C6.70654 123.825 6.57657 123.792 6.43027 123.79C6.30243 123.79 6.17814 123.817 6.0574 123.869C5.93808 123.922 5.84504 123.994 5.77828 124.085L4.95797 123.938L5.16464 121.636H7.83226V122.391H5.92529L5.81237 123.484H5.83794C5.91464 123.376 6.03041 123.286 6.18524 123.215C6.34007 123.144 6.51336 123.109 6.70512 123.109C6.96791 123.109 7.20228 123.17 7.40825 123.294C7.61422 123.418 7.77686 123.587 7.89618 123.803C8.01549 124.018 8.07444 124.265 8.07302 124.545C8.07444 124.839 8.00626 125.1 7.86848 125.329C7.73211 125.556 7.54106 125.735 7.29532 125.866C7.05101 125.995 6.76691 126.06 6.44305 126.06ZM10.1274 126.096C9.76095 126.094 9.44561 126.004 9.1814 125.825C8.91862 125.646 8.7162 125.387 8.57416 125.048C8.43353 124.708 8.36393 124.3 8.36535 123.822C8.36535 123.347 8.43566 122.941 8.57629 122.606C8.71833 122.271 8.92075 122.016 9.18353 121.841C9.44774 121.665 9.76237 121.577 10.1274 121.577C10.4925 121.577 10.8064 121.665 11.0692 121.841C11.3334 122.017 11.5365 122.273 11.6786 122.608C11.8206 122.942 11.8909 123.347 11.8895 123.822C11.8895 124.301 11.8185 124.71 11.6764 125.05C11.5358 125.389 11.3341 125.648 11.0713 125.827C10.8085 126.006 10.4939 126.096 10.1274 126.096ZM10.1274 125.331C10.3774 125.331 10.577 125.205 10.7261 124.954C10.8753 124.702 10.9492 124.325 10.9477 123.822C10.9477 123.491 10.9136 123.216 10.8455 122.996C10.7787 122.776 10.6835 122.61 10.56 122.499C10.4378 122.388 10.2936 122.333 10.1274 122.333C9.87885 122.333 9.67998 122.457 9.53083 122.706C9.38169 122.955 9.3064 123.327 9.30498 123.822C9.30498 124.158 9.33836 124.438 9.40512 124.662C9.47331 124.885 9.56919 125.053 9.69277 125.165C9.81635 125.276 9.96123 125.331 10.1274 125.331ZM3.91297 134.636V139H2.99039V135.512H2.96482L1.96553 136.138V135.32L3.04579 134.636H3.91297ZM4.58403 138.233V137.506L6.40576 134.636H7.03218V135.642H6.66145L5.51301 137.46V137.494H8.10179V138.233H4.58403ZM6.67849 139V138.011L6.69554 137.69V134.636H7.56059V139H6.67849ZM10.1274 139.096C9.76095 139.094 9.44561 139.004 9.1814 138.825C8.91862 138.646 8.7162 138.387 8.57416 138.048C8.43353 137.708 8.36393 137.3 8.36535 136.822C8.36535 136.347 8.43566 135.941 8.57629 135.606C8.71833 135.271 8.92075 135.016 9.18353 134.841C9.44774 134.665 9.76237 134.577 10.1274 134.577C10.4925 134.577 10.8064 134.665 11.0692 134.841C11.3334 135.017 11.5365 135.273 11.6786 135.608C11.8206 135.942 11.8909 136.347 11.8895 136.822C11.8895 137.301 11.8185 137.71 11.6764 138.05C11.5358 138.389 11.3341 138.648 11.0713 138.827C10.8085 139.006 10.4939 139.096 10.1274 139.096ZM10.1274 138.331C10.3774 138.331 10.577 138.205 10.7261 137.954C10.8753 137.702 10.9492 137.325 10.9477 136.822C10.9477 136.491 10.9136 136.216 10.8455 135.996C10.7787 135.776 10.6835 135.61 10.56 135.499C10.4378 135.388 10.2936 135.333 10.1274 135.333C9.87885 135.333 9.67998 135.457 9.53083 135.706C9.38169 135.955 9.3064 136.327 9.30498 136.822C9.30498 137.158 9.33836 137.438 9.40512 137.662C9.47331 137.885 9.56919 138.053 9.69277 138.165C9.81635 138.276 9.96123 138.331 10.1274 138.331ZM4.0243 147.636V152H3.10172V148.512H3.07615L2.07686 149.138V148.32L3.15711 147.636H4.0243ZM6.37434 152.06C6.05615 152.06 5.77277 152.005 5.52419 151.896C5.27703 151.785 5.08172 151.633 4.93826 151.44C4.79621 151.245 4.72306 151.021 4.7188 150.766H5.64777C5.65346 150.873 5.68826 150.967 5.75218 151.048C5.81752 151.127 5.90417 151.189 6.01212 151.233C6.12007 151.277 6.24152 151.299 6.37647 151.299C6.51709 151.299 6.64138 151.274 6.74934 151.224C6.85729 151.175 6.94181 151.106 7.00289 151.018C7.06397 150.93 7.09451 150.828 7.09451 150.713C7.09451 150.597 7.06184 150.494 6.9965 150.404C6.93257 150.313 6.84025 150.242 6.71951 150.191C6.60019 150.14 6.45814 150.114 6.29337 150.114H5.88641V149.437H6.29337C6.43257 149.437 6.55544 149.413 6.66198 149.364C6.76993 149.316 6.85374 149.249 6.9134 149.164C6.97306 149.077 7.00289 148.977 7.00289 148.862C7.00289 148.752 6.97661 148.656 6.92405 148.574C6.87292 148.49 6.80047 148.425 6.70672 148.378C6.61439 148.331 6.50644 148.308 6.38286 148.308C6.25786 148.308 6.14351 148.33 6.03982 148.376C5.93613 148.42 5.85303 148.483 5.79053 148.565C5.72803 148.648 5.69465 148.744 5.69039 148.855H4.80615C4.81042 148.604 4.88215 148.382 5.02135 148.19C5.16056 147.999 5.34806 147.849 5.58385 147.741C5.82107 147.631 6.08882 147.577 6.38712 147.577C6.68826 147.577 6.95175 147.631 7.1776 147.741C7.40346 147.85 7.57888 147.998 7.70388 148.184C7.8303 148.369 7.8928 148.576 7.89138 148.806C7.8928 149.05 7.81681 149.254 7.6634 149.418C7.51141 149.581 7.31326 149.685 7.06894 149.729V149.763C7.38996 149.804 7.63428 149.915 7.80189 150.097C7.97093 150.278 8.05473 150.504 8.05331 150.775C8.05473 151.023 7.983 151.244 7.83811 151.438C7.69465 151.631 7.4965 151.783 7.24365 151.893C6.99081 152.004 6.70104 152.06 6.37434 152.06ZM10.1274 152.096C9.76095 152.094 9.44561 152.004 9.1814 151.825C8.91862 151.646 8.7162 151.387 8.57416 151.048C8.43353 150.708 8.36393 150.3 8.36535 149.822C8.36535 149.347 8.43566 148.941 8.57629 148.606C8.71833 148.271 8.92075 148.016 9.18353 147.841C9.44774 147.665 9.76237 147.577 10.1274 147.577C10.4925 147.577 10.8064 147.665 11.0692 147.841C11.3334 148.017 11.5365 148.273 11.6786 148.608C11.8206 148.942 11.8909 149.347 11.8895 149.822C11.8895 150.301 11.8185 150.71 11.6764 151.05C11.5358 151.389 11.3341 151.648 11.0713 151.827C10.8085 152.006 10.4939 152.096 10.1274 152.096ZM10.1274 151.331C10.3774 151.331 10.577 151.205 10.7261 150.954C10.8753 150.702 10.9492 150.325 10.9477 149.822C10.9477 149.491 10.9136 149.216 10.8455 148.996C10.7787 148.776 10.6835 148.61 10.56 148.499C10.4378 148.388 10.2936 148.333 10.1274 148.333C9.87885 148.333 9.67998 148.457 9.53083 148.706C9.38169 148.955 9.3064 149.327 9.30498 149.822C9.30498 150.158 9.33836 150.438 9.40512 150.662C9.47331 150.885 9.56919 151.053 9.69277 151.165C9.81635 151.276 9.96123 151.331 10.1274 151.331ZM4.20008 160.636V165H3.2775V161.512H3.25193L2.25264 162.138V161.32L3.33289 160.636H4.20008ZM4.93719 165V164.335L6.49046 162.897C6.62256 162.769 6.73336 162.654 6.82284 162.552C6.91375 162.45 6.98265 162.349 7.02952 162.251C7.0764 162.152 7.09983 162.045 7.09983 161.93C7.09983 161.802 7.07071 161.692 7.01248 161.599C6.95424 161.506 6.87469 161.434 6.77384 161.384C6.67299 161.333 6.55864 161.308 6.4308 161.308C6.29728 161.308 6.1808 161.335 6.08137 161.388C5.98194 161.442 5.90523 161.52 5.85125 161.621C5.79728 161.722 5.77029 161.842 5.77029 161.981H4.89458C4.89458 161.695 4.95921 161.447 5.08847 161.237C5.21773 161.027 5.39884 160.864 5.63179 160.749C5.86475 160.634 6.13321 160.577 6.43719 160.577C6.74969 160.577 7.02171 160.632 7.25324 160.743C7.4862 160.852 7.6673 161.004 7.79657 161.199C7.92583 161.393 7.99046 161.616 7.99046 161.868C7.99046 162.033 7.95779 162.195 7.89245 162.356C7.82853 162.516 7.71418 162.695 7.54941 162.891C7.38463 163.085 7.15239 163.319 6.85267 163.592L6.2156 164.216V164.246H8.04799V165H4.93719ZM10.1274 165.096C9.76095 165.094 9.44561 165.004 9.1814 164.825C8.91862 164.646 8.7162 164.387 8.57416 164.048C8.43353 163.708 8.36393 163.3 8.36535 162.822C8.36535 162.347 8.43566 161.941 8.57629 161.606C8.71833 161.271 8.92075 161.016 9.18353 160.841C9.44774 160.665 9.76237 160.577 10.1274 160.577C10.4925 160.577 10.8064 160.665 11.0692 160.841C11.3334 161.017 11.5365 161.273 11.6786 161.608C11.8206 161.942 11.8909 162.347 11.8895 162.822C11.8895 163.301 11.8185 163.71 11.6764 164.05C11.5358 164.389 11.3341 164.648 11.0713 164.827C10.8085 165.006 10.4939 165.096 10.1274 165.096ZM10.1274 164.331C10.3774 164.331 10.577 164.205 10.7261 163.954C10.8753 163.702 10.9492 163.325 10.9477 162.822C10.9477 162.491 10.9136 162.216 10.8455 161.996C10.7787 161.776 10.6835 161.61 10.56 161.499C10.4378 161.388 10.2936 161.333 10.1274 161.333C9.87885 161.333 9.67998 161.457 9.53083 161.706C9.38169 161.955 9.3064 162.327 9.30498 162.822C9.30498 163.158 9.33836 163.438 9.40512 163.662C9.47331 163.885 9.56919 164.053 9.69277 164.165C9.81635 164.276 9.96123 164.331 10.1274 164.331ZM5.04383 173.636V178H4.12125V174.512H4.09568L3.09639 175.138V174.32L4.17664 173.636H5.04383ZM7.67938 173.636V178H6.75679V174.512H6.73123L5.73194 175.138V174.32L6.81219 173.636H7.67938ZM10.1274 178.096C9.76095 178.094 9.44561 178.004 9.1814 177.825C8.91862 177.646 8.7162 177.387 8.57416 177.048C8.43353 176.708 8.36393 176.3 8.36535 175.822C8.36535 175.347 8.43566 174.941 8.57629 174.606C8.71833 174.271 8.92075 174.016 9.18353 173.841C9.44774 173.665 9.76237 173.577 10.1274 173.577C10.4925 173.577 10.8064 173.665 11.0692 173.841C11.3334 174.017 11.5365 174.273 11.6786 174.608C11.8206 174.942 11.8909 175.347 11.8895 175.822C11.8895 176.301 11.8185 176.71 11.6764 177.05C11.5358 177.389 11.3341 177.648 11.0713 177.827C10.8085 178.006 10.4939 178.096 10.1274 178.096ZM10.1274 177.331C10.3774 177.331 10.577 177.205 10.7261 176.954C10.8753 176.702 10.9492 176.325 10.9477 175.822C10.9477 175.491 10.9136 175.216 10.8455 174.996C10.7787 174.776 10.6835 174.61 10.56 174.499C10.4378 174.388 10.2936 174.333 10.1274 174.333C9.87885 174.333 9.67998 174.457 9.53083 174.706C9.38169 174.955 9.3064 175.327 9.30498 175.822C9.30498 176.158 9.33836 176.438 9.40512 176.662C9.47331 176.885 9.56919 177.053 9.69277 177.165C9.81635 177.276 9.96123 177.331 10.1274 177.331ZM3.84852 186.636V191H2.92593V187.512H2.90037L1.90108 188.138V187.32L2.98133 186.636H3.84852ZM6.29657 191.096C5.93009 191.094 5.61475 191.004 5.35054 190.825C5.08776 190.646 4.88534 190.387 4.7433 190.048C4.60267 189.708 4.53307 189.3 4.53449 188.822C4.53449 188.347 4.6048 187.941 4.74543 187.606C4.88748 187.271 5.08989 187.016 5.35267 186.841C5.61688 186.665 5.93151 186.577 6.29657 186.577C6.66162 186.577 6.97554 186.665 7.23833 186.841C7.50253 187.017 7.70566 187.273 7.8477 187.608C7.98975 187.942 8.06006 188.347 8.05864 188.822C8.05864 189.301 7.98762 189.71 7.84557 190.05C7.70495 190.389 7.50324 190.648 7.24046 190.827C6.97767 191.006 6.66304 191.096 6.29657 191.096ZM6.29657 190.331C6.54657 190.331 6.74614 190.205 6.89529 189.954C7.04444 189.702 7.1183 189.325 7.11688 188.822C7.11688 188.491 7.08279 188.216 7.01461 187.996C6.94784 187.776 6.85267 187.61 6.72909 187.499C6.60694 187.388 6.46276 187.333 6.29657 187.333C6.04799 187.333 5.84912 187.457 5.69998 187.706C5.55083 187.955 5.47554 188.327 5.47412 188.822C5.47412 189.158 5.5075 189.438 5.57427 189.662C5.64245 189.885 5.73833 190.053 5.86191 190.165C5.98549 190.276 6.13037 190.331 6.29657 190.331ZM10.1274 191.096C9.76095 191.094 9.44561 191.004 9.1814 190.825C8.91862 190.646 8.7162 190.387 8.57416 190.048C8.43353 189.708 8.36393 189.3 8.36535 188.822C8.36535 188.347 8.43566 187.941 8.57629 187.606C8.71833 187.271 8.92075 187.016 9.18353 186.841C9.44774 186.665 9.76237 186.577 10.1274 186.577C10.4925 186.577 10.8064 186.665 11.0692 186.841C11.3334 187.017 11.5365 187.273 11.6786 187.608C11.8206 187.942 11.8909 188.347 11.8895 188.822C11.8895 189.301 11.8185 189.71 11.6764 190.05C11.5358 190.389 11.3341 190.648 11.0713 190.827C10.8085 191.006 10.4939 191.096 10.1274 191.096ZM10.1274 190.331C10.3774 190.331 10.577 190.205 10.7261 189.954C10.8753 189.702 10.9492 189.325 10.9477 188.822C10.9477 188.491 10.9136 188.216 10.8455 187.996C10.7787 187.776 10.6835 187.61 10.56 187.499C10.4378 187.388 10.2936 187.333 10.1274 187.333C9.87885 187.333 9.67998 187.457 9.53083 187.706C9.38169 187.955 9.3064 188.327 9.30498 188.822C9.30498 189.158 9.33836 189.438 9.40512 189.662C9.47331 189.885 9.56919 190.053 9.69277 190.165C9.81635 190.276 9.96123 190.331 10.1274 190.331ZM6.33439 199.577C6.55882 199.577 6.77473 199.614 6.98211 199.69C7.19092 199.765 7.377 199.885 7.54035 200.05C7.70512 200.214 7.8351 200.433 7.93027 200.706C8.02686 200.977 8.07586 201.31 8.07728 201.705C8.07728 202.076 8.03538 202.407 7.95157 202.698C7.86919 202.988 7.75058 203.234 7.59575 203.438C7.44092 203.641 7.25413 203.795 7.03538 203.902C6.81663 204.007 6.57231 204.06 6.30243 204.06C6.01123 204.06 5.75413 204.004 5.53112 203.891C5.30811 203.778 5.12842 203.624 4.99206 203.429C4.85711 203.233 4.77544 203.013 4.74703 202.768H5.65683C5.69234 202.928 5.76691 203.051 5.88055 203.139C5.99419 203.226 6.13481 203.269 6.30243 203.269C6.58652 203.269 6.80243 203.146 6.95015 202.898C7.09788 202.65 7.17245 202.31 7.17387 201.878H7.14404C7.0787 202.006 6.99064 202.116 6.87984 202.208C6.76904 202.299 6.64191 202.369 6.49845 202.419C6.3564 202.469 6.20512 202.494 6.04461 202.494C5.78751 202.494 5.55811 202.433 5.3564 202.312C5.1547 202.192 4.99561 202.026 4.87913 201.814C4.76265 201.602 4.70441 201.361 4.70441 201.089C4.70299 200.797 4.77047 200.536 4.90683 200.308C5.04319 200.079 5.23353 199.9 5.47785 199.771C5.72359 199.64 6.0091 199.575 6.33439 199.577ZM6.34078 200.301C6.19731 200.301 6.06947 200.335 5.95726 200.403C5.84646 200.472 5.75839 200.563 5.69305 200.678C5.62913 200.793 5.59788 200.922 5.5993 201.064C5.5993 201.207 5.63055 201.337 5.69305 201.452C5.75697 201.565 5.84362 201.656 5.95299 201.724C6.06379 201.791 6.19021 201.825 6.33226 201.825C6.43879 201.825 6.53751 201.805 6.62842 201.765C6.71933 201.725 6.79816 201.67 6.86493 201.601C6.93311 201.53 6.98637 201.448 7.02473 201.356C7.06308 201.263 7.08226 201.165 7.08226 201.062C7.08083 200.924 7.04816 200.798 6.98424 200.683C6.92032 200.567 6.83226 200.475 6.72004 200.406C6.60782 200.336 6.4814 200.301 6.34078 200.301ZM10.1274 204.096C9.76095 204.094 9.44561 204.004 9.1814 203.825C8.91862 203.646 8.7162 203.387 8.57416 203.048C8.43353 202.708 8.36393 202.3 8.36535 201.822C8.36535 201.347 8.43566 200.941 8.57629 200.606C8.71833 200.271 8.92075 200.016 9.18353 199.841C9.44774 199.665 9.76237 199.577 10.1274 199.577C10.4925 199.577 10.8064 199.665 11.0692 199.841C11.3334 200.017 11.5365 200.273 11.6786 200.608C11.8206 200.942 11.8909 201.347 11.8895 201.822C11.8895 202.301 11.8185 202.71 11.6764 203.05C11.5358 203.389 11.3341 203.648 11.0713 203.827C10.8085 204.006 10.4939 204.096 10.1274 204.096ZM10.1274 203.331C10.3774 203.331 10.577 203.205 10.7261 202.954C10.8753 202.702 10.9492 202.325 10.9477 201.822C10.9477 201.491 10.9136 201.216 10.8455 200.996C10.7787 200.776 10.6835 200.61 10.56 200.499C10.4378 200.388 10.2936 200.333 10.1274 200.333C9.87885 200.333 9.67998 200.457 9.53083 200.706C9.38169 200.955 9.3064 201.327 9.30498 201.822C9.30498 202.158 9.33836 202.438 9.40512 202.662C9.47331 202.885 9.56919 203.053 9.69277 203.165C9.81635 203.276 9.96123 203.331 10.1274 203.331ZM6.37753 217.06C6.04941 217.06 5.7575 217.006 5.50182 216.9C5.24756 216.792 5.04799 216.645 4.9031 216.459C4.75821 216.273 4.68577 216.062 4.68577 215.826C4.68577 215.644 4.72696 215.477 4.80935 215.325C4.89316 215.172 5.00679 215.045 5.15026 214.944C5.29373 214.842 5.45424 214.776 5.63179 214.748V214.718C5.39884 214.671 5.20992 214.558 5.06503 214.379C4.92015 214.199 4.8477 213.989 4.8477 213.751C4.8477 213.525 4.91375 213.324 5.04586 213.148C5.17796 212.97 5.35907 212.831 5.58918 212.73C5.82071 212.628 6.0835 212.577 6.37753 212.577C6.67157 212.577 6.93364 212.628 7.16375 212.73C7.39529 212.832 7.57711 212.972 7.70921 213.15C7.84131 213.326 7.90807 213.526 7.90949 213.751C7.90807 213.991 7.83421 214.2 7.6879 214.379C7.54159 214.558 7.35409 214.671 7.1254 214.718V214.748C7.30012 214.776 7.4585 214.842 7.60054 214.944C7.74401 215.045 7.85765 215.172 7.94145 215.325C8.02668 215.477 8.07 215.644 8.07142 215.826C8.07 216.062 7.99685 216.273 7.85196 216.459C7.70708 216.645 7.50679 216.792 7.25111 216.9C6.99685 217.006 6.70566 217.06 6.37753 217.06ZM6.37753 216.382C6.52384 216.382 6.65168 216.356 6.76105 216.303C6.87043 216.249 6.95566 216.175 7.01674 216.082C7.07924 215.987 7.11049 215.877 7.11049 215.754C7.11049 215.627 7.07853 215.516 7.01461 215.419C6.95069 215.321 6.86404 215.244 6.75466 215.189C6.64529 215.132 6.51958 215.104 6.37753 215.104C6.23691 215.104 6.1112 215.132 6.0004 215.189C5.88961 215.244 5.80225 215.321 5.73833 215.419C5.67583 215.516 5.64458 215.627 5.64458 215.754C5.64458 215.877 5.67512 215.987 5.7362 216.082C5.79728 216.175 5.88321 216.249 5.99401 216.303C6.1048 216.356 6.23265 216.382 6.37753 216.382ZM6.37753 214.433C6.49969 214.433 6.60836 214.408 6.70353 214.358C6.7987 214.308 6.87327 214.239 6.92725 214.151C6.98123 214.063 7.00821 213.962 7.00821 213.847C7.00821 213.733 6.98123 213.634 6.92725 213.548C6.87327 213.462 6.79941 213.394 6.70566 213.346C6.61191 213.296 6.50253 213.271 6.37753 213.271C6.25395 213.271 6.14458 213.296 6.04941 213.346C5.95424 213.394 5.87966 213.462 5.82569 213.548C5.77313 213.634 5.74685 213.733 5.74685 213.847C5.74685 213.962 5.77384 214.063 5.82782 214.151C5.88179 214.239 5.95637 214.308 6.05154 214.358C6.14671 214.408 6.25537 214.433 6.37753 214.433ZM10.1274 217.096C9.76095 217.094 9.44561 217.004 9.1814 216.825C8.91862 216.646 8.7162 216.387 8.57416 216.048C8.43353 215.708 8.36393 215.3 8.36535 214.822C8.36535 214.347 8.43566 213.941 8.57629 213.606C8.71833 213.271 8.92075 213.016 9.18353 212.841C9.44774 212.665 9.76237 212.577 10.1274 212.577C10.4925 212.577 10.8064 212.665 11.0692 212.841C11.3334 213.017 11.5365 213.273 11.6786 213.608C11.8206 213.942 11.8909 214.347 11.8895 214.822C11.8895 215.301 11.8185 215.71 11.6764 216.05C11.5358 216.389 11.3341 216.648 11.0713 216.827C10.8085 217.006 10.4939 217.096 10.1274 217.096ZM10.1274 216.331C10.3774 216.331 10.577 216.205 10.7261 215.954C10.8753 215.702 10.9492 215.325 10.9477 214.822C10.9477 214.491 10.9136 214.216 10.8455 213.996C10.7787 213.776 10.6835 213.61 10.56 213.499C10.4378 213.388 10.2936 213.333 10.1274 213.333C9.87885 213.333 9.67998 213.457 9.53083 213.706C9.38169 213.955 9.3064 214.327 9.30498 214.822C9.30498 215.158 9.33836 215.438 9.40512 215.662C9.47331 215.885 9.56919 216.053 9.69277 216.165C9.81635 216.276 9.96123 216.331 10.1274 216.331ZM5.41446 230L7.22341 226.42V226.391H5.11617V225.636H8.17796V226.401L6.36688 230H5.41446ZM10.1274 230.096C9.76095 230.094 9.44561 230.004 9.1814 229.825C8.91862 229.646 8.7162 229.387 8.57416 229.048C8.43353 228.708 8.36393 228.3 8.36535 227.822C8.36535 227.347 8.43566 226.941 8.57629 226.606C8.71833 226.271 8.92075 226.016 9.18353 225.841C9.44774 225.665 9.76237 225.577 10.1274 225.577C10.4925 225.577 10.8064 225.665 11.0692 225.841C11.3334 226.017 11.5365 226.273 11.6786 226.608C11.8206 226.942 11.8909 227.347 11.8895 227.822C11.8895 228.301 11.8185 228.71 11.6764 229.05C11.5358 229.389 11.3341 229.648 11.0713 229.827C10.8085 230.006 10.4939 230.096 10.1274 230.096ZM10.1274 229.331C10.3774 229.331 10.577 229.205 10.7261 228.954C10.8753 228.702 10.9492 228.325 10.9477 227.822C10.9477 227.491 10.9136 227.216 10.8455 226.996C10.7787 226.776 10.6835 226.61 10.56 226.499C10.4378 226.388 10.2936 226.333 10.1274 226.333C9.87885 226.333 9.67998 226.457 9.53083 226.706C9.38169 226.955 9.3064 227.327 9.30498 227.822C9.30498 228.158 9.33836 228.438 9.40512 228.662C9.47331 228.885 9.56919 229.053 9.69277 229.165C9.81635 229.276 9.96123 229.331 10.1274 229.331ZM6.43027 243.06C6.20583 243.058 5.98922 243.021 5.78041 242.947C5.57302 242.873 5.38694 242.753 5.22217 242.587C5.0574 242.42 4.92672 242.2 4.83012 241.926C4.73495 241.652 4.68737 241.315 4.68737 240.916C4.68879 240.55 4.73069 240.222 4.81308 239.934C4.89689 239.644 5.0162 239.398 5.17103 239.197C5.32728 238.995 5.51407 238.842 5.7314 238.737C5.94873 238.63 6.19234 238.577 6.46223 238.577C6.75342 238.577 7.01052 238.634 7.23353 238.747C7.45654 238.859 7.63552 239.012 7.77047 239.205C7.90683 239.398 7.98922 239.615 8.01762 239.855H7.10782C7.07231 239.703 6.99774 239.584 6.8841 239.497C6.77047 239.411 6.62984 239.367 6.46223 239.367C6.17814 239.367 5.96223 239.491 5.8145 239.738C5.66819 239.985 5.59362 240.321 5.59078 240.746H5.62061C5.68595 240.616 5.77402 240.506 5.88481 240.415C5.99703 240.323 6.12416 240.253 6.2662 240.205C6.40967 240.155 6.56095 240.13 6.72004 240.13C6.97856 240.13 7.20868 240.191 7.41038 240.313C7.61208 240.434 7.77118 240.6 7.88765 240.812C8.00413 241.023 8.06237 241.266 8.06237 241.538C8.06237 241.834 7.99348 242.097 7.85569 242.327C7.71933 242.557 7.52828 242.737 7.28254 242.868C7.03822 242.997 6.75413 243.061 6.43027 243.06ZM6.42601 242.335C6.56805 242.335 6.69518 242.301 6.8074 242.233C6.91961 242.165 7.00768 242.072 7.0716 241.956C7.13552 241.839 7.16748 241.709 7.16748 241.564C7.16748 241.419 7.13552 241.289 7.0716 241.174C7.0091 241.059 6.92245 240.967 6.81166 240.899C6.70086 240.831 6.57444 240.797 6.4324 240.797C6.32586 240.797 6.22714 240.817 6.13623 240.857C6.04674 240.896 5.96791 240.952 5.89973 241.023C5.83297 241.094 5.78041 241.176 5.74206 241.27C5.7037 241.362 5.68453 241.461 5.68453 241.566C5.68453 241.707 5.71649 241.835 5.78041 241.952C5.84575 242.068 5.93382 242.161 6.04461 242.231C6.15683 242.3 6.28396 242.335 6.42601 242.335ZM10.1274 243.096C9.76095 243.094 9.44561 243.004 9.1814 242.825C8.91862 242.646 8.7162 242.387 8.57416 242.048C8.43353 241.708 8.36393 241.3 8.36535 240.822C8.36535 240.347 8.43566 239.941 8.57629 239.606C8.71833 239.271 8.92075 239.016 9.18353 238.841C9.44774 238.665 9.76237 238.577 10.1274 238.577C10.4925 238.577 10.8064 238.665 11.0692 238.841C11.3334 239.017 11.5365 239.273 11.6786 239.608C11.8206 239.942 11.8909 240.347 11.8895 240.822C11.8895 241.301 11.8185 241.71 11.6764 242.05C11.5358 242.389 11.3341 242.648 11.0713 242.827C10.8085 243.006 10.4939 243.096 10.1274 243.096ZM10.1274 242.331C10.3774 242.331 10.577 242.205 10.7261 241.954C10.8753 241.702 10.9492 241.325 10.9477 240.822C10.9477 240.491 10.9136 240.216 10.8455 239.996C10.7787 239.776 10.6835 239.61 10.56 239.499C10.4378 239.388 10.2936 239.333 10.1274 239.333C9.87885 239.333 9.67998 239.457 9.53083 239.706C9.38169 239.955 9.3064 240.327 9.30498 240.822C9.30498 241.158 9.33836 241.438 9.40512 241.662C9.47331 241.885 9.56919 242.053 9.69277 242.165C9.81635 242.276 9.96123 242.331 10.1274 242.331ZM6.44305 256.06C6.14191 256.06 5.87345 256.004 5.63765 255.893C5.40328 255.783 5.2172 255.63 5.07941 255.435C4.94163 255.241 4.8699 255.018 4.86422 254.766H5.7591C5.76904 254.935 5.84007 255.072 5.97217 255.178C6.10427 255.283 6.26123 255.335 6.44305 255.335C6.58794 255.335 6.71578 255.303 6.82657 255.239C6.93879 255.174 7.02615 255.084 7.08865 254.969C7.15257 254.852 7.18453 254.719 7.18453 254.568C7.18453 254.415 7.15186 254.28 7.08652 254.163C7.0226 254.047 6.93382 253.956 6.82018 253.891C6.70654 253.825 6.57657 253.792 6.43027 253.79C6.30243 253.79 6.17814 253.817 6.0574 253.869C5.93808 253.922 5.84504 253.994 5.77828 254.085L4.95797 253.938L5.16464 251.636H7.83226V252.391H5.92529L5.81237 253.484H5.83794C5.91464 253.376 6.03041 253.286 6.18524 253.215C6.34007 253.144 6.51336 253.109 6.70512 253.109C6.96791 253.109 7.20228 253.17 7.40825 253.294C7.61422 253.418 7.77686 253.587 7.89618 253.803C8.01549 254.018 8.07444 254.265 8.07302 254.545C8.07444 254.839 8.00626 255.1 7.86848 255.329C7.73211 255.556 7.54106 255.735 7.29532 255.866C7.05101 255.995 6.76691 256.06 6.44305 256.06ZM10.1274 256.096C9.76095 256.094 9.44561 256.004 9.1814 255.825C8.91862 255.646 8.7162 255.387 8.57416 255.048C8.43353 254.708 8.36393 254.3 8.36535 253.822C8.36535 253.347 8.43566 252.941 8.57629 252.606C8.71833 252.271 8.92075 252.016 9.18353 251.841C9.44774 251.665 9.76237 251.577 10.1274 251.577C10.4925 251.577 10.8064 251.665 11.0692 251.841C11.3334 252.017 11.5365 252.273 11.6786 252.608C11.8206 252.942 11.8909 253.347 11.8895 253.822C11.8895 254.301 11.8185 254.71 11.6764 255.05C11.5358 255.389 11.3341 255.648 11.0713 255.827C10.8085 256.006 10.4939 256.096 10.1274 256.096ZM10.1274 255.331C10.3774 255.331 10.577 255.205 10.7261 254.954C10.8753 254.702 10.9492 254.325 10.9477 253.822C10.9477 253.491 10.9136 253.216 10.8455 252.996C10.7787 252.776 10.6835 252.61 10.56 252.499C10.4378 252.388 10.2936 252.333 10.1274 252.333C9.87885 252.333 9.67998 252.457 9.53083 252.706C9.38169 252.955 9.3064 253.327 9.30498 253.822C9.30498 254.158 9.33836 254.438 9.40512 254.662C9.47331 254.885 9.56919 255.053 9.69277 255.165C9.81635 255.276 9.96123 255.331 10.1274 255.331ZM4.58403 268.233V267.506L6.40576 264.636H7.03218V265.642H6.66145L5.51301 267.46V267.494H8.10179V268.233H4.58403ZM6.67849 269V268.011L6.69554 267.69V264.636H7.56059V269H6.67849ZM10.1274 269.096C9.76095 269.094 9.44561 269.004 9.1814 268.825C8.91862 268.646 8.7162 268.387 8.57416 268.048C8.43353 267.708 8.36393 267.3 8.36535 266.822C8.36535 266.347 8.43566 265.941 8.57629 265.606C8.71833 265.271 8.92075 265.016 9.18353 264.841C9.44774 264.665 9.76237 264.577 10.1274 264.577C10.4925 264.577 10.8064 264.665 11.0692 264.841C11.3334 265.017 11.5365 265.273 11.6786 265.608C11.8206 265.942 11.8909 266.347 11.8895 266.822C11.8895 267.301 11.8185 267.71 11.6764 268.05C11.5358 268.389 11.3341 268.648 11.0713 268.827C10.8085 269.006 10.4939 269.096 10.1274 269.096ZM10.1274 268.331C10.3774 268.331 10.577 268.205 10.7261 267.954C10.8753 267.702 10.9492 267.325 10.9477 266.822C10.9477 266.491 10.9136 266.216 10.8455 265.996C10.7787 265.776 10.6835 265.61 10.56 265.499C10.4378 265.388 10.2936 265.333 10.1274 265.333C9.87885 265.333 9.67998 265.457 9.53083 265.706C9.38169 265.955 9.3064 266.327 9.30498 266.822C9.30498 267.158 9.33836 267.438 9.40512 267.662C9.47331 267.885 9.56919 268.053 9.69277 268.165C9.81635 268.276 9.96123 268.331 10.1274 268.331ZM6.37434 282.06C6.05615 282.06 5.77277 282.005 5.52419 281.896C5.27703 281.785 5.08172 281.633 4.93826 281.44C4.79621 281.245 4.72306 281.021 4.7188 280.766H5.64777C5.65346 280.873 5.68826 280.967 5.75218 281.048C5.81752 281.127 5.90417 281.189 6.01212 281.233C6.12007 281.277 6.24152 281.299 6.37647 281.299C6.51709 281.299 6.64138 281.274 6.74934 281.224C6.85729 281.175 6.94181 281.106 7.00289 281.018C7.06397 280.93 7.09451 280.828 7.09451 280.713C7.09451 280.597 7.06184 280.494 6.9965 280.404C6.93257 280.313 6.84025 280.242 6.71951 280.191C6.60019 280.14 6.45814 280.114 6.29337 280.114H5.88641V279.437H6.29337C6.43257 279.437 6.55544 279.413 6.66198 279.364C6.76993 279.316 6.85374 279.249 6.9134 279.164C6.97306 279.077 7.00289 278.977 7.00289 278.862C7.00289 278.752 6.97661 278.656 6.92405 278.574C6.87292 278.49 6.80047 278.425 6.70672 278.378C6.61439 278.331 6.50644 278.308 6.38286 278.308C6.25786 278.308 6.14351 278.33 6.03982 278.376C5.93613 278.42 5.85303 278.483 5.79053 278.565C5.72803 278.648 5.69465 278.744 5.69039 278.855H4.80615C4.81042 278.604 4.88215 278.382 5.02135 278.19C5.16056 277.999 5.34806 277.849 5.58385 277.741C5.82107 277.631 6.08882 277.577 6.38712 277.577C6.68826 277.577 6.95175 277.631 7.1776 277.741C7.40346 277.85 7.57888 277.998 7.70388 278.184C7.8303 278.369 7.8928 278.576 7.89138 278.806C7.8928 279.05 7.81681 279.254 7.6634 279.418C7.51141 279.581 7.31326 279.685 7.06894 279.729V279.763C7.38996 279.804 7.63428 279.915 7.80189 280.097C7.97093 280.278 8.05473 280.504 8.05331 280.775C8.05473 281.023 7.983 281.244 7.83811 281.438C7.69465 281.631 7.4965 281.783 7.24365 281.893C6.99081 282.004 6.70104 282.06 6.37434 282.06ZM10.1274 282.096C9.76095 282.094 9.44561 282.004 9.1814 281.825C8.91862 281.646 8.7162 281.387 8.57416 281.048C8.43353 280.708 8.36393 280.3 8.36535 279.822C8.36535 279.347 8.43566 278.941 8.57629 278.606C8.71833 278.271 8.92075 278.016 9.18353 277.841C9.44774 277.665 9.76237 277.577 10.1274 277.577C10.4925 277.577 10.8064 277.665 11.0692 277.841C11.3334 278.017 11.5365 278.273 11.6786 278.608C11.8206 278.942 11.8909 279.347 11.8895 279.822C11.8895 280.301 11.8185 280.71 11.6764 281.05C11.5358 281.389 11.3341 281.648 11.0713 281.827C10.8085 282.006 10.4939 282.096 10.1274 282.096ZM10.1274 281.331C10.3774 281.331 10.577 281.205 10.7261 280.954C10.8753 280.702 10.9492 280.325 10.9477 279.822C10.9477 279.491 10.9136 279.216 10.8455 278.996C10.7787 278.776 10.6835 278.61 10.56 278.499C10.4378 278.388 10.2936 278.333 10.1274 278.333C9.87885 278.333 9.67998 278.457 9.53083 278.706C9.38169 278.955 9.3064 279.327 9.30498 279.822C9.30498 280.158 9.33836 280.438 9.40512 280.662C9.47331 280.885 9.56919 281.053 9.69277 281.165C9.81635 281.276 9.96123 281.331 10.1274 281.331ZM4.93719 295V294.335L6.49046 292.897C6.62256 292.769 6.73336 292.654 6.82284 292.552C6.91375 292.45 6.98265 292.349 7.02952 292.251C7.0764 292.152 7.09983 292.045 7.09983 291.93C7.09983 291.802 7.07071 291.692 7.01248 291.599C6.95424 291.506 6.87469 291.434 6.77384 291.384C6.67299 291.333 6.55864 291.308 6.4308 291.308C6.29728 291.308 6.1808 291.335 6.08137 291.388C5.98194 291.442 5.90523 291.52 5.85125 291.621C5.79728 291.722 5.77029 291.842 5.77029 291.981H4.89458C4.89458 291.695 4.95921 291.447 5.08847 291.237C5.21773 291.027 5.39884 290.864 5.63179 290.749C5.86475 290.634 6.13321 290.577 6.43719 290.577C6.74969 290.577 7.02171 290.632 7.25324 290.743C7.4862 290.852 7.6673 291.004 7.79657 291.199C7.92583 291.393 7.99046 291.616 7.99046 291.868C7.99046 292.033 7.95779 292.195 7.89245 292.356C7.82853 292.516 7.71418 292.695 7.54941 292.891C7.38463 293.085 7.15239 293.319 6.85267 293.592L6.2156 294.216V294.246H8.04799V295H4.93719ZM10.1274 295.096C9.76095 295.094 9.44561 295.004 9.1814 294.825C8.91862 294.646 8.7162 294.387 8.57416 294.048C8.43353 293.708 8.36393 293.3 8.36535 292.822C8.36535 292.347 8.43566 291.941 8.57629 291.606C8.71833 291.271 8.92075 291.016 9.18353 290.841C9.44774 290.665 9.76237 290.577 10.1274 290.577C10.4925 290.577 10.8064 290.665 11.0692 290.841C11.3334 291.017 11.5365 291.273 11.6786 291.608C11.8206 291.942 11.8909 292.347 11.8895 292.822C11.8895 293.301 11.8185 293.71 11.6764 294.05C11.5358 294.389 11.3341 294.648 11.0713 294.827C10.8085 295.006 10.4939 295.096 10.1274 295.096ZM10.1274 294.331C10.3774 294.331 10.577 294.205 10.7261 293.954C10.8753 293.702 10.9492 293.325 10.9477 292.822C10.9477 292.491 10.9136 292.216 10.8455 291.996C10.7787 291.776 10.6835 291.61 10.56 291.499C10.4378 291.388 10.2936 291.333 10.1274 291.333C9.87885 291.333 9.67998 291.457 9.53083 291.706C9.38169 291.955 9.3064 292.327 9.30498 292.822C9.30498 293.158 9.33836 293.438 9.40512 293.662C9.47331 293.885 9.56919 294.053 9.69277 294.165C9.81635 294.276 9.96123 294.331 10.1274 294.331ZM7.67938 303.636V308H6.75679V304.512H6.73123L5.73194 305.138V304.32L6.81219 303.636H7.67938ZM10.1274 308.096C9.76095 308.094 9.44561 308.004 9.1814 307.825C8.91862 307.646 8.7162 307.387 8.57416 307.048C8.43353 306.708 8.36393 306.3 8.36535 305.822C8.36535 305.347 8.43566 304.941 8.57629 304.606C8.71833 304.271 8.92075 304.016 9.18353 303.841C9.44774 303.665 9.76237 303.577 10.1274 303.577C10.4925 303.577 10.8064 303.665 11.0692 303.841C11.3334 304.017 11.5365 304.273 11.6786 304.608C11.8206 304.942 11.8909 305.347 11.8895 305.822C11.8895 306.301 11.8185 306.71 11.6764 307.05C11.5358 307.389 11.3341 307.648 11.0713 307.827C10.8085 308.006 10.4939 308.096 10.1274 308.096ZM10.1274 307.331C10.3774 307.331 10.577 307.205 10.7261 306.954C10.8753 306.702 10.9492 306.325 10.9477 305.822C10.9477 305.491 10.9136 305.216 10.8455 304.996C10.7787 304.776 10.6835 304.61 10.56 304.499C10.4378 304.388 10.2936 304.333 10.1274 304.333C9.87885 304.333 9.67998 304.457 9.53083 304.706C9.38169 304.955 9.3064 305.327 9.30498 305.822C9.30498 306.158 9.33836 306.438 9.40512 306.662C9.47331 306.885 9.56919 307.053 9.69277 307.165C9.81635 307.276 9.96123 307.331 10.1274 307.331ZM10.1274 321.096C9.76095 321.094 9.44561 321.004 9.1814 320.825C8.91862 320.646 8.7162 320.387 8.57416 320.048C8.43353 319.708 8.36393 319.3 8.36535 318.822C8.36535 318.347 8.43566 317.941 8.57629 317.606C8.71833 317.271 8.92075 317.016 9.18353 316.841C9.44774 316.665 9.76237 316.577 10.1274 316.577C10.4925 316.577 10.8064 316.665 11.0692 316.841C11.3334 317.017 11.5365 317.273 11.6786 317.608C11.8206 317.942 11.8909 318.347 11.8895 318.822C11.8895 319.301 11.8185 319.71 11.6764 320.05C11.5358 320.389 11.3341 320.648 11.0713 320.827C10.8085 321.006 10.4939 321.096 10.1274 321.096ZM10.1274 320.331C10.3774 320.331 10.577 320.205 10.7261 319.954C10.8753 319.702 10.9492 319.325 10.9477 318.822C10.9477 318.491 10.9136 318.216 10.8455 317.996C10.7787 317.776 10.6835 317.61 10.56 317.499C10.4378 317.388 10.2936 317.333 10.1274 317.333C9.87885 317.333 9.67998 317.457 9.53083 317.706C9.38169 317.955 9.3064 318.327 9.30498 318.822C9.30498 319.158 9.33836 319.438 9.40512 319.662C9.47331 319.885 9.56919 320.053 9.69277 320.165C9.81635 320.276 9.96123 320.331 10.1274 320.331Z" fill="#888888"/>
<path d="M28.5615 322.636V327H27.771V323.406H27.7455L26.7249 324.058V323.333L27.8094 322.636H28.5615ZM29.6129 327.047C29.4836 327.047 29.3728 327.001 29.2805 326.911C29.1882 326.82 29.1427 326.709 29.1442 326.578C29.1427 326.45 29.1882 326.341 29.2805 326.25C29.3728 326.159 29.4836 326.114 29.6129 326.114C29.7379 326.114 29.8466 326.159 29.9389 326.25C30.0326 326.341 30.0802 326.45 30.0817 326.578C30.0802 326.665 30.0575 326.744 30.0135 326.815C29.9709 326.886 29.914 326.942 29.843 326.985C29.7734 327.026 29.6967 327.047 29.6129 327.047ZM32.0125 327.083C31.6616 327.083 31.3605 326.994 31.1091 326.817C30.8591 326.638 30.6666 326.38 30.5317 326.043C30.3981 325.705 30.3314 325.298 30.3314 324.822C30.3328 324.347 30.4003 323.942 30.5338 323.608C30.6687 323.273 30.8612 323.017 31.1112 322.841C31.3626 322.665 31.663 322.577 32.0125 322.577C32.3619 322.577 32.6623 322.665 32.9138 322.841C33.1652 323.017 33.3576 323.273 33.4912 323.608C33.6261 323.943 33.6936 324.348 33.6936 324.822C33.6936 325.3 33.6261 325.707 33.4912 326.045C33.3576 326.382 33.1652 326.639 32.9138 326.817C32.6638 326.994 32.3633 327.083 32.0125 327.083ZM32.0125 326.416C32.2852 326.416 32.5004 326.282 32.6581 326.013C32.8172 325.744 32.8967 325.347 32.8967 324.822C32.8967 324.476 32.8605 324.185 32.788 323.949C32.7156 323.713 32.6133 323.536 32.4812 323.416C32.3491 323.295 32.1929 323.235 32.0125 323.235C31.7412 323.235 31.5267 323.37 31.369 323.64C31.2113 323.908 31.1318 324.303 31.1304 324.822C31.129 325.17 31.1638 325.463 31.2348 325.7C31.3072 325.937 31.4095 326.116 31.5416 326.237C31.6737 326.357 31.8307 326.416 32.0125 326.416Z" fill="#888888"/>
<path d="M93.9993 322.636V327H93.2088V323.406H93.1832L92.1626 324.058V323.333L93.2471 322.636H93.9993ZM95.0506 327.047C94.9214 327.047 94.8106 327.001 94.7183 326.911C94.6259 326.82 94.5805 326.709 94.5819 326.578C94.5805 326.45 94.6259 326.341 94.7183 326.25C94.8106 326.159 94.9214 326.114 95.0506 326.114C95.1756 326.114 95.2843 326.159 95.3766 326.25C95.4704 326.341 95.518 326.45 95.5194 326.578C95.518 326.665 95.4953 326.744 95.4512 326.815C95.4086 326.886 95.3518 326.942 95.2808 326.985C95.2112 327.026 95.1345 327.047 95.0506 327.047ZM97.4715 327.06C97.1874 327.06 96.9332 327.006 96.7087 326.9C96.4843 326.792 96.306 326.644 96.1739 326.457C96.0433 326.269 95.9737 326.055 95.9651 325.813H96.7322C96.7464 325.992 96.8238 326.138 96.9644 326.252C97.1051 326.364 97.2741 326.42 97.4715 326.42C97.6264 326.42 97.7641 326.385 97.8849 326.314C98.0056 326.243 98.1008 326.144 98.1704 326.018C98.24 325.891 98.2741 325.747 98.2727 325.585C98.2741 325.42 98.2393 325.274 98.1683 325.146C98.0972 325.018 97.9999 324.918 97.8764 324.846C97.7528 324.772 97.6107 324.735 97.4502 324.735C97.3195 324.734 97.191 324.758 97.0646 324.808C96.9381 324.857 96.838 324.923 96.7641 325.004L96.0504 324.886L96.2783 322.636H98.8096V323.297H96.9325L96.8068 324.454H96.8323C96.9133 324.359 97.0276 324.28 97.1754 324.217C97.3231 324.153 97.485 324.121 97.6612 324.121C97.9254 324.121 98.1612 324.184 98.3685 324.309C98.5759 324.433 98.7393 324.603 98.8586 324.82C98.9779 325.038 99.0376 325.286 99.0376 325.566C99.0376 325.854 98.9708 326.112 98.8373 326.337C98.7052 326.562 98.5212 326.739 98.2854 326.868C98.0511 326.996 97.7798 327.06 97.4715 327.06Z" fill="#888888"/>
<path d="M159.551 327V326.429L161.066 324.944C161.211 324.798 161.331 324.668 161.428 324.554C161.525 324.44 161.597 324.33 161.645 324.224C161.694 324.117 161.718 324.004 161.718 323.883C161.718 323.745 161.686 323.627 161.624 323.529C161.561 323.43 161.476 323.353 161.366 323.299C161.257 323.245 161.132 323.218 160.993 323.218C160.85 323.218 160.724 323.248 160.616 323.308C160.508 323.366 160.424 323.449 160.365 323.557C160.307 323.665 160.277 323.793 160.277 323.942H159.525C159.525 323.665 159.588 323.425 159.715 323.22C159.841 323.016 160.015 322.857 160.237 322.745C160.46 322.633 160.716 322.577 161.004 322.577C161.297 322.577 161.554 322.631 161.775 322.741C161.997 322.85 162.169 323 162.291 323.19C162.414 323.381 162.476 323.598 162.476 323.842C162.476 324.006 162.445 324.166 162.382 324.324C162.32 324.482 162.21 324.656 162.052 324.848C161.896 325.04 161.677 325.272 161.394 325.545L160.642 326.31V326.339H162.542V327H159.551ZM163.461 327.047C163.332 327.047 163.221 327.001 163.129 326.911C163.036 326.82 162.991 326.709 162.992 326.578C162.991 326.45 163.036 326.341 163.129 326.25C163.221 326.159 163.332 326.114 163.461 326.114C163.586 326.114 163.695 326.159 163.787 326.25C163.881 326.341 163.928 326.45 163.93 326.578C163.928 326.665 163.906 326.744 163.862 326.815C163.819 326.886 163.762 326.942 163.691 326.985C163.622 327.026 163.545 327.047 163.461 327.047ZM165.861 327.083C165.51 327.083 165.209 326.994 164.957 326.817C164.707 326.638 164.515 326.38 164.38 326.043C164.246 325.705 164.18 325.298 164.18 324.822C164.181 324.347 164.248 323.942 164.382 323.608C164.517 323.273 164.709 323.017 164.959 322.841C165.211 322.665 165.511 322.577 165.861 322.577C166.21 322.577 166.51 322.665 166.762 322.841C167.013 323.017 167.206 323.273 167.339 323.608C167.474 323.943 167.542 324.348 167.542 324.822C167.542 325.3 167.474 325.707 167.339 326.045C167.206 326.382 167.013 326.639 166.762 326.817C166.512 326.994 166.211 327.083 165.861 327.083ZM165.861 326.416C166.133 326.416 166.349 326.282 166.506 326.013C166.665 325.744 166.745 325.347 166.745 324.822C166.745 324.476 166.709 324.185 166.636 323.949C166.564 323.713 166.461 323.536 166.329 323.416C166.197 323.295 166.041 323.235 165.861 323.235C165.589 323.235 165.375 323.37 165.217 323.64C165.059 323.908 164.98 324.303 164.979 324.822C164.977 325.17 165.012 325.463 165.083 325.7C165.155 325.937 165.258 326.116 165.39 326.237C165.522 326.357 165.679 326.416 165.861 326.416Z" fill="#888888"/>
<path d="M223.995 327V326.429L225.51 324.944C225.655 324.798 225.775 324.668 225.872 324.554C225.969 324.44 226.041 324.33 226.089 324.224C226.138 324.117 226.162 324.004 226.162 323.883C226.162 323.745 226.131 323.627 226.068 323.529C226.006 323.43 225.92 323.353 225.81 323.299C225.701 323.245 225.577 323.218 225.437 323.218C225.294 323.218 225.168 323.248 225.06 323.308C224.952 323.366 224.868 323.449 224.809 323.557C224.751 323.665 224.721 323.793 224.721 323.942H223.969C223.969 323.665 224.033 323.425 224.159 323.22C224.285 323.016 224.459 322.857 224.681 322.745C224.904 322.633 225.16 322.577 225.448 322.577C225.741 322.577 225.998 322.631 226.219 322.741C226.441 322.85 226.613 323 226.735 323.19C226.859 323.381 226.92 323.598 226.92 323.842C226.92 324.006 226.889 324.166 226.827 324.324C226.764 324.482 226.654 324.656 226.496 324.848C226.34 325.04 226.121 325.272 225.838 325.545L225.086 326.31V326.339H226.986V327H223.995ZM227.905 327.047C227.776 327.047 227.665 327.001 227.573 326.911C227.48 326.82 227.435 326.709 227.436 326.578C227.435 326.45 227.48 326.341 227.573 326.25C227.665 326.159 227.776 326.114 227.905 326.114C228.03 326.114 228.139 326.159 228.231 326.25C228.325 326.341 228.372 326.45 228.374 326.578C228.372 326.665 228.35 326.744 228.306 326.815C228.263 326.886 228.206 326.942 228.135 326.985C228.066 327.026 227.989 327.047 227.905 327.047ZM230.326 327.06C230.042 327.06 229.788 327.006 229.563 326.9C229.339 326.792 229.161 326.644 229.028 326.457C228.898 326.269 228.828 326.055 228.82 325.813H229.587C229.601 325.992 229.678 326.138 229.819 326.252C229.96 326.364 230.129 326.42 230.326 326.42C230.481 326.42 230.619 326.385 230.739 326.314C230.86 326.243 230.955 326.144 231.025 326.018C231.094 325.891 231.129 325.747 231.127 325.585C231.129 325.42 231.094 325.274 231.023 325.146C230.952 325.018 230.854 324.918 230.731 324.846C230.607 324.772 230.465 324.735 230.305 324.735C230.174 324.734 230.045 324.758 229.919 324.808C229.793 324.857 229.692 324.923 229.619 325.004L228.905 324.886L229.133 322.636H231.664V323.297H229.787L229.661 324.454H229.687C229.768 324.359 229.882 324.28 230.03 324.217C230.178 324.153 230.34 324.121 230.516 324.121C230.78 324.121 231.016 324.184 231.223 324.309C231.43 324.433 231.594 324.603 231.713 324.82C231.832 325.038 231.892 325.286 231.892 325.566C231.892 325.854 231.825 326.112 231.692 326.337C231.56 326.562 231.376 326.739 231.14 326.868C230.906 326.996 230.634 327.06 230.326 327.06Z" fill="#888888"/>
<path d="M290.891 327.06C290.584 327.06 290.311 327.007 290.072 326.902C289.835 326.797 289.648 326.651 289.51 326.463C289.372 326.276 289.299 326.059 289.29 325.813H290.092C290.099 325.931 290.138 326.034 290.209 326.122C290.28 326.209 290.374 326.276 290.492 326.325C290.61 326.373 290.742 326.397 290.888 326.397C291.045 326.397 291.183 326.37 291.304 326.316C291.425 326.261 291.519 326.184 291.587 326.086C291.655 325.988 291.689 325.875 291.687 325.747C291.689 325.615 291.655 325.499 291.585 325.398C291.516 325.297 291.415 325.218 291.283 325.161C291.152 325.104 290.994 325.076 290.81 325.076H290.424V324.467H290.81C290.962 324.467 291.094 324.44 291.208 324.388C291.323 324.335 291.413 324.261 291.479 324.166C291.544 324.07 291.576 323.958 291.575 323.832C291.576 323.708 291.548 323.601 291.491 323.51C291.436 323.418 291.357 323.346 291.255 323.295C291.154 323.244 291.035 323.218 290.899 323.218C290.766 323.218 290.642 323.242 290.528 323.29C290.415 323.339 290.323 323.408 290.253 323.497C290.184 323.585 290.147 323.69 290.143 323.812H289.382C289.388 323.568 289.458 323.354 289.593 323.169C289.729 322.983 289.911 322.838 290.138 322.734C290.366 322.629 290.621 322.577 290.903 322.577C291.195 322.577 291.447 322.631 291.662 322.741C291.878 322.849 292.045 322.994 292.163 323.178C292.28 323.361 292.339 323.563 292.339 323.785C292.341 324.031 292.268 324.237 292.122 324.403C291.977 324.569 291.787 324.678 291.551 324.729V324.763C291.858 324.805 292.093 324.919 292.256 325.104C292.421 325.287 292.503 325.515 292.501 325.788C292.501 326.032 292.432 326.251 292.293 326.444C292.155 326.636 291.964 326.786 291.722 326.896C291.48 327.005 291.203 327.06 290.891 327.06ZM293.287 327.047C293.158 327.047 293.047 327.001 292.955 326.911C292.863 326.82 292.817 326.709 292.819 326.578C292.817 326.45 292.863 326.341 292.955 326.25C293.047 326.159 293.158 326.114 293.287 326.114C293.412 326.114 293.521 326.159 293.613 326.25C293.707 326.341 293.755 326.45 293.756 326.578C293.755 326.665 293.732 326.744 293.688 326.815C293.645 326.886 293.589 326.942 293.518 326.985C293.448 327.026 293.371 327.047 293.287 327.047ZM295.687 327.083C295.336 327.083 295.035 326.994 294.784 326.817C294.534 326.638 294.341 326.38 294.206 326.043C294.073 325.705 294.006 325.298 294.006 324.822C294.007 324.347 294.075 323.942 294.208 323.608C294.343 323.273 294.536 323.017 294.786 322.841C295.037 322.665 295.338 322.577 295.687 322.577C296.036 322.577 296.337 322.665 296.588 322.841C296.84 323.017 297.032 323.273 297.166 323.608C297.301 323.943 297.368 324.348 297.368 324.822C297.368 325.3 297.301 325.707 297.166 326.045C297.032 326.382 296.84 326.639 296.588 326.817C296.338 326.994 296.038 327.083 295.687 327.083ZM295.687 326.416C295.96 326.416 296.175 326.282 296.333 326.013C296.492 325.744 296.571 325.347 296.571 324.822C296.571 324.476 296.535 324.185 296.463 323.949C296.39 323.713 296.288 323.536 296.156 323.416C296.024 323.295 295.867 323.235 295.687 323.235C295.416 323.235 295.201 323.37 295.044 323.64C294.886 323.908 294.806 324.303 294.805 324.822C294.804 325.17 294.838 325.463 294.909 325.7C294.982 325.937 295.084 326.116 295.216 326.237C295.348 326.357 295.505 326.416 295.687 326.416Z" fill="#888888"/>
<path d="M356.347 327.06C356.04 327.06 355.768 327.007 355.529 326.902C355.292 326.797 355.104 326.651 354.966 326.463C354.829 326.276 354.755 326.059 354.747 325.813H355.548C355.555 325.931 355.594 326.034 355.665 326.122C355.736 326.209 355.831 326.276 355.949 326.325C356.067 326.373 356.199 326.397 356.345 326.397C356.501 326.397 356.64 326.37 356.76 326.316C356.881 326.261 356.976 326.184 357.044 326.086C357.112 325.988 357.145 325.875 357.144 325.747C357.145 325.615 357.111 325.499 357.042 325.398C356.972 325.297 356.871 325.218 356.739 325.161C356.608 325.104 356.451 325.076 356.266 325.076H355.88V324.467H356.266C356.418 324.467 356.551 324.44 356.665 324.388C356.78 324.335 356.87 324.261 356.935 324.166C357.001 324.07 357.032 323.958 357.031 323.832C357.032 323.708 357.005 323.601 356.948 323.51C356.893 323.418 356.814 323.346 356.711 323.295C356.611 323.244 356.492 323.218 356.356 323.218C356.222 323.218 356.099 323.242 355.985 323.29C355.871 323.339 355.78 323.408 355.71 323.497C355.64 323.585 355.603 323.69 355.599 323.812H354.839C354.844 323.568 354.915 323.354 355.05 323.169C355.186 322.983 355.368 322.838 355.595 322.734C355.822 322.629 356.077 322.577 356.36 322.577C356.651 322.577 356.904 322.631 357.118 322.741C357.334 322.849 357.501 322.994 357.619 323.178C357.737 323.361 357.796 323.563 357.796 323.785C357.797 324.031 357.725 324.237 357.579 324.403C357.434 324.569 357.243 324.678 357.008 324.729V324.763C357.314 324.805 357.55 324.919 357.713 325.104C357.878 325.287 357.959 325.515 357.958 325.788C357.958 326.032 357.888 326.251 357.749 326.444C357.611 326.636 357.421 326.786 357.178 326.896C356.937 327.005 356.66 327.06 356.347 327.06ZM358.744 327.047C358.615 327.047 358.504 327.001 358.412 326.911C358.319 326.82 358.274 326.709 358.275 326.578C358.274 326.45 358.319 326.341 358.412 326.25C358.504 326.159 358.615 326.114 358.744 326.114C358.869 326.114 358.978 326.159 359.07 326.25C359.164 326.341 359.211 326.45 359.213 326.578C359.211 326.665 359.189 326.744 359.145 326.815C359.102 326.886 359.045 326.942 358.974 326.985C358.905 327.026 358.828 327.047 358.744 327.047ZM361.165 327.06C360.881 327.06 360.627 327.006 360.402 326.9C360.178 326.792 359.999 326.644 359.867 326.457C359.737 326.269 359.667 326.055 359.658 325.813H360.426C360.44 325.992 360.517 326.138 360.658 326.252C360.798 326.364 360.967 326.42 361.165 326.42C361.32 326.42 361.458 326.385 361.578 326.314C361.699 326.243 361.794 326.144 361.864 326.018C361.933 325.891 361.967 325.747 361.966 325.585C361.967 325.42 361.933 325.274 361.862 325.146C361.791 325.018 361.693 324.918 361.57 324.846C361.446 324.772 361.304 324.735 361.144 324.735C361.013 324.734 360.884 324.758 360.758 324.808C360.632 324.857 360.531 324.923 360.458 325.004L359.744 324.886L359.972 322.636H362.503V323.297H360.626L360.5 324.454H360.526C360.607 324.359 360.721 324.28 360.869 324.217C361.016 324.153 361.178 324.121 361.355 324.121C361.619 324.121 361.855 324.184 362.062 324.309C362.269 324.433 362.433 324.603 362.552 324.82C362.671 325.038 362.731 325.286 362.731 325.566C362.731 325.854 362.664 326.112 362.531 326.337C362.399 326.562 362.215 326.739 361.979 326.868C361.744 326.996 361.473 327.06 361.165 327.06Z" fill="#888888"/>
<path d="M419.005 326.19V325.562L420.857 322.636H421.381V323.531H421.061L419.815 325.506V325.54H422.399V326.19H419.005ZM421.087 327V325.999L421.095 325.717V322.636H421.841V327H421.087ZM423.14 327.047C423.011 327.047 422.9 327.001 422.808 326.911C422.716 326.82 422.67 326.709 422.672 326.578C422.67 326.45 422.716 326.341 422.808 326.25C422.9 326.159 423.011 326.114 423.14 326.114C423.265 326.114 423.374 326.159 423.466 326.25C423.56 326.341 423.608 326.45 423.609 326.578C423.608 326.665 423.585 326.744 423.541 326.815C423.498 326.886 423.442 326.942 423.371 326.985C423.301 327.026 423.224 327.047 423.14 327.047ZM425.54 327.083C425.189 327.083 424.888 326.994 424.637 326.817C424.387 326.638 424.194 326.38 424.059 326.043C423.926 325.705 423.859 325.298 423.859 324.822C423.86 324.347 423.928 323.942 424.061 323.608C424.196 323.273 424.389 323.017 424.639 322.841C424.89 322.665 425.191 322.577 425.54 322.577C425.889 322.577 426.19 322.665 426.441 322.841C426.693 323.017 426.885 323.273 427.019 323.608C427.154 323.943 427.221 324.348 427.221 324.822C427.221 325.3 427.154 325.707 427.019 326.045C426.885 326.382 426.693 326.639 426.441 326.817C426.191 326.994 425.891 327.083 425.54 327.083ZM425.54 326.416C425.813 326.416 426.028 326.282 426.186 326.013C426.345 325.744 426.424 325.347 426.424 324.822C426.424 324.476 426.388 324.185 426.316 323.949C426.243 323.713 426.141 323.536 426.009 323.416C425.877 323.295 425.72 323.235 425.54 323.235C425.269 323.235 425.054 323.37 424.897 323.64C424.739 323.908 424.659 324.303 424.658 324.822C424.657 325.17 424.691 325.463 424.762 325.7C424.835 325.937 424.937 326.116 425.069 326.237C425.201 326.357 425.358 326.416 425.54 326.416Z" fill="#888888"/>
<path d="M484.43 326.19V325.562L486.282 322.636H486.806V323.531H486.486L485.24 325.506V325.54H487.824V326.19H484.43ZM486.512 327V325.999L486.52 325.717V322.636H487.266V327H486.512ZM488.566 327.047C488.437 327.047 488.326 327.001 488.233 326.911C488.141 326.82 488.096 326.709 488.097 326.578C488.096 326.45 488.141 326.341 488.233 326.25C488.326 326.159 488.437 326.114 488.566 326.114C488.691 326.114 488.799 326.159 488.892 326.25C488.986 326.341 489.033 326.45 489.035 326.578C489.033 326.665 489.01 326.744 488.966 326.815C488.924 326.886 488.867 326.942 488.796 326.985C488.726 327.026 488.65 327.047 488.566 327.047ZM490.987 327.06C490.703 327.06 490.448 327.006 490.224 326.9C489.999 326.792 489.821 326.644 489.689 326.457C489.558 326.269 489.489 326.055 489.48 325.813H490.247C490.262 325.992 490.339 326.138 490.48 326.252C490.62 326.364 490.789 326.42 490.987 326.42C491.141 326.42 491.279 326.385 491.4 326.314C491.521 326.243 491.616 326.144 491.686 326.018C491.755 325.891 491.789 325.747 491.788 325.585C491.789 325.42 491.754 325.274 491.683 325.146C491.612 325.018 491.515 324.918 491.391 324.846C491.268 324.772 491.126 324.735 490.965 324.735C490.835 324.734 490.706 324.758 490.58 324.808C490.453 324.857 490.353 324.923 490.279 325.004L489.566 324.886L489.793 322.636H492.325V323.297H490.448L490.322 324.454H490.347C490.428 324.359 490.543 324.28 490.691 324.217C490.838 324.153 491 324.121 491.176 324.121C491.441 324.121 491.676 324.184 491.884 324.309C492.091 324.433 492.254 324.603 492.374 324.82C492.493 325.038 492.553 325.286 492.553 325.566C492.553 325.854 492.486 326.112 492.352 326.337C492.22 326.562 492.036 326.739 491.801 326.868C491.566 326.996 491.295 327.06 490.987 327.06Z" fill="#888888"/>
<path d="M551.094 327.06C550.809 327.06 550.555 327.006 550.331 326.9C550.106 326.792 549.928 326.644 549.796 326.457C549.665 326.269 549.596 326.055 549.587 325.813H550.354C550.368 325.992 550.446 326.138 550.586 326.252C550.727 326.364 550.896 326.42 551.094 326.42C551.248 326.42 551.386 326.385 551.507 326.314C551.628 326.243 551.723 326.144 551.792 326.018C551.862 325.891 551.896 325.747 551.895 325.585C551.896 325.42 551.861 325.274 551.79 325.146C551.719 325.018 551.622 324.918 551.498 324.846C551.375 324.772 551.233 324.735 551.072 324.735C550.942 324.734 550.813 324.758 550.687 324.808C550.56 324.857 550.46 324.923 550.386 325.004L549.672 324.886L549.9 322.636H552.432V323.297H550.554L550.429 324.454H550.454C550.535 324.359 550.65 324.28 550.797 324.217C550.945 324.153 551.107 324.121 551.283 324.121C551.547 324.121 551.783 324.184 551.991 324.309C552.198 324.433 552.361 324.603 552.481 324.82C552.6 325.038 552.66 325.286 552.66 325.566C552.66 325.854 552.593 326.112 552.459 326.337C552.327 326.562 552.143 326.739 551.907 326.868C551.673 326.996 551.402 327.06 551.094 327.06ZM553.411 327.047C553.281 327.047 553.17 327.001 553.078 326.911C552.986 326.82 552.94 326.709 552.942 326.578C552.94 326.45 552.986 326.341 553.078 326.25C553.17 326.159 553.281 326.114 553.411 326.114C553.536 326.114 553.644 326.159 553.737 326.25C553.83 326.341 553.878 326.45 553.879 326.578C553.878 326.665 553.855 326.744 553.811 326.815C553.768 326.886 553.712 326.942 553.641 326.985C553.571 327.026 553.494 327.047 553.411 327.047ZM555.81 327.083C555.459 327.083 555.158 326.994 554.907 326.817C554.657 326.638 554.464 326.38 554.329 326.043C554.196 325.705 554.129 325.298 554.129 324.822C554.13 324.347 554.198 323.942 554.331 323.608C554.466 323.273 554.659 323.017 554.909 322.841C555.16 322.665 555.461 322.577 555.81 322.577C556.16 322.577 556.46 322.665 556.711 322.841C556.963 323.017 557.155 323.273 557.289 323.608C557.424 323.943 557.491 324.348 557.491 324.822C557.491 325.3 557.424 325.707 557.289 326.045C557.155 326.382 556.963 326.639 556.711 326.817C556.461 326.994 556.161 327.083 555.81 327.083ZM555.81 326.416C556.083 326.416 556.298 326.282 556.456 326.013C556.615 325.744 556.694 325.347 556.694 324.822C556.694 324.476 556.658 324.185 556.586 323.949C556.513 323.713 556.411 323.536 556.279 323.416C556.147 323.295 555.99 323.235 555.81 323.235C555.539 323.235 555.324 323.37 555.167 323.64C555.009 323.908 554.929 324.303 554.928 324.822C554.927 325.17 554.961 325.463 555.032 325.7C555.105 325.937 555.207 326.116 555.339 326.237C555.471 326.357 555.628 326.416 555.81 326.416Z" fill="#888888"/>
<path d="M617.137 327.06C616.853 327.06 616.599 327.006 616.375 326.9C616.15 326.792 615.972 326.644 615.84 326.457C615.709 326.269 615.64 326.055 615.631 325.813H616.398C616.412 325.992 616.49 326.138 616.63 326.252C616.771 326.364 616.94 326.42 617.137 326.42C617.292 326.42 617.43 326.385 617.551 326.314C617.672 326.243 617.767 326.144 617.836 326.018C617.906 325.891 617.94 325.747 617.939 325.585C617.94 325.42 617.905 325.274 617.834 325.146C617.763 325.018 617.666 324.918 617.542 324.846C617.419 324.772 617.277 324.735 617.116 324.735C616.985 324.734 616.857 324.758 616.73 324.808C616.604 324.857 616.504 324.923 616.43 325.004L615.716 324.886L615.944 322.636H618.476V323.297H616.598L616.473 324.454H616.498C616.579 324.359 616.694 324.28 616.841 324.217C616.989 324.153 617.151 324.121 617.327 324.121C617.591 324.121 617.827 324.184 618.034 324.309C618.242 324.433 618.405 324.603 618.525 324.82C618.644 325.038 618.703 325.286 618.703 325.566C618.703 325.854 618.637 326.112 618.503 326.337C618.371 326.562 618.187 326.739 617.951 326.868C617.717 326.996 617.446 327.06 617.137 327.06ZM619.454 327.047C619.325 327.047 619.214 327.001 619.122 326.911C619.03 326.82 618.984 326.709 618.986 326.578C618.984 326.45 619.03 326.341 619.122 326.25C619.214 326.159 619.325 326.114 619.454 326.114C619.579 326.114 619.688 326.159 619.78 326.25C619.874 326.341 619.922 326.45 619.923 326.578C619.922 326.665 619.899 326.744 619.855 326.815C619.812 326.886 619.756 326.942 619.685 326.985C619.615 327.026 619.538 327.047 619.454 327.047ZM621.875 327.06C621.591 327.06 621.337 327.006 621.113 326.9C620.888 326.792 620.71 326.644 620.578 326.457C620.447 326.269 620.377 326.055 620.369 325.813H621.136C621.15 325.992 621.228 326.138 621.368 326.252C621.509 326.364 621.678 326.42 621.875 326.42C622.03 326.42 622.168 326.385 622.289 326.314C622.409 326.243 622.505 326.144 622.574 326.018C622.644 325.891 622.678 325.747 622.676 325.585C622.678 325.42 622.643 325.274 622.572 325.146C622.501 325.018 622.404 324.918 622.28 324.846C622.157 324.772 622.015 324.735 621.854 324.735C621.723 324.734 621.595 324.758 621.468 324.808C621.342 324.857 621.242 324.923 621.168 325.004L620.454 324.886L620.682 322.636H623.213V323.297H621.336L621.211 324.454H621.236C621.317 324.359 621.431 324.28 621.579 324.217C621.727 324.153 621.889 324.121 622.065 324.121C622.329 324.121 622.565 324.184 622.772 324.309C622.98 324.433 623.143 324.603 623.262 324.82C623.382 325.038 623.441 325.286 623.441 325.566C623.441 325.854 623.375 326.112 623.241 326.337C623.109 326.562 622.925 326.739 622.689 326.868C622.455 326.996 622.184 327.06 621.875 327.06Z" fill="#888888"/>
<path d="M683.148 327.06C682.939 327.058 682.735 327.022 682.537 326.951C682.338 326.879 682.159 326.761 682 326.599C681.841 326.436 681.714 326.219 681.62 325.95C681.527 325.678 681.48 325.342 681.482 324.942C681.482 324.568 681.522 324.235 681.601 323.942C681.681 323.65 681.795 323.403 681.944 323.201C682.093 322.998 682.273 322.843 682.483 322.737C682.695 322.63 682.931 322.577 683.193 322.577C683.467 322.577 683.71 322.631 683.922 322.739C684.135 322.847 684.306 322.994 684.437 323.182C684.568 323.368 684.649 323.578 684.68 323.812H683.902C683.863 323.645 683.781 323.511 683.657 323.412C683.535 323.311 683.38 323.261 683.193 323.261C682.89 323.261 682.657 323.392 682.494 323.655C682.332 323.918 682.25 324.278 682.249 324.737H682.279C682.348 324.612 682.439 324.505 682.549 324.415C682.66 324.326 682.785 324.257 682.924 324.209C683.065 324.159 683.213 324.134 683.37 324.134C683.625 324.134 683.855 324.195 684.058 324.317C684.262 324.44 684.424 324.608 684.544 324.822C684.663 325.036 684.722 325.28 684.721 325.555C684.722 325.842 684.657 326.1 684.525 326.329C684.392 326.556 684.208 326.735 683.973 326.866C683.737 326.996 683.462 327.061 683.148 327.06ZM683.144 326.42C683.299 326.42 683.437 326.383 683.559 326.308C683.681 326.232 683.778 326.131 683.849 326.003C683.92 325.875 683.955 325.732 683.953 325.572C683.955 325.416 683.921 325.275 683.851 325.148C683.783 325.022 683.689 324.922 683.568 324.848C683.447 324.774 683.309 324.737 683.154 324.737C683.039 324.737 682.932 324.759 682.833 324.803C682.733 324.847 682.647 324.908 682.573 324.987C682.499 325.063 682.441 325.153 682.398 325.255C682.357 325.356 682.336 325.464 682.334 325.579C682.336 325.731 682.371 325.871 682.441 325.999C682.51 326.126 682.606 326.229 682.728 326.305C682.851 326.382 682.989 326.42 683.144 326.42ZM685.437 327.047C685.308 327.047 685.197 327.001 685.104 326.911C685.012 326.82 684.967 326.709 684.968 326.578C684.967 326.45 685.012 326.341 685.104 326.25C685.197 326.159 685.308 326.114 685.437 326.114C685.562 326.114 685.671 326.159 685.763 326.25C685.857 326.341 685.904 326.45 685.906 326.578C685.904 326.665 685.881 326.744 685.837 326.815C685.795 326.886 685.738 326.942 685.667 326.985C685.597 327.026 685.521 327.047 685.437 327.047ZM687.836 327.083C687.486 327.083 687.184 326.994 686.933 326.817C686.683 326.638 686.491 326.38 686.356 326.043C686.222 325.705 686.155 325.298 686.155 324.822C686.157 324.347 686.224 323.942 686.358 323.608C686.493 323.273 686.685 323.017 686.935 322.841C687.187 322.665 687.487 322.577 687.836 322.577C688.186 322.577 688.486 322.665 688.738 322.841C688.989 323.017 689.182 323.273 689.315 323.608C689.45 323.943 689.518 324.348 689.518 324.822C689.518 325.3 689.45 325.707 689.315 326.045C689.182 326.382 688.989 326.639 688.738 326.817C688.488 326.994 688.187 327.083 687.836 327.083ZM687.836 326.416C688.109 326.416 688.324 326.282 688.482 326.013C688.641 325.744 688.721 325.347 688.721 324.822C688.721 324.476 688.684 324.185 688.612 323.949C688.54 323.713 688.437 323.536 688.305 323.416C688.173 323.295 688.017 323.235 687.836 323.235C687.565 323.235 687.351 323.37 687.193 323.64C687.035 323.908 686.956 324.303 686.954 324.822C686.953 325.17 686.988 325.463 687.059 325.7C687.131 325.937 687.233 326.116 687.366 326.237C687.498 326.357 687.655 326.416 687.836 326.416Z" fill="#888888"/>
<path d="M748.192 327.06C747.983 327.058 747.779 327.022 747.581 326.951C747.382 326.879 747.203 326.761 747.044 326.599C746.885 326.436 746.758 326.219 746.664 325.95C746.571 325.678 746.524 325.342 746.526 324.942C746.526 324.568 746.566 324.235 746.645 323.942C746.725 323.65 746.839 323.403 746.988 323.201C747.137 322.998 747.317 322.843 747.527 322.737C747.739 322.63 747.975 322.577 748.237 322.577C748.511 322.577 748.754 322.631 748.965 322.739C749.179 322.847 749.35 322.994 749.481 323.182C749.612 323.368 749.693 323.578 749.724 323.812H748.946C748.907 323.645 748.825 323.511 748.701 323.412C748.579 323.311 748.424 323.261 748.237 323.261C747.934 323.261 747.701 323.392 747.538 323.655C747.376 323.918 747.294 324.278 747.293 324.737H747.323C747.392 324.612 747.483 324.505 747.593 324.415C747.704 324.326 747.829 324.257 747.968 324.209C748.109 324.159 748.257 324.134 748.414 324.134C748.669 324.134 748.899 324.195 749.102 324.317C749.306 324.44 749.468 324.608 749.588 324.822C749.707 325.036 749.766 325.28 749.764 325.555C749.766 325.842 749.701 326.1 749.568 326.329C749.436 326.556 749.252 326.735 749.017 326.866C748.781 326.996 748.506 327.061 748.192 327.06ZM748.188 326.42C748.343 326.42 748.481 326.383 748.603 326.308C748.725 326.232 748.822 326.131 748.893 326.003C748.964 325.875 748.999 325.732 748.997 325.572C748.999 325.416 748.965 325.275 748.895 325.148C748.827 325.022 748.733 324.922 748.612 324.848C748.491 324.774 748.353 324.737 748.198 324.737C748.083 324.737 747.976 324.759 747.877 324.803C747.777 324.847 747.691 324.908 747.617 324.987C747.543 325.063 747.485 325.153 747.442 325.255C747.401 325.356 747.38 325.464 747.378 325.579C747.38 325.731 747.415 325.871 747.485 325.999C747.554 326.126 747.65 326.229 747.772 326.305C747.894 326.382 748.033 326.42 748.188 326.42ZM750.481 327.047C750.352 327.047 750.241 327.001 750.148 326.911C750.056 326.82 750.011 326.709 750.012 326.578C750.011 326.45 750.056 326.341 750.148 326.25C750.241 326.159 750.352 326.114 750.481 326.114C750.606 326.114 750.714 326.159 750.807 326.25C750.901 326.341 750.948 326.45 750.95 326.578C750.948 326.665 750.925 326.744 750.881 326.815C750.839 326.886 750.782 326.942 750.711 326.985C750.641 327.026 750.565 327.047 750.481 327.047ZM752.902 327.06C752.618 327.06 752.363 327.006 752.139 326.9C751.914 326.792 751.736 326.644 751.604 326.457C751.473 326.269 751.404 326.055 751.395 325.813H752.162C752.177 325.992 752.254 326.138 752.395 326.252C752.535 326.364 752.704 326.42 752.902 326.42C753.057 326.42 753.194 326.385 753.315 326.314C753.436 326.243 753.531 326.144 753.601 326.018C753.67 325.891 753.704 325.747 753.703 325.585C753.704 325.42 753.669 325.274 753.598 325.146C753.527 325.018 753.43 324.918 753.307 324.846C753.183 324.772 753.041 324.735 752.88 324.735C752.75 324.734 752.621 324.758 752.495 324.808C752.368 324.857 752.268 324.923 752.194 325.004L751.481 324.886L751.709 322.636H754.24V323.297H752.363L752.237 324.454H752.263C752.343 324.359 752.458 324.28 752.606 324.217C752.753 324.153 752.915 324.121 753.091 324.121C753.356 324.121 753.591 324.184 753.799 324.309C754.006 324.433 754.169 324.603 754.289 324.82C754.408 325.038 754.468 325.286 754.468 325.566C754.468 325.854 754.401 326.112 754.267 326.337C754.135 326.562 753.951 326.739 753.716 326.868C753.481 326.996 753.21 327.06 752.902 327.06Z" fill="#888888"/>
<rect x="17.2251" y="5" width="747" height="1" fill="#D9D9D9"/>
<rect x="17.2251" y="18" width="747" height="1" fill="#D9D9D9" fill-opacity="0.5"/>
<rect x="17.2251" y="31" width="747" height="1" fill="#D9D9D9" fill-opacity="0.5"/>
<rect x="17.2251" y="44" width="747" height="1" fill="#D9D9D9" fill-opacity="0.5"/>
<rect x="17.2251" y="57" width="747" height="1" fill="#D9D9D9" fill-opacity="0.5"/>
<rect x="17.2251" y="70" width="747" height="1" fill="#D9D9D9" fill-opacity="0.5"/>
<rect x="17.2251" y="83" width="747" height="1" fill="#D9D9D9" fill-opacity="0.5"/>
<rect x="17.2251" y="96" width="747" height="1" fill="#D9D9D9" fill-opacity="0.5"/>
<rect x="17.2251" y="109" width="747" height="1" fill="#D9D9D9" fill-opacity="0.5"/>
<rect x="17.2251" y="122" width="747" height="1" fill="#D9D9D9" fill-opacity="0.5"/>
<rect x="17.2251" y="135" width="747" height="1" fill="#D9D9D9" fill-opacity="0.5"/>
<rect x="17.2251" y="148" width="747" height="1" fill="#D9D9D9" fill-opacity="0.5"/>
<rect x="17.2251" y="161" width="747" height="1" fill="#D9D9D9" fill-opacity="0.5"/>
<rect x="17.2251" y="174" width="747" height="1" fill="#D9D9D9" fill-opacity="0.5"/>
<rect x="17.2251" y="187" width="747" height="1" fill="#D9D9D9" fill-opacity="0.5"/>
<rect x="17.2251" y="200" width="747" height="1" fill="#D9D9D9" fill-opacity="0.5"/>
<rect x="17.2251" y="213" width="747" height="1" fill="#D9D9D9" fill-opacity="0.5"/>
<rect x="17.2251" y="226" width="747" height="1" fill="#D9D9D9" fill-opacity="0.5"/>
<rect x="17.2251" y="239" width="747" height="1" fill="#D9D9D9" fill-opacity="0.5"/>
<rect x="17.2251" y="252" width="747" height="1" fill="#D9D9D9" fill-opacity="0.5"/>
<rect x="17.2251" y="265" width="747" height="1" fill="#D9D9D9" fill-opacity="0.5"/>
<rect x="17.2251" y="278" width="747" height="1" fill="#D9D9D9" fill-opacity="0.5"/>
<rect x="17.2251" y="291" width="747" height="1" fill="#D9D9D9" fill-opacity="0.5"/>
<rect x="17.2251" y="304" width="747" height="1" fill="#D9D9D9" fill-opacity="0.5"/>
<rect x="17.2251" y="317" width="747" height="1" fill="#D9D9D9"/>
<rect x="17.2251" y="317.2" width="311.399" height="1.00767" transform="rotate(-90 17.2251 317.2)" fill="#D9D9D9"/>
<rect x="30.3247" y="317.2" width="311.399" height="1.00767" transform="rotate(-90 30.3247 317.2)" fill="#D9D9D9" fill-opacity="0.5"/>
<rect x="95.8232" y="317.2" width="311.399" height="1.00767" transform="rotate(-90 95.8232 317.2)" fill="#D9D9D9" fill-opacity="0.5"/>
<rect x="161.322" y="317.2" width="311.399" height="1.00767" transform="rotate(-90 161.322 317.2)" fill="#D9D9D9" fill-opacity="0.5"/>
<rect x="226.821" y="317.2" width="311.399" height="1.00767" transform="rotate(-90 226.821 317.2)" fill="#D9D9D9" fill-opacity="0.5"/>
<rect x="292.319" y="317.2" width="311.399" height="1.00767" transform="rotate(-90 292.319 317.2)" fill="#D9D9D9" fill-opacity="0.5"/>
<rect x="357.818" y="317.2" width="311.399" height="1.00767" transform="rotate(-90 357.818 317.2)" fill="#D9D9D9" fill-opacity="0.5"/>
<rect x="423" y="317.2" width="311.399" height="1.00767" transform="rotate(-90 423 317.2)" fill="#D9D9D9" fill-opacity="0.5"/>
<rect x="488.499" y="317.2" width="311.399" height="1.00767" transform="rotate(-90 488.499 317.2)" fill="#D9D9D9" fill-opacity="0.5"/>
<rect x="553.997" y="317.2" width="311.399" height="1.00767" transform="rotate(-90 553.997 317.2)" fill="#D9D9D9" fill-opacity="0.5"/>
<rect x="619.496" y="317.2" width="311.399" height="1.00767" transform="rotate(-90 619.496 317.2)" fill="#D9D9D9" fill-opacity="0.5"/>
<rect x="684.995" y="317.2" width="311.399" height="1.00767" transform="rotate(-90 684.995 317.2)" fill="#D9D9D9" fill-opacity="0.5"/>
<rect x="750.493" y="317.2" width="311.399" height="1.00767" transform="rotate(-90 750.493 317.2)" fill="#D9D9D9" fill-opacity="0.5"/>
<rect x="763.593" y="317.2" width="311.399" height="1.00767" transform="rotate(-90 763.593 317.2)" fill="#D9D9D9"/>
<rect x="76" y="291" width="40" height="26" fill="#58B99D"/>
<rect x="141" y="253" width="40" height="64" fill="#6459D5"/>
<rect x="206" y="278" width="40" height="39" fill="#58B99D"/>
<rect x="339" y="312" width="40" height="5" fill="#58B99D"/>
<rect x="600" y="175" width="40" height="142" fill="#58B99D"/>
<rect width="40" height="1" transform="matrix(1 0 0 -1 469 317)" fill="#58B99D"/>
<rect x="273" y="97" width="40" height="220" fill="#6459D5"/>
<rect x="404" y="304" width="40" height="13" fill="#6459D5"/>
<rect x="535" y="292" width="40" height="25" fill="#6459D5"/>
<rect x="665" y="227" width="40" height="90" fill="#6459D5"/>
</svg>
