<svg width="48" height="48" viewBox="0 0 48 48" fill="none" xmlns="http://www.w3.org/2000/svg">
<path d="M40.5 3.75H7.5C5.42893 3.75 3.75 5.42893 3.75 7.5V40.5C3.75 42.5711 5.42893 44.25 7.5 44.25H40.5C42.5711 44.25 44.25 42.5711 44.25 40.5V7.5C44.25 5.42893 42.5711 3.75 40.5 3.75Z" stroke="#454545" stroke-opacity="0.2" stroke-width="2" stroke-linecap="round" stroke-linejoin="round"/>
<path d="M8.25 36.75L15 25.5L20.25 31.5L29.25 19.5L39.75 36.75H8.25Z" stroke="#454545" stroke-opacity="0.2" stroke-width="2" stroke-linecap="round" stroke-linejoin="round"/>
<path d="M17.625 18.75C19.9032 18.75 21.75 16.9032 21.75 14.625C21.75 12.3468 19.9032 10.5 17.625 10.5C15.3468 10.5 13.5 12.3468 13.5 14.625C13.5 16.9032 15.3468 18.75 17.625 18.75Z" stroke="#454545" stroke-opacity="0.2" stroke-width="2" stroke-linecap="round" stroke-linejoin="round"/>
</svg>
