<svg width="12" height="12" viewBox="0 0 12 12" fill="none" xmlns="http://www.w3.org/2000/svg">
<g clip-path="url(#clip0_369_1535)">
<path d="M6 7.5C6.82843 7.5 7.5 6.82843 7.5 6C7.5 5.17157 6.82843 4.5 6 4.5C5.17157 4.5 4.5 5.17157 4.5 6C4.5 6.82843 5.17157 7.5 6 7.5Z" stroke="#454545" stroke-linecap="round" stroke-linejoin="round"/>
<path d="M10.0003 6C9.99616 5.66195 9.94843 5.32584 9.8583 5L11.1383 3.9L10.3883 2.6L8.8093 3.156C8.32175 2.67865 7.71991 2.33435 7.0613 2.156L6.7503 0.5H5.2503L4.9393 2.16C4.2807 2.33835 3.67886 2.68265 3.1913 3.16L1.6123 2.6L0.862305 3.9L2.1423 5C2.05218 5.32584 2.00445 5.66195 2.0003 6C2.00445 6.33805 2.05218 6.67416 2.1423 7L0.862305 8.1L1.6123 9.4L3.1913 8.845C3.67886 9.32235 4.2807 9.66665 4.9393 9.845L5.2503 11.5H6.7503L7.0613 9.84C7.71991 9.66165 8.32175 9.31735 8.8093 8.84L10.3883 9.395L11.1383 8.095L9.8583 7C9.94843 6.67416 9.99616 6.33805 10.0003 6Z" stroke="#454545" stroke-linecap="round" stroke-linejoin="round"/>
</g>
<defs>
<clipPath id="clip0_369_1535">
<rect width="12" height="12" fill="white"/>
</clipPath>
</defs>
</svg>
