<svg width="108" height="27" viewBox="0 0 108 27" fill="none" xmlns="http://www.w3.org/2000/svg">
<g clip-path="url(#clip0_181_1224)">
<path d="M56.8931 7.14762V3.48216H42.5454V21.8094H57.1811V18.144H47.2058V14.4523H55.9505V10.7869H47.2058V7.14762H56.8931Z" fill="#1E1E1E"/>
<path d="M58.8784 3.48216V21.8094H63.5387V16.6516H66.8638C71.5504 16.6516 74.2471 14.1643 74.2471 9.87053C74.2471 5.78616 71.5504 3.48216 66.8638 3.48216H58.8784ZM63.5387 7.14762H66.6282C68.6704 7.14762 69.8486 8.11634 69.8486 10.0276C69.8486 11.9651 68.6704 12.9862 66.6282 12.9862H63.5387V7.14762Z" fill="#1E1E1E"/>
<path d="M86.1842 18.432L87.4933 21.8094H92.4678L84.7442 3.48216H79.9529L72.046 21.8094H76.8373L78.1725 18.432H86.1842ZM84.8227 14.8974H79.534L82.2045 8.11634L84.8227 14.8974Z" fill="#1E1E1E"/>
<path d="M99.8145 3.27271C95.4159 3.27271 92.5097 5.41961 92.5097 8.79707C92.5097 15.2902 102.197 13.3527 102.197 16.5993C102.197 17.6465 101.281 18.1963 99.8145 18.1963C97.9032 18.1963 95.0756 17.0967 93.1905 15.4473L91.3839 19.0342C93.557 20.8145 96.6988 21.9665 99.7621 21.9665C103.846 21.9665 107.093 20.0291 107.093 16.3636C107.093 9.73962 97.4058 11.5462 97.4058 8.37816C97.4058 7.48798 98.2174 7.04289 99.4218 7.04289C100.914 7.04289 103.349 7.82834 105.286 8.95416L107.041 5.31489C105.156 4.08434 102.459 3.27271 99.8145 3.27271Z" fill="#1E1E1E"/>
</g>
<g clip-path="url(#clip1_181_1224)">
<path d="M7.63635 24H18.5454" stroke="#1E1E1E" stroke-width="2.18182" stroke-linecap="round" stroke-linejoin="round"/>
<path d="M25.0909 8.18176V2.18176H1.09088V7.63631M1.09088 14.1818V19.6363H25.0909V14.1818" stroke="#1E1E1E" stroke-width="2.18182" stroke-linecap="round" stroke-linejoin="round"/>
<path d="M5.45453 10.9091H8.9256L11.0082 5.45459L15.1735 16.3637L17.2562 10.9091H20.7273" stroke="#1E1E1E" stroke-width="1.63636" stroke-linecap="round" stroke-linejoin="round"/>
</g>
<defs>
<clipPath id="clip0_181_1224">
<rect width="65.4546" height="19.6364" fill="white" transform="translate(42.5454 3.27271)"/>
</clipPath>
<clipPath id="clip1_181_1224">
<rect width="26.1818" height="26.1818" fill="white"/>
</clipPath>
</defs>
</svg>
