<svg width="99" height="24" viewBox="0 0 99 24" fill="none" xmlns="http://www.w3.org/2000/svg">
<g clip-path="url(#clip0_268_1454)">
<path d="M52.152 6.552V3.192H39V19.992H52.416V16.632H43.272V13.248H51.288V9.888H43.272V6.552H52.152Z" fill="white"/>
<path d="M53.9719 3.192V19.992H58.2439V15.264H61.2919C65.5879 15.264 68.0599 12.984 68.0599 9.048C68.0599 5.304 65.5879 3.192 61.2919 3.192H53.9719ZM58.2439 6.552H61.0759C62.9479 6.552 64.0279 7.44 64.0279 9.192C64.0279 10.968 62.9479 11.904 61.0759 11.904H58.2439V6.552Z" fill="white"/>
<path d="M79.0022 16.896L80.2022 19.992H84.7622L77.6822 3.192H73.2902L66.0422 19.992H70.4342L71.6582 16.896H79.0022ZM77.7542 13.656H72.9062L75.3542 7.44L77.7542 13.656Z" fill="white"/>
<path d="M91.4966 3C87.4646 3 84.8006 4.968 84.8006 8.064C84.8006 14.016 93.6806 12.24 93.6806 15.216C93.6806 16.176 92.8406 16.68 91.4966 16.68C89.7446 16.68 87.1526 15.672 85.4246 14.16L83.7686 17.448C85.7606 19.08 88.6406 20.136 91.4486 20.136C95.1926 20.136 98.1686 18.36 98.1686 15C98.1686 8.928 89.2886 10.584 89.2886 7.68C89.2886 6.864 90.0326 6.456 91.1366 6.456C92.5046 6.456 94.7366 7.176 96.5126 8.208L98.1206 4.872C96.3926 3.744 93.9206 3 91.4966 3Z" fill="white"/>
</g>
<path d="M7 22H17" stroke="white" stroke-width="2" stroke-linecap="round" stroke-linejoin="round"/>
<path d="M23 7.5V2H1V7M1 13V18H23V13" stroke="white" stroke-width="2" stroke-linecap="round" stroke-linejoin="round"/>
<path d="M5 10H8.18182L10.0909 5L13.9091 15L15.8182 10H19" stroke="white" stroke-width="1.5" stroke-linecap="round" stroke-linejoin="round"/>
<defs>
<clipPath id="clip0_268_1454">
<rect width="60" height="18" fill="white" transform="translate(39 3)"/>
</clipPath>
</defs>
</svg>
