<svg width="24" height="24" viewBox="0 0 24 24" fill="none" xmlns="http://www.w3.org/2000/svg">
<g clip-path="url(#clip0_353_1509)">
<path d="M18.8101 19.9018C18.7635 19.902 18.7172 19.8956 18.6724 19.883C18.5391 19.8464 18.4258 19.7585 18.3574 19.6384C18.2889 19.5184 18.2708 19.3762 18.3071 19.2428L20.3419 11.7887C20.3783 11.6552 20.4661 11.5416 20.5862 11.4728C20.7063 11.4041 20.8488 11.3859 20.9824 11.4222C21.1159 11.4586 21.2295 11.5464 21.2983 11.6665C21.367 11.7866 21.3852 11.9291 21.3489 12.0627L19.3141 19.5168C19.2841 19.6274 19.2184 19.7251 19.1273 19.7946C19.0362 19.8642 18.9247 19.9019 18.8101 19.9018Z" fill="#BAFAC8"/>
<path d="M16.174 21.9129H7.82618C7.68781 21.9129 7.5551 21.858 7.45726 21.7601C7.35941 21.6623 7.30444 21.5296 7.30444 21.3912C7.30444 21.2528 7.35941 21.1201 7.45726 21.0223C7.5551 20.9244 7.68781 20.8694 7.82618 20.8694H16.174C16.3124 20.8694 16.4451 20.9244 16.5429 21.0223C16.6408 21.1201 16.6957 21.2528 16.6957 21.3912C16.6957 21.5296 16.6408 21.6623 16.5429 21.7601C16.4451 21.858 16.3124 21.9129 16.174 21.9129Z" fill="#BAFAC8"/>
<path d="M5.18958 19.9017C5.07512 19.9016 4.96387 19.8638 4.87298 19.7942C4.7821 19.7247 4.71661 19.6271 4.68662 19.5167L2.65184 12.0631C2.61552 11.9296 2.63373 11.7871 2.70246 11.667C2.7712 11.5469 2.88483 11.459 3.01836 11.4227C3.15189 11.3863 3.29438 11.4045 3.41449 11.4733C3.53459 11.542 3.62247 11.6556 3.6588 11.7892L5.69358 19.2427C5.72988 19.3761 5.71181 19.5183 5.64335 19.6383C5.57488 19.7584 5.4616 19.8463 5.32836 19.8829C5.28321 19.8956 5.23649 19.902 5.18958 19.9017Z" fill="#BAFAC8"/>
<path d="M4.25472 9.15497C4.146 9.15503 4.03997 9.12113 3.95145 9.058C3.86294 8.99487 3.79635 8.90566 3.76101 8.80284C3.72566 8.70002 3.72332 8.58873 3.75431 8.48452C3.7853 8.3803 3.84807 8.28837 3.93385 8.22157L10.0325 3.47792C10.1416 3.39289 10.2801 3.35471 10.4174 3.37179C10.5548 3.38886 10.6797 3.45979 10.7647 3.56896C10.8498 3.67814 10.8879 3.81663 10.8709 3.95395C10.8538 4.09128 10.7829 4.2162 10.6737 4.30123L4.57507 9.04488C4.48362 9.1164 4.37082 9.15516 4.25472 9.15497Z" fill="#BAFAC8"/>
<path d="M12 11.4783C11.8616 11.4783 11.7289 11.4233 11.6311 11.3255C11.5332 11.2276 11.4783 11.0949 11.4783 10.9566V4.69569C11.4783 4.55732 11.5332 4.42461 11.6311 4.32676C11.7289 4.22892 11.8616 4.17395 12 4.17395C12.1384 4.17395 12.2711 4.22892 12.3689 4.32676C12.4668 4.42461 12.5217 4.55732 12.5217 4.69569V10.9566C12.5217 11.0949 12.4668 11.2276 12.3689 11.3255C12.2711 11.4233 12.1384 11.4783 12 11.4783Z" fill="#BAFAC8"/>
<path d="M7.04343 20.2842C6.94754 20.284 6.85354 20.2574 6.77176 20.2074C6.68998 20.1573 6.62358 20.0857 6.57985 20.0003C6.53613 19.915 6.51677 19.8192 6.52391 19.7236C6.53104 19.628 6.5644 19.5361 6.6203 19.4582L10.2751 14.3682C10.3558 14.2557 10.4778 14.1799 10.6143 14.1575C10.7509 14.135 10.8907 14.1677 11.0032 14.2484C11.1156 14.3291 11.1914 14.4511 11.2138 14.5877C11.2363 14.7242 11.2036 14.8641 11.1229 14.9765L7.46604 20.0666C7.41786 20.1337 7.35443 20.1885 7.28095 20.2263C7.20748 20.2641 7.12607 20.2839 7.04343 20.2842Z" fill="#BAFAC8"/>
<path d="M11.9999 5.2174C11.9321 5.21823 11.8647 5.20582 11.8017 5.18088C11.7382 5.15252 11.6801 5.11372 11.6295 5.06609C11.5836 5.01526 11.5465 4.95706 11.5199 4.89392C11.4907 4.83201 11.4764 4.7641 11.4782 4.69566C11.4798 4.55747 11.5339 4.42506 11.6295 4.32522C11.7029 4.25283 11.796 4.20379 11.8972 4.18429C11.9984 4.16479 12.1032 4.1757 12.1982 4.21566C12.2613 4.24225 12.3195 4.27929 12.3704 4.32522C12.4657 4.42521 12.5197 4.55752 12.5217 4.69566C12.5218 4.83422 12.4675 4.96728 12.3704 5.06609C12.3197 5.11364 12.2615 5.15243 12.1982 5.18088C12.1351 5.20582 12.0678 5.21823 11.9999 5.2174Z" fill="#B7E3FC"/>
<path d="M16.9564 20.2841C16.8735 20.2843 16.7916 20.2646 16.7178 20.2268C16.6439 20.1889 16.5801 20.134 16.5318 20.0666L12.8796 14.9765C12.8396 14.9208 12.811 14.8578 12.7954 14.7911C12.7798 14.7244 12.7775 14.6553 12.7887 14.5877C12.7998 14.52 12.8241 14.4553 12.8602 14.3971C12.8964 14.3389 12.9436 14.2884 12.9993 14.2484C13.055 14.2085 13.118 14.1799 13.1847 14.1643C13.2514 14.1487 13.3205 14.1464 13.3882 14.1575C13.4558 14.1686 13.5205 14.1929 13.5787 14.2291C13.6369 14.2652 13.6875 14.3125 13.7274 14.3682L17.3796 19.4582C17.4355 19.5361 17.4688 19.628 17.476 19.7236C17.4831 19.8192 17.4638 19.915 17.42 20.0003C17.3763 20.0857 17.3099 20.1573 17.2281 20.2074C17.1463 20.2574 17.0523 20.284 16.9564 20.2841Z" fill="#BAFAC8"/>
<path d="M13.9441 12.8097C13.8187 12.8096 13.6975 12.7644 13.6027 12.6823C13.5079 12.6002 13.4459 12.4867 13.428 12.3626C13.41 12.2384 13.4374 12.112 13.5051 12.0064C13.5728 11.9008 13.6762 11.8231 13.7965 11.7876L19.2993 10.1702C19.4309 10.1347 19.5712 10.152 19.6901 10.2186C19.8091 10.2852 19.8973 10.3957 19.9358 10.5265C19.9743 10.6572 19.9601 10.7979 19.8963 10.9183C19.8324 11.0388 19.7239 11.1294 19.594 11.1709L14.0913 12.7883C14.0435 12.8025 13.994 12.8097 13.9441 12.8097Z" fill="#BAFAC8"/>
<path d="M19.7451 9.15496C19.629 9.15516 19.5162 9.11639 19.4248 9.04488L13.3262 4.30122C13.2721 4.25912 13.2269 4.20678 13.193 4.1472C13.1592 4.08761 13.1374 4.02195 13.129 3.95395C13.1205 3.88595 13.1256 3.81696 13.1438 3.7509C13.162 3.68484 13.193 3.62302 13.2351 3.56896C13.2772 3.5149 13.3296 3.46967 13.3891 3.43583C13.4487 3.402 13.5144 3.38024 13.5824 3.37178C13.6504 3.36333 13.7194 3.36835 13.7854 3.38656C13.8515 3.40477 13.9133 3.43582 13.9674 3.47792L20.066 8.22157C20.1518 8.28837 20.2145 8.3803 20.2455 8.48452C20.2765 8.58873 20.2742 8.70002 20.2388 8.80284C20.2035 8.90566 20.1369 8.99486 20.0484 9.058C19.9599 9.12113 19.8538 9.15503 19.7451 9.15496Z" fill="#BAFAC8"/>
<path d="M10.0559 12.8097C10.0061 12.8096 9.95654 12.8024 9.90877 12.7883L4.40598 11.1709C4.27612 11.1294 4.16764 11.0388 4.10377 10.9183C4.0399 10.7979 4.02571 10.6572 4.06423 10.5265C4.10275 10.3957 4.19093 10.2852 4.3099 10.2186C4.42886 10.152 4.56916 10.1347 4.70077 10.1702L10.2035 11.7876C10.3238 11.8231 10.4273 11.9008 10.4949 12.0064C10.5626 12.112 10.59 12.2384 10.5721 12.3626C10.5541 12.4867 10.4921 12.6002 10.3973 12.6823C10.3025 12.7644 10.1813 12.8096 10.0559 12.8097Z" fill="#BAFAC8"/>
<path d="M11.9998 15.1522C11.5829 15.1522 11.1752 15.0285 10.8285 14.7968C10.4818 14.5651 10.2115 14.2358 10.0519 13.8505C9.89227 13.4652 9.85051 13.0412 9.93188 12.6321C10.0132 12.2231 10.2141 11.8473 10.509 11.5524C10.8039 11.2575 11.1796 11.0567 11.5887 10.9753C11.9977 10.894 12.4217 10.9357 12.807 11.0953C13.1923 11.2549 13.5217 11.5252 13.7534 11.872C13.985 12.2187 14.1087 12.6263 14.1088 13.0433C14.108 13.6024 13.8855 14.1383 13.4902 14.5337C13.0949 14.929 12.5589 15.1514 11.9998 15.1522Z" fill="white" stroke="#E6F8ED"/>
<path d="M11.9998 4.71739C11.5829 4.71735 11.1752 4.59368 10.8285 4.36201C10.4818 4.13031 10.2115 3.80097 10.0519 3.41566C9.89227 3.03035 9.85051 2.60636 9.93188 2.19731C10.0132 1.78826 10.2141 1.41253 10.509 1.11762C10.8039 0.822717 11.1796 0.621884 11.5887 0.540519C11.9977 0.459155 12.4217 0.500914 12.807 0.660516C13.1923 0.820118 13.5217 1.0904 13.7534 1.43717C13.985 1.78388 14.1087 2.19149 14.1088 2.60848C14.108 3.16756 13.8855 3.70352 13.4902 4.09886C13.0949 4.49419 12.5589 4.71662 11.9998 4.71739Z" fill="white" stroke="#E6F8ED"/>
<path d="M21.3912 12.0218C20.9742 12.0217 20.5666 11.8981 20.2199 11.6664C19.8731 11.4347 19.6028 11.1054 19.4432 10.72C19.2836 10.3347 19.2419 9.91074 19.3232 9.50169C19.4046 9.09265 19.6054 8.71691 19.9003 8.42201C20.1952 8.1271 20.571 7.92627 20.98 7.8449C21.3891 7.76354 21.8131 7.8053 22.1984 7.9649C22.5837 8.1245 22.913 8.39478 23.1447 8.74155C23.3764 9.08826 23.5001 9.49588 23.5001 9.91286C23.4993 10.4719 23.2769 11.0079 22.8816 11.4032C22.4862 11.7986 21.9503 12.021 21.3912 12.0218Z" fill="white" stroke="#E6F8ED"/>
<path d="M2.60848 12.0218C2.19149 12.0217 1.78388 11.8981 1.43717 11.6664C1.0904 11.4347 0.820118 11.1054 0.660516 10.72C0.500914 10.3347 0.459155 9.91074 0.540519 9.50169C0.621884 9.09265 0.822717 8.71691 1.11762 8.42201C1.41253 8.1271 1.78826 7.92627 2.19731 7.8449C2.60636 7.76354 3.03035 7.8053 3.41566 7.9649C3.80097 8.1245 4.13031 8.39478 4.36201 8.74155C4.59368 9.08826 4.71735 9.49588 4.71739 9.91286C4.71662 10.4719 4.49419 11.0079 4.09886 11.4032C3.70352 11.7986 3.16755 12.021 2.60848 12.0218Z" fill="white" stroke="#E6F8ED"/>
<path d="M5.73885 23.5C5.32186 23.4999 4.91425 23.3763 4.56754 23.1446C4.22077 22.9129 3.95049 22.5836 3.79089 22.1983C3.63129 21.8129 3.58953 21.389 3.67089 20.9799C3.75225 20.5709 3.95309 20.1951 4.248 19.9002C4.5429 19.6053 4.91864 19.4045 5.32768 19.3231C5.73673 19.2417 6.16072 19.2835 6.54603 19.4431C6.93135 19.6027 7.26068 19.873 7.49238 20.2198C7.72405 20.5665 7.84772 20.9741 7.84776 21.3911C7.84699 21.9502 7.62456 22.4861 7.22923 22.8814C6.83389 23.2768 6.29793 23.4992 5.73885 23.5Z" fill="white" stroke="#E6F8ED"/>
<path d="M18.2606 23.5C17.8436 23.4999 17.436 23.3763 17.0893 23.1446C16.7425 22.9129 16.4722 22.5836 16.3126 22.1983C16.153 21.8129 16.1113 21.389 16.1926 20.9799C16.274 20.5709 16.4748 20.1951 16.7697 19.9002C17.0646 19.6053 17.4404 19.4045 17.8494 19.3231C18.2585 19.2417 18.6824 19.2835 19.0678 19.4431C19.4531 19.6027 19.7824 19.873 20.0141 20.2198C20.2458 20.5665 20.3695 20.9741 20.3695 21.3911C20.3687 21.9501 20.1463 22.4861 19.751 22.8814C19.3556 23.2768 18.8197 23.4992 18.2606 23.5Z" fill="white" stroke="#E6F8ED"/>
</g>
<defs>
<clipPath id="clip0_353_1509">
<rect width="24" height="24" fill="white"/>
</clipPath>
</defs>
</svg>
