<svg width="24" height="24" viewBox="0 0 24 24" fill="none" xmlns="http://www.w3.org/2000/svg">
<path d="M4.61202 3.64441H19.6544C20.8755 3.64441 21.8666 4.63996 21.8666 5.86663V9.42219H2.3999V5.86663C2.3999 4.63996 3.39093 3.64441 4.61202 3.64441Z" fill="#E8AA0A"/>
<path d="M2.3999 9.42236H21.8666V19.6446C21.8666 20.8713 20.8755 21.8668 19.6544 21.8668H4.61202C3.39093 21.8668 2.3999 20.8713 2.3999 19.6446V9.42236Z" fill="url(#paint0_linear_424_1546)"/>
<path d="M7.2664 5.8667C7.02218 5.8667 6.82397 5.66759 6.82397 5.42226V2.31114C6.82397 2.06581 7.02218 1.8667 7.2664 1.8667C7.51062 1.8667 7.70882 2.06581 7.70882 2.31114V5.42226C7.70882 5.66759 7.51062 5.8667 7.2664 5.8667Z" fill="url(#paint1_linear_424_1546)"/>
<path d="M16.9998 5.8667C16.7556 5.8667 16.5574 5.66759 16.5574 5.42226V2.31114C16.5574 2.06581 16.7556 1.8667 16.9998 1.8667C17.244 1.8667 17.4422 2.06581 17.4422 2.31114V5.42226C17.4422 5.66759 17.244 5.8667 16.9998 5.8667Z" fill="url(#paint2_linear_424_1546)"/>
<path d="M9.03618 15.6444H6.38163C6.13728 15.6444 5.93921 15.8434 5.93921 16.0889V18.7555C5.93921 19.001 6.13728 19.2 6.38163 19.2H9.03618C9.28053 19.2 9.4786 19.001 9.4786 18.7555V16.0889C9.4786 15.8434 9.28053 15.6444 9.03618 15.6444Z" fill="#A2A3B4"/>
<path d="M9.03618 11.2001H6.38163C6.13728 11.2001 5.93921 11.3991 5.93921 11.6445V14.3112C5.93921 14.5567 6.13728 14.7556 6.38163 14.7556H9.03618C9.28053 14.7556 9.4786 14.5567 9.4786 14.3112V11.6445C9.4786 11.3991 9.28053 11.2001 9.03618 11.2001Z" fill="#A2A3B4"/>
<path d="M13.4605 15.6444H10.8059C10.5616 15.6444 10.3635 15.8434 10.3635 16.0889V18.7555C10.3635 19.001 10.5616 19.2 10.8059 19.2H13.4605C13.7048 19.2 13.9029 19.001 13.9029 18.7555V16.0889C13.9029 15.8434 13.7048 15.6444 13.4605 15.6444Z" fill="#A2A3B4"/>
<path d="M13.4605 11.2001H10.8059C10.5616 11.2001 10.3635 11.3991 10.3635 11.6445V14.3112C10.3635 14.5567 10.5616 14.7556 10.8059 14.7556H13.4605C13.7048 14.7556 13.9029 14.5567 13.9029 14.3112V11.6445C13.9029 11.3991 13.7048 11.2001 13.4605 11.2001Z" fill="#A2A3B4"/>
<path d="M17.8843 11.2001H15.2298C14.9854 11.2001 14.7874 11.3991 14.7874 11.6445V14.3112C14.7874 14.5567 14.9854 14.7556 15.2298 14.7556H17.8843C18.1287 14.7556 18.3267 14.5567 18.3267 14.3112V11.6445C18.3267 11.3991 18.1287 11.2001 17.8843 11.2001Z" fill="#A2A3B4"/>
<defs>
<linearGradient id="paint0_linear_424_1546" x1="12.1332" y1="9.42236" x2="12.1332" y2="21.8668" gradientUnits="userSpaceOnUse">
<stop stop-color="#E0E0E6"/>
<stop offset="1" stop-color="#C2C3CD"/>
</linearGradient>
<linearGradient id="paint1_linear_424_1546" x1="7.2664" y1="1.8667" x2="7.2664" y2="5.8667" gradientUnits="userSpaceOnUse">
<stop stop-color="#A2A3B4"/>
<stop offset="1" stop-color="#83849B"/>
</linearGradient>
<linearGradient id="paint2_linear_424_1546" x1="16.9998" y1="1.8667" x2="16.9998" y2="5.8667" gradientUnits="userSpaceOnUse">
<stop stop-color="#A2A3B4"/>
<stop offset="1" stop-color="#83849B"/>
</linearGradient>
</defs>
</svg>
