<svg width="90" height="90" viewBox="0 0 90 90" fill="none" xmlns="http://www.w3.org/2000/svg">
<g clip-path="url(#clip0_292_1867)">
<g filter="url(#filter0_d_292_1867)">
<path d="M83.4052 38.0435L73.5217 37.2243C72.8689 34.8183 71.9098 32.506 70.6678 30.3443L77.0869 22.7583C77.3688 22.4253 77.5152 21.9986 77.4971 21.5627C77.4791 21.1269 77.2979 20.7138 76.9896 20.4052L69.5948 13.0261C69.2862 12.7177 68.8731 12.5365 68.4372 12.5185C68.0014 12.5005 67.5747 12.6469 67.2417 12.9287L59.6574 19.3461C57.495 18.1008 55.1824 17.1371 52.7756 16.4783L51.9565 6.59479C51.9202 6.15901 51.7211 5.75289 51.3988 5.45734C51.0765 5.16179 50.6547 4.9985 50.2174 5.00001H39.7826C39.3453 4.9985 38.9235 5.16179 38.6012 5.45734C38.2789 5.75289 38.0798 6.15901 38.0435 6.59479L37.2243 16.4783C34.8183 17.131 32.506 18.0902 30.3443 19.3322L22.7583 12.92C22.4253 12.6382 21.9986 12.4918 21.5627 12.5098C21.1269 12.5278 20.7138 12.709 20.4052 13.0174L13.0261 20.4052C12.7177 20.7138 12.5365 21.1269 12.5185 21.5627C12.5005 21.9986 12.6469 22.4253 12.9287 22.7583L19.3461 30.3426C18.1008 32.505 17.1371 34.8176 16.4783 37.2243L6.59479 38.0435C6.15901 38.0798 5.75289 38.2789 5.45734 38.6012C5.16179 38.9235 4.9985 39.3453 5.00001 39.7826V50.2174C4.9985 50.6547 5.16179 51.0765 5.45734 51.3988C5.75289 51.7211 6.15901 51.9202 6.59479 51.9565L16.4852 52.7826C17.138 55.1887 18.0972 57.5009 19.3391 59.6626L12.92 67.2417C12.6382 67.5747 12.4918 68.0014 12.5098 68.4372C12.5278 68.8731 12.709 69.2862 13.0174 69.5948L20.3965 76.9739C20.705 77.2818 21.1178 77.4627 21.5532 77.4807C21.9886 77.4987 22.415 77.3526 22.7478 77.0713L30.3339 70.6539C32.4986 71.9007 34.8143 72.8645 37.2243 73.5217L38.0435 83.4052C38.0798 83.841 38.2789 84.2471 38.6012 84.5427C38.9235 84.8382 39.3453 85.0015 39.7826 85H50.2174C50.6547 85.0015 51.0765 84.8382 51.3988 84.5427C51.7211 84.2471 51.9202 83.841 51.9565 83.4052L52.7843 73.5078C55.1894 72.8529 57.5009 71.8932 59.6626 70.6522L67.2487 77.0713C67.5816 77.3531 68.0084 77.4995 68.4442 77.4815C68.8801 77.4635 69.2932 77.2823 69.6017 76.9739L76.9809 69.5948C77.2892 69.2862 77.4704 68.8731 77.4884 68.4372C77.5065 68.0014 77.3601 67.5747 77.0782 67.2417L70.6609 59.6574C71.9029 57.4943 72.8642 55.1817 73.5217 52.7756L83.4052 51.9565C83.841 51.9202 84.2471 51.7211 84.5427 51.3988C84.8382 51.0765 85.0015 50.6547 85 50.2174V39.7826C85.0015 39.3453 84.8382 38.9235 84.5427 38.6012C84.2471 38.2789 83.841 38.0798 83.4052 38.0435ZM45 57.1739C42.5922 57.1739 40.2385 56.4599 38.2365 55.1222C36.2345 53.7845 34.6742 51.8832 33.7528 49.6587C32.8314 47.4343 32.5903 44.9865 33.06 42.625C33.5297 40.2635 34.6892 38.0943 36.3917 36.3917C38.0943 34.6892 40.2635 33.5297 42.625 33.06C44.9865 32.5903 47.4343 32.8314 49.6587 33.7528C51.8832 34.6742 53.7845 36.2345 55.1222 38.2365C56.4599 40.2385 57.1739 42.5922 57.1739 45C57.1739 48.2287 55.8913 51.3252 53.6082 53.6082C51.3252 55.8913 48.2287 57.1739 45 57.1739Z" fill="white"/>
</g>
<circle cx="44.9997" cy="45" r="12.6188" fill="#3D485E"/>
<path d="M44.9997 27.6088C41.56 27.6088 38.1976 28.6287 35.3376 30.5397C32.4776 32.4507 30.2485 35.1669 28.9322 38.3447C27.6159 41.5225 27.2715 45.0194 27.9426 48.3929C28.6136 51.7665 30.27 54.8654 32.7022 57.2976C35.1344 59.7298 38.2333 61.3861 41.6068 62.0572C44.9804 62.7282 48.4772 62.3838 51.6551 61.0675C54.8329 59.7512 57.5491 57.5221 59.46 54.6622C61.371 51.8022 62.391 48.4397 62.391 45.0001C62.391 40.3876 60.5587 35.9641 57.2972 32.7026C54.0357 29.4411 49.6122 27.6088 44.9997 27.6088V27.6088ZM44.9997 57.174C42.5919 57.174 40.2382 56.46 38.2362 55.1223C36.2343 53.7846 34.6739 51.8833 33.7525 49.6588C32.8311 47.4343 32.59 44.9866 33.0597 42.6251C33.5294 40.2635 34.6889 38.0944 36.3915 36.3918C38.094 34.6893 40.2632 33.5298 42.6247 33.0601C44.9862 32.5903 47.434 32.8314 49.6585 33.7528C51.8829 34.6743 53.7843 36.2346 55.1219 38.2366C56.4596 40.2386 57.1736 42.5923 57.1736 45.0001C57.1736 48.2288 55.891 51.3253 53.608 53.6083C51.3249 55.8914 48.2284 57.174 44.9997 57.174V57.174Z" fill="#949494"/>
</g>
<defs>
<filter id="filter0_d_292_1867" x="1" y="5" width="88" height="88" filterUnits="userSpaceOnUse" color-interpolation-filters="sRGB">
<feFlood flood-opacity="0" result="BackgroundImageFix"/>
<feColorMatrix in="SourceAlpha" type="matrix" values="0 0 0 0 0 0 0 0 0 0 0 0 0 0 0 0 0 0 127 0" result="hardAlpha"/>
<feOffset dy="4"/>
<feGaussianBlur stdDeviation="2"/>
<feComposite in2="hardAlpha" operator="out"/>
<feColorMatrix type="matrix" values="0 0 0 0 0.552188 0 0 0 0 0.595515 0 0 0 0 0.7125 0 0 0 1 0"/>
<feBlend mode="normal" in2="BackgroundImageFix" result="effect1_dropShadow_292_1867"/>
<feBlend mode="normal" in="SourceGraphic" in2="effect1_dropShadow_292_1867" result="shape"/>
</filter>
<clipPath id="clip0_292_1867">
<rect width="90" height="90" fill="white"/>
</clipPath>
</defs>
</svg>
