<svg width="24" height="24" viewBox="0 0 24 24" fill="none" xmlns="http://www.w3.org/2000/svg">
<path d="M12.0001 3C9.92919 2.99944 7.89657 3.55825 6.117 4.6174C4.33742 5.67654 2.87697 7.19668 1.88992 9.01723C0.902867 10.8378 0.425879 12.8911 0.509343 14.9604C0.592808 17.0296 1.23363 19.0379 2.3641 20.773C2.40949 20.8426 2.47152 20.8999 2.5446 20.9395C2.61767 20.9791 2.69947 20.9999 2.7826 21H21.2176C21.3007 20.9999 21.3825 20.9791 21.4556 20.9395C21.5287 20.8999 21.5907 20.8426 21.6361 20.773C22.7666 19.0379 23.4074 17.0296 23.4909 14.9604C23.5743 12.8911 23.0973 10.8378 22.1103 9.01723C21.1232 7.19668 19.6628 5.67654 17.8832 4.6174C16.1036 3.55825 14.071 2.99944 12.0001 3Z" fill="white"/>
<path d="M19.7475 18.5C19.6766 18.5001 19.6065 18.4849 19.542 18.4555C19.4821 18.4285 19.4282 18.3899 19.3832 18.3421C19.3383 18.2942 19.3032 18.2379 19.28 18.1765C19.2568 18.1151 19.2459 18.0497 19.2479 17.984C19.25 17.9184 19.265 17.8538 19.292 17.794C19.7828 16.7063 20.0241 15.5226 19.9981 14.3296C19.9722 13.1366 19.6797 11.9645 19.142 10.8992C18.6044 9.83391 17.8353 8.90236 16.891 8.17282C15.9467 7.44328 14.8511 6.93423 13.6846 6.68295C12.5181 6.43168 11.3101 6.44454 10.1492 6.7206C8.98831 6.99667 7.90386 7.52894 6.97531 8.27842C6.04677 9.0279 5.29765 9.97561 4.78283 11.0521C4.26801 12.1286 4.00054 13.3067 4 14.5C3.99737 15.636 4.23864 16.7593 4.7075 17.794C4.73598 17.854 4.75221 17.9191 4.75525 17.9854C4.75829 18.0518 4.74807 18.1181 4.7252 18.1805C4.70232 18.2428 4.66725 18.3 4.62202 18.3487C4.5768 18.3974 4.52233 18.4365 4.4618 18.4639C4.40128 18.4913 4.3359 18.5063 4.26949 18.5081C4.20309 18.5099 4.13698 18.4985 4.07504 18.4745C4.0131 18.4505 3.95657 18.4144 3.90874 18.3683C3.86092 18.3222 3.82276 18.267 3.7965 18.206C3.24436 16.9823 2.97294 15.6507 3.00213 14.3086C3.03132 12.9665 3.36037 11.6479 3.96519 10.4494C4.57001 9.25096 5.43527 8.20297 6.49758 7.38224C7.5599 6.5615 8.79236 5.98881 10.1047 5.7061C11.417 5.4234 12.776 5.43785 14.082 5.7484C15.388 6.05894 16.608 6.65772 17.6526 7.50086C18.6972 8.344 19.54 9.41015 20.1192 10.6212C20.6984 11.8323 20.9994 13.1575 21 14.5C21.0028 15.7781 20.7312 17.0419 20.2035 18.206C20.1638 18.2937 20.0997 18.3681 20.0188 18.4202C19.938 18.4724 19.8437 18.5001 19.7475 18.5Z" fill="#D5D5D5"/>
<path d="M4.25254 18.5C4.1563 18.5 4.06209 18.4724 3.9812 18.4202C3.90031 18.368 3.8362 18.2937 3.79654 18.206C3.04577 16.5415 2.81864 14.6882 3.14529 12.8918C3.47193 11.0953 4.33692 9.44057 5.62555 8.14697C5.71972 8.05575 5.84595 8.00517 5.97705 8.00612C6.10816 8.00707 6.23364 8.05947 6.32648 8.15205C6.41932 8.24463 6.47208 8.36996 6.4734 8.50107C6.47473 8.63217 6.4245 8.75854 6.33355 8.85297C5.18833 10.0029 4.4196 11.4737 4.12922 13.0704C3.83884 14.6672 4.04052 16.3145 4.70755 17.794C4.73457 17.8538 4.74954 17.9184 4.7516 17.984C4.75366 18.0497 4.74278 18.1151 4.71956 18.1765C4.69635 18.2379 4.66126 18.2942 4.6163 18.3421C4.57134 18.3899 4.5174 18.4285 4.45754 18.4555C4.3932 18.4848 4.32328 18.5 4.25254 18.5Z" fill="#6CC4F5"/>
<g filter="url(#filter0_d_353_1575)">
<path d="M13.0606 15.5605C12.9213 15.6998 12.7559 15.8103 12.5739 15.8857C12.3919 15.9611 12.1968 15.9999 11.9998 15.9999C11.8028 15.9999 11.6077 15.9611 11.4257 15.8857C11.2437 15.8103 11.0784 15.6998 10.9391 15.5605C10.5391 15.1605 5.66306 9.0105 5.10806 8.3105C5.03408 8.21414 4.9977 8.09414 5.00573 7.97292C5.01377 7.8517 5.06566 7.73755 5.15172 7.6518C5.23777 7.56605 5.35211 7.51456 5.47335 7.50696C5.5946 7.49936 5.71447 7.53616 5.81056 7.61049C6.51056 8.16549 12.6606 13.0415 13.0606 13.442C13.341 13.7232 13.4985 14.1041 13.4985 14.5012C13.4985 14.8984 13.341 15.2793 13.0606 15.5605Z" fill="#2C51D7"/>
</g>
<defs>
<filter id="filter0_d_353_1575" x="1.00464" y="7.50598" width="16.4939" height="16.4939" filterUnits="userSpaceOnUse" color-interpolation-filters="sRGB">
<feFlood flood-opacity="0" result="BackgroundImageFix"/>
<feColorMatrix in="SourceAlpha" type="matrix" values="0 0 0 0 0 0 0 0 0 0 0 0 0 0 0 0 0 0 127 0" result="hardAlpha"/>
<feOffset dy="4"/>
<feGaussianBlur stdDeviation="2"/>
<feComposite in2="hardAlpha" operator="out"/>
<feColorMatrix type="matrix" values="0 0 0 0 0 0 0 0 0 0 0 0 0 0 0 0 0 0 0.25 0"/>
<feBlend mode="normal" in2="BackgroundImageFix" result="effect1_dropShadow_353_1575"/>
<feBlend mode="normal" in="SourceGraphic" in2="effect1_dropShadow_353_1575" result="shape"/>
</filter>
</defs>
</svg>
