<svg width="90" height="90" viewBox="0 0 90 90" fill="none" xmlns="http://www.w3.org/2000/svg">
<path d="M44.9999 11.25C37.234 11.2479 29.6117 13.3434 22.9383 17.3152C16.2649 21.287 10.7881 26.9876 7.0867 33.8146C3.38526 40.6417 1.59656 48.3418 1.90955 56.1014C2.22254 63.861 4.62561 71.392 8.86488 77.8988C9.03509 78.1599 9.26773 78.3745 9.54175 78.5232C9.81577 78.6718 10.1225 78.7498 10.4343 78.75H79.5655C79.8772 78.7498 80.184 78.6718 80.458 78.5232C80.732 78.3745 80.9647 78.1599 81.1349 77.8988C85.3741 71.392 87.7772 63.861 88.0902 56.1014C88.4032 48.3418 86.6145 40.6417 82.9131 33.8146C79.2116 26.9876 73.7349 21.287 67.0615 17.3152C60.3881 13.3434 52.7658 11.2479 44.9999 11.25Z" fill="white"/>
<path d="M74.0531 69.375C73.7872 69.3754 73.5244 69.3185 73.2825 69.2081C73.058 69.1068 72.8557 68.9623 72.6872 68.7828C72.5186 68.6033 72.387 68.3923 72.2999 68.162C72.2129 67.9316 72.172 67.6864 72.1798 67.4403C72.1875 67.1941 72.2437 66.9519 72.345 66.7275C74.1855 62.6487 75.0902 58.2098 74.9929 53.7361C74.8956 49.2623 73.7987 44.867 71.7826 40.8721C69.7665 36.8772 66.8822 33.3839 63.3411 30.6482C59.8 27.9124 55.6918 26.0035 51.3173 25.0612C46.9428 24.1189 42.413 24.1671 38.0596 25.2024C33.7062 26.2376 29.6395 28.2336 26.1574 31.0442C22.6754 33.8547 19.8662 37.4086 17.9356 41.4456C16.005 45.4825 15.002 49.9002 15 54.375C14.9901 58.6349 15.8949 62.8473 17.6531 66.7275C17.7599 66.9526 17.8208 67.1966 17.8322 67.4455C17.8436 67.6944 17.8053 67.943 17.7195 68.1769C17.6337 68.4107 17.5022 68.6252 17.3326 68.8077C17.163 68.9902 16.9588 69.137 16.7318 69.2397C16.5048 69.3423 16.2596 69.3987 16.0106 69.4055C15.7616 69.4124 15.5137 69.3695 15.2814 69.2795C15.0491 69.1894 14.8371 69.054 14.6578 68.8811C14.4784 68.7082 14.3354 68.5013 14.2369 68.2725C12.1663 63.6839 11.1485 58.6902 11.258 53.6573C11.3674 48.6244 12.6014 43.6797 14.8695 39.1854C17.1375 34.6912 20.3822 30.7612 24.3659 27.6835C28.3496 24.6057 32.9714 22.4581 37.8926 21.398C42.8138 20.3378 47.9099 20.392 52.8074 21.5566C57.705 22.7211 62.28 24.9665 66.1973 28.1283C70.1147 31.2901 73.2751 35.2881 75.4471 39.8296C77.6191 44.371 78.7476 49.3409 78.75 54.375C78.7604 59.1679 77.7419 63.9071 75.7631 68.2725C75.6144 68.6013 75.374 68.8803 75.0707 69.0758C74.7673 69.2714 74.414 69.3753 74.0531 69.375Z" fill="#D5D5D5"/>
<path d="M15.9466 69.375C15.5857 69.3752 15.2323 69.2714 14.929 69.0758C14.6257 68.8802 14.3852 68.6013 14.2366 68.2725C11.4211 62.0309 10.5694 55.0809 11.7943 48.3442C13.0193 41.6075 16.263 35.4022 21.0953 30.5512C21.4484 30.2091 21.9218 30.0194 22.4135 30.023C22.9051 30.0266 23.3757 30.2231 23.7238 30.5703C24.072 30.9174 24.2698 31.3874 24.2748 31.8791C24.2797 32.3707 24.0914 32.8446 23.7503 33.1987C19.4558 37.511 16.573 43.0265 15.4841 49.0142C14.3952 55.002 15.1515 61.1793 17.6528 66.7275C17.7541 66.9519 17.8103 67.1941 17.818 67.4402C17.8258 67.6864 17.7849 67.9316 17.6979 68.162C17.6108 68.3923 17.4792 68.6033 17.3106 68.7827C17.1421 68.9622 16.9398 69.1068 16.7153 69.2081C16.474 69.3182 16.2118 69.3751 15.9466 69.375Z" fill="#6CC4F5"/>
<g filter="url(#filter0_d_292_1952)">
<path d="M48.9768 58.3519C48.4545 58.8743 47.8343 59.2887 47.1518 59.5715C46.4693 59.8542 45.7378 59.9997 44.999 59.9997C44.2602 59.9997 43.5287 59.8542 42.8462 59.5715C42.1637 59.2887 41.5435 58.8743 41.0212 58.3519C39.5212 56.8519 21.2362 33.7894 19.1549 31.1644C18.8775 30.803 18.7411 30.3531 18.7712 29.8985C18.8013 29.4439 18.9959 29.0158 19.3186 28.6943C19.6413 28.3727 20.0701 28.1796 20.5248 28.1511C20.9795 28.1226 21.429 28.2606 21.7893 28.5394C24.4143 30.6206 47.4768 48.9056 48.9768 50.4075C50.0285 51.462 50.6191 52.8904 50.6191 54.3797C50.6191 55.869 50.0285 57.2974 48.9768 58.3519Z" fill="#2C51D7"/>
</g>
<defs>
<filter id="filter0_d_292_1952" x="14.7671" y="28.1475" width="39.8521" height="39.8523" filterUnits="userSpaceOnUse" color-interpolation-filters="sRGB">
<feFlood flood-opacity="0" result="BackgroundImageFix"/>
<feColorMatrix in="SourceAlpha" type="matrix" values="0 0 0 0 0 0 0 0 0 0 0 0 0 0 0 0 0 0 127 0" result="hardAlpha"/>
<feOffset dy="4"/>
<feGaussianBlur stdDeviation="2"/>
<feComposite in2="hardAlpha" operator="out"/>
<feColorMatrix type="matrix" values="0 0 0 0 0 0 0 0 0 0 0 0 0 0 0 0 0 0 0.25 0"/>
<feBlend mode="normal" in2="BackgroundImageFix" result="effect1_dropShadow_292_1952"/>
<feBlend mode="normal" in="SourceGraphic" in2="effect1_dropShadow_292_1952" result="shape"/>
</filter>
</defs>
</svg>
