<svg width="90" height="90" viewBox="0 0 90 90" fill="none" xmlns="http://www.w3.org/2000/svg">
<g clip-path="url(#clip0_353_1618)">
<g filter="url(#filter0_d_353_1618)">
<rect x="3" y="6" width="84" height="78" fill="white" fill-opacity="0.2"/>
<g clip-path="url(#clip1_353_1618)">
<circle cx="45.5444" cy="45.2728" r="22" stroke="white" stroke-width="4"/>
<path d="M45.5444 16.9092V27.8183" stroke="#E86C60" stroke-width="4" stroke-linecap="round" stroke-linejoin="round"/>
<path d="M45.5444 62.7274V73.6364" stroke="#E86C60" stroke-width="4" stroke-linecap="round" stroke-linejoin="round"/>
<path d="M17.1807 45.2728L28.0898 45.2728" stroke="#E86C60" stroke-width="4" stroke-linecap="round" stroke-linejoin="round"/>
<path d="M62.999 45.2728L73.9081 45.2728" stroke="#E86C60" stroke-width="4" stroke-linecap="round" stroke-linejoin="round"/>
</g>
<path d="M67 84H83C85.2091 84 87 82.2091 87 80V64" stroke="white" stroke-width="3" stroke-linecap="round" stroke-linejoin="round"/>
<path d="M23 84H7C4.79086 84 3 82.2091 3 80V64" stroke="white" stroke-width="3" stroke-linecap="round" stroke-linejoin="round"/>
<path d="M67 6H83C85.2091 6 87 7.79086 87 10V26" stroke="white" stroke-width="3" stroke-linecap="round" stroke-linejoin="round"/>
<path d="M23 6H7C4.79086 6 3 7.79086 3 10V26" stroke="white" stroke-width="3" stroke-linecap="round" stroke-linejoin="round"/>
</g>
</g>
<defs>
<filter id="filter0_d_353_1618" x="-2.5" y="4.5" width="95" height="89" filterUnits="userSpaceOnUse" color-interpolation-filters="sRGB">
<feFlood flood-opacity="0" result="BackgroundImageFix"/>
<feColorMatrix in="SourceAlpha" type="matrix" values="0 0 0 0 0 0 0 0 0 0 0 0 0 0 0 0 0 0 127 0" result="hardAlpha"/>
<feOffset dy="4"/>
<feGaussianBlur stdDeviation="2"/>
<feComposite in2="hardAlpha" operator="out"/>
<feColorMatrix type="matrix" values="0 0 0 0 0 0 0 0 0 0 0 0 0 0 0 0 0 0 0.1 0"/>
<feBlend mode="normal" in2="BackgroundImageFix" result="effect1_dropShadow_353_1618"/>
<feBlend mode="normal" in="SourceGraphic" in2="effect1_dropShadow_353_1618" result="shape"/>
</filter>
<clipPath id="clip0_353_1618">
<rect width="90" height="90" fill="white"/>
</clipPath>
<clipPath id="clip1_353_1618">
<rect width="61.0909" height="61.0909" fill="white" transform="translate(14.999 14.7274)"/>
</clipPath>
</defs>
</svg>
