<svg width="24" height="24" viewBox="0 0 24 24" fill="none" xmlns="http://www.w3.org/2000/svg">
<path d="M19.9499 11.5H22.4999V3C22.4999 2.60218 22.3419 2.22064 22.0606 1.93934C21.7793 1.65804 21.3977 1.5 20.9999 1.5H12.4999V4.5C12.4999 4.56608 12.4868 4.63151 12.4614 4.6925C12.4359 4.75349 12.3987 4.80884 12.3517 4.85533C12.3048 4.90183 12.249 4.93855 12.1878 4.96339C12.1266 4.98822 12.061 5.00066 11.9949 5C11.708 5.00457 11.4282 5.08957 11.1873 5.24535C10.9463 5.40112 10.754 5.6214 10.6321 5.88111C10.5101 6.14083 10.4636 6.42956 10.4977 6.71443C10.5318 6.99931 10.6452 7.26889 10.8249 7.4925C10.9592 7.6687 11.1362 7.80776 11.3392 7.89656C11.5421 7.98535 11.7644 8.02096 11.9849 8C12.0518 7.99799 12.1185 8.00944 12.1809 8.03367C12.2433 8.05789 12.3002 8.09441 12.3482 8.14104C12.3962 8.18767 12.4344 8.24347 12.4605 8.30513C12.4865 8.36679 12.5 8.43306 12.4999 8.5V11.5H15.0499C15.1647 10.9349 15.4713 10.4268 15.9178 10.0618C16.3643 9.69686 16.9232 9.49749 17.4999 9.49749C18.0766 9.49749 18.6355 9.69686 19.082 10.0618C19.5286 10.4268 19.8352 10.9349 19.9499 11.5Z" fill="#B1FFB1"/>
<path d="M12.5 19.95V22.5H21C21.3978 22.5 21.7794 22.3419 22.0607 22.0606C22.342 21.7793 22.5 21.3978 22.5 21V12.5H19.5C19.4339 12.5 19.3685 12.4869 19.3075 12.4614C19.2465 12.436 19.1912 12.3987 19.1447 12.3518C19.0982 12.3048 19.0614 12.2491 19.0366 12.1879C19.0118 12.1266 18.9993 12.0611 19 11.995C18.9954 11.7081 18.9104 11.4283 18.7547 11.1873C18.5989 10.9464 18.3786 10.754 18.1189 10.6321C17.8592 10.5102 17.5704 10.4636 17.2856 10.4977C17.0007 10.5318 16.7311 10.6452 16.5075 10.825C16.3313 10.9593 16.1922 11.1363 16.1034 11.3392C16.0146 11.5422 15.979 11.7644 16 11.985C16.002 12.0519 15.9906 12.1185 15.9663 12.1809C15.9421 12.2433 15.9056 12.3002 15.859 12.3483C15.8123 12.3963 15.7565 12.4345 15.6949 12.4605C15.6332 12.4866 15.5669 12.5 15.5 12.5H12.5V15.05C13.0651 15.1647 13.5732 15.4713 13.9382 15.9179C14.3031 16.3644 14.5025 16.9233 14.5025 17.5C14.5025 18.0767 14.3031 18.6356 13.9382 19.0821C13.5732 19.5286 13.0651 19.8352 12.5 19.95Z" fill="white"/>
<path d="M11.5 4.05V1.5H3C2.60218 1.5 2.22064 1.65804 1.93934 1.93934C1.65804 2.22064 1.5 2.60218 1.5 3V11.5H4.5C4.56608 11.5 4.63151 11.5131 4.6925 11.5385C4.75349 11.564 4.80884 11.6012 4.85533 11.6482C4.90183 11.6952 4.93855 11.7509 4.96339 11.8121C4.98822 11.8734 5.00066 11.9389 5 12.005C5.00457 12.2919 5.08957 12.5717 5.24535 12.8126C5.40112 13.0536 5.6214 13.246 5.88111 13.3679C6.14083 13.4898 6.42956 13.5363 6.71443 13.5022C6.99931 13.4681 7.26889 13.3548 7.4925 13.175C7.6687 13.0407 7.80776 12.8637 7.89656 12.6608C7.98535 12.4578 8.02096 12.2355 8 12.015C7.99799 11.9481 8.00944 11.8815 8.03367 11.819C8.05789 11.7566 8.09441 11.6997 8.14104 11.6517C8.18767 11.6037 8.24347 11.5655 8.30513 11.5394C8.36679 11.5134 8.43306 11.5 8.5 11.5H11.5V8.95C10.9349 8.83524 10.4268 8.52864 10.0618 8.08213C9.69686 7.63562 9.49749 7.07668 9.49749 6.5C9.49749 5.92332 9.69686 5.36438 10.0618 4.91787C10.4268 4.47136 10.9349 4.16476 11.5 4.05Z" fill="#EEFF83"/>
<path d="M4.05 12.5H1.5V21C1.5 21.3978 1.65804 21.7794 1.93934 22.0607C2.22064 22.342 2.60218 22.5 3 22.5H11.5V19.5C11.5 19.4339 11.5131 19.3685 11.5385 19.3075C11.564 19.2465 11.6012 19.1912 11.6482 19.1447C11.6952 19.0982 11.7509 19.0614 11.8121 19.0366C11.8734 19.0118 11.9389 18.9993 12.005 19C12.2919 18.9954 12.5717 18.9104 12.8126 18.7547C13.0536 18.5989 13.246 18.3786 13.3679 18.1189C13.4898 17.8592 13.5363 17.5704 13.5022 17.2856C13.4681 17.0007 13.3548 16.7311 13.175 16.5075C13.0407 16.3313 12.8637 16.1922 12.6608 16.1034C12.4578 16.0146 12.2355 15.979 12.015 16C11.9481 16.002 11.8815 15.9906 11.819 15.9663C11.7566 15.9421 11.6997 15.9056 11.6517 15.859C11.6037 15.8123 11.5655 15.7565 11.5394 15.6949C11.5134 15.6332 11.5 15.5669 11.5 15.5V12.5H8.95C8.83524 13.0651 8.52864 13.5732 8.08213 13.9382C7.63562 14.3031 7.07668 14.5025 6.5 14.5025C5.92332 14.5025 5.36438 14.3031 4.91787 13.9382C4.47136 13.5732 4.16476 13.0651 4.05 12.5Z" fill="#A6D4FF"/>
</svg>
