<svg width="24" height="24" viewBox="0 0 24 24" fill="none" xmlns="http://www.w3.org/2000/svg">
<path d="M22.2413 9.81159L19.6057 9.59316C19.4316 8.95154 19.1759 8.33494 18.8447 7.75849L20.5564 5.73554C20.6316 5.64675 20.6706 5.53296 20.6658 5.41673C20.661 5.30051 20.6127 5.19033 20.5305 5.10806L18.5585 3.14029C18.4763 3.05806 18.3661 3.00975 18.2499 3.00493C18.1336 3.00012 18.0198 3.03917 17.931 3.11432L15.9086 4.82562C15.3319 4.49356 14.7152 4.23656 14.0734 4.06087L13.855 1.42528C13.8453 1.30907 13.7922 1.20077 13.7063 1.12196C13.6203 1.04314 13.5078 0.9996 13.3912 1H10.6086C10.492 0.9996 10.3795 1.04314 10.2936 1.12196C10.2076 1.20077 10.1545 1.30907 10.1448 1.42528L9.92641 4.06087C9.28479 4.23495 8.66819 4.49072 8.09175 4.82191L6.06879 3.112C5.98 3.03685 5.86621 2.99781 5.74999 3.00262C5.63376 3.00743 5.52359 3.05574 5.44131 3.13797L3.47354 5.10806C3.39131 5.19033 3.343 5.30051 3.33819 5.41673C3.33338 5.53296 3.37242 5.64675 3.44757 5.73554L5.15888 7.75803C4.82681 8.33466 4.56981 8.95136 4.39412 9.59316L1.75853 9.81159C1.64232 9.82127 1.53402 9.87437 1.45521 9.96032C1.3764 10.0463 1.33285 10.1588 1.33325 10.2754V13.058C1.33285 13.1746 1.3764 13.2871 1.45521 13.373C1.53402 13.459 1.64232 13.5121 1.75853 13.5217L4.39598 13.742C4.57005 14.3836 4.82583 15.0002 5.15702 15.5767L3.44525 17.5978C3.3701 17.6866 3.33106 17.8004 3.33587 17.9166C3.34068 18.0328 3.38899 18.143 3.47123 18.2253L5.43899 20.193C5.52124 20.2751 5.63132 20.3234 5.74744 20.3282C5.86356 20.333 5.97725 20.294 6.06601 20.219L8.08896 18.5077C8.66621 18.8402 9.28374 19.0972 9.92641 19.2725L10.1448 21.9081C10.1545 22.0243 10.2076 22.1326 10.2936 22.2114C10.3795 22.2902 10.492 22.3337 10.6086 22.3333H13.3912C13.5078 22.3337 13.6203 22.2902 13.7063 22.2114C13.7922 22.1326 13.8453 22.0243 13.855 21.9081L14.0757 19.2688C14.7171 19.0941 15.3335 18.8382 15.9099 18.5072L17.9329 20.219C18.0217 20.2942 18.1355 20.3332 18.2517 20.3284C18.3679 20.3236 18.4781 20.2753 18.5604 20.193L20.5281 18.2253C20.6104 18.143 20.6587 18.0328 20.6635 17.9166C20.6683 17.8004 20.6293 17.6866 20.5541 17.5978L18.8428 15.5753C19.174 14.9985 19.4304 14.3818 19.6057 13.7402L22.2413 13.5217C22.3575 13.5121 22.4658 13.459 22.5446 13.373C22.6234 13.2871 22.667 13.1746 22.6666 13.058V10.2754C22.667 10.1588 22.6234 10.0463 22.5446 9.96032C22.4658 9.87437 22.3575 9.82127 22.2413 9.81159ZM11.9999 14.913C11.3578 14.913 10.7302 14.7226 10.1963 14.3659C9.66246 14.0092 9.24637 13.5022 9.00066 12.909C8.75495 12.3158 8.69066 11.6631 8.81592 11.0333C8.94118 10.4036 9.25037 9.82515 9.70438 9.37113C10.1584 8.91712 10.7368 8.60793 11.3666 8.48267C11.9963 8.35741 12.6491 8.4217 13.2423 8.66741C13.8354 8.91312 14.3425 9.32921 14.6992 9.86308C15.0559 10.3969 15.2463 11.0246 15.2463 11.6667C15.2463 12.5277 14.9043 13.3534 14.2955 13.9622C13.6866 14.571 12.8609 14.913 11.9999 14.913Z" fill="white"/>
<circle cx="11.9998" cy="12" r="3.36501" fill="#3D485E"/>
<path d="M12 7.3623C11.0827 7.3623 10.1861 7.6343 9.42343 8.14389C8.66077 8.65349 8.06634 9.3778 7.71533 10.2252C7.36431 11.0726 7.27247 12.0051 7.45142 12.9048C7.63036 13.8044 8.07206 14.6307 8.72065 15.2793C9.36924 15.9279 10.1956 16.3696 11.0952 16.5486C11.9948 16.7275 12.9273 16.6357 13.7747 16.2846C14.6222 15.9336 15.3465 15.3392 15.8561 14.5765C16.3657 13.8139 16.6377 12.9172 16.6377 12C16.6377 10.77 16.1491 9.59038 15.2793 8.72065C14.4096 7.85092 13.23 7.3623 12 7.3623V7.3623ZM12 15.2464C11.3579 15.2464 10.7303 15.056 10.1964 14.6992C9.66253 14.3425 9.24644 13.8355 9.00073 13.2423C8.75502 12.6491 8.69073 11.9964 8.81599 11.3666C8.94125 10.7369 9.25044 10.1585 9.70445 9.70445C10.1585 9.25044 10.7369 8.94125 11.3666 8.81599C11.9964 8.69072 12.6491 8.75501 13.2423 9.00072C13.8355 9.24643 14.3425 9.66253 14.6992 10.1964C15.056 10.7303 15.2464 11.3579 15.2464 12C15.2464 12.861 14.9043 13.6867 14.2955 14.2955C13.6867 14.9043 12.861 15.2464 12 15.2464V15.2464Z" fill="#949494"/>
</svg>
