<svg width="24" height="24" viewBox="0 0 24 24" fill="none" xmlns="http://www.w3.org/2000/svg">
<path d="M16.5 22H13.5C13.3674 22 13.2402 21.9473 13.1464 21.8536C13.0527 21.7598 13 21.6326 13 21.5V16.5C13 16.3674 13.0527 16.2402 13.1464 16.1464C13.2402 16.0527 13.3674 16 13.5 16H16.5C16.6326 16 16.7598 16.0527 16.8536 16.1464C16.9473 16.2402 17 16.3674 17 16.5V21.5C17 21.6326 16.9473 21.7598 16.8536 21.8536C16.7598 21.9473 16.6326 22 16.5 22Z" fill="#EEFF83"/>
<path d="M21 2C20.4696 2 19.9609 2.21071 19.5858 2.58579C19.2107 2.96086 19 3.46957 19 4C19.0017 4.356 19.0995 4.70493 19.283 5.01L16.01 8.283C15.7056 8.09792 15.3562 8.00003 15 8.00003C14.6438 8.00003 14.2944 8.09792 13.99 8.283L10.717 5.01C10.9005 4.70493 10.9983 4.356 11 4C11 3.46957 10.7893 2.96086 10.4142 2.58579C10.0391 2.21071 9.53043 2 9 2C8.46957 2 7.96086 2.21071 7.58579 2.58579C7.21071 2.96086 7 3.46957 7 4C7.00175 4.356 7.09952 4.70493 7.283 5.01L4.01 8.283C3.70493 8.09952 3.356 8.00175 3 8C2.60444 8 2.21776 8.1173 1.88886 8.33706C1.55996 8.55682 1.30362 8.86918 1.15224 9.23463C1.00087 9.60009 0.96126 10.0022 1.03843 10.3902C1.1156 10.7781 1.30608 11.1345 1.58579 11.4142C1.86549 11.6939 2.22186 11.8844 2.60982 11.9616C2.99778 12.0387 3.39992 11.9991 3.76537 11.8478C4.13082 11.6964 4.44318 11.44 4.66294 11.1111C4.8827 10.7822 5 10.3956 5 10C4.99825 9.644 4.90048 9.29507 4.717 8.99L7.99 5.717C8.29438 5.90208 8.64377 5.99997 9 5.99997C9.35623 5.99997 9.70562 5.90208 10.01 5.717L13.283 8.99C13.0995 9.29507 13.0017 9.644 13 10C13 10.5304 13.2107 11.0391 13.5858 11.4142C13.9609 11.7893 14.4696 12 15 12C15.5304 12 16.0391 11.7893 16.4142 11.4142C16.7893 11.0391 17 10.5304 17 10C16.9983 9.644 16.9005 9.29507 16.717 8.99L19.99 5.717C20.2951 5.90048 20.644 5.99825 21 6C21.5304 6 22.0391 5.78929 22.4142 5.41421C22.7893 5.03914 23 4.53043 23 4C23 3.46957 22.7893 2.96086 22.4142 2.58579C22.0391 2.21071 21.5304 2 21 2Z" fill="white"/>
<path d="M4.5 22H1.5C1.36739 22 1.24021 21.9473 1.14645 21.8536C1.05268 21.7598 1 21.6326 1 21.5V16.5C1 16.3674 1.05268 16.2402 1.14645 16.1464C1.24021 16.0527 1.36739 16 1.5 16H4.5C4.63261 16 4.75979 16.0527 4.85355 16.1464C4.94732 16.2402 5 16.3674 5 16.5V21.5C5 21.6326 4.94732 21.7598 4.85355 21.8536C4.75979 21.9473 4.63261 22 4.5 22Z" fill="#EEFF83"/>
<path d="M10.5 22H7.5C7.36739 22 7.24021 21.9473 7.14645 21.8536C7.05268 21.7598 7 21.6326 7 21.5V10.5C7 10.3674 7.05268 10.2402 7.14645 10.1464C7.24021 10.0527 7.36739 10 7.5 10H10.5C10.6326 10 10.7598 10.0527 10.8536 10.1464C10.9473 10.2402 11 10.3674 11 10.5V21.5C11 21.6326 10.9473 21.7598 10.8536 21.8536C10.7598 21.9473 10.6326 22 10.5 22Z" fill="#7CF9AE"/>
<path d="M22.5 22H19.5C19.3674 22 19.2402 21.9473 19.1464 21.8536C19.0527 21.7598 19 21.6326 19 21.5V11.5C19 11.3674 19.0527 11.2402 19.1464 11.1464C19.2402 11.0527 19.3674 11 19.5 11H22.5C22.6326 11 22.7598 11.0527 22.8536 11.1464C22.9473 11.2402 23 11.3674 23 11.5V21.5C23 21.6326 22.9473 21.7598 22.8536 21.8536C22.7598 21.9473 22.6326 22 22.5 22Z" fill="#7CF9AE"/>
</svg>
