<svg width="90" height="90" viewBox="0 0 90 90" fill="none" xmlns="http://www.w3.org/2000/svg">
<g clip-path="url(#clip0_292_1875)">
<g filter="url(#filter0_d_292_1875)">
<path d="M69.4031 73.3148C69.2362 73.3154 69.0701 73.2928 68.9095 73.2475C68.4321 73.1164 68.0262 72.8012 67.7808 72.3711C67.5355 71.9411 67.4708 71.4313 67.6008 70.9535L74.8921 44.2431C75.0223 43.7646 75.3372 43.3574 75.7676 43.1111C76.1979 42.8648 76.7085 42.7995 77.187 42.9297C77.6655 43.0599 78.0727 43.3748 78.319 43.8051C78.5653 44.2355 78.6306 44.7461 78.5004 45.2246L71.2091 71.9351C71.1015 72.3315 70.8663 72.6815 70.5398 72.9309C70.2134 73.1803 69.8139 73.3152 69.4031 73.3148Z" fill="#BAFAC8"/>
<path d="M59.9569 80.5214H30.0439C29.548 80.5214 29.0725 80.3244 28.7219 79.9738C28.3713 79.6232 28.1743 79.1476 28.1743 78.6518C28.1743 78.156 28.3713 77.6804 28.7219 77.3298C29.0725 76.9792 29.548 76.7822 30.0439 76.7822H59.9569C60.4528 76.7822 60.9283 76.9792 61.2789 77.3298C61.6295 77.6804 61.8265 78.156 61.8265 78.6518C61.8265 79.1476 61.6295 79.6232 61.2789 79.9738C60.9283 80.3244 60.4528 80.5214 59.9569 80.5214Z" fill="#BAFAC8"/>
<path d="M20.5961 73.3145C20.186 73.3141 19.7873 73.1788 19.4617 72.9294C19.136 72.6801 18.9013 72.3306 18.7939 71.9348L11.5026 45.2262C11.3724 44.7477 11.4377 44.2371 11.684 43.8067C11.9303 43.3763 12.3375 43.0614 12.8159 42.9313C13.2944 42.8011 13.805 42.8664 14.2354 43.1127C14.6658 43.359 14.9807 43.7662 15.1108 44.2447L22.4021 70.9533C22.5322 71.431 22.4675 71.9408 22.2221 72.3709C21.9768 72.8009 21.5709 73.1161 21.0934 73.2472C20.9316 73.2928 20.7642 73.3155 20.5961 73.3145Z" fill="#BAFAC8"/>
<path d="M17.2462 34.8053C16.8566 34.8056 16.4767 34.6841 16.1595 34.4579C15.8423 34.2317 15.6037 33.912 15.477 33.5436C15.3504 33.1751 15.342 32.7763 15.453 32.4029C15.5641 32.0295 15.789 31.7001 16.0964 31.4607L37.9498 14.4626C38.341 14.1579 38.8372 14.0211 39.3293 14.0823C39.8214 14.1435 40.269 14.3976 40.5737 14.7888C40.8784 15.1801 41.0152 15.6763 40.954 16.1684C40.8928 16.6605 40.6387 17.1081 40.2474 17.4128L18.3941 34.4109C18.0664 34.6671 17.6622 34.806 17.2462 34.8053Z" fill="#BAFAC8"/>
<path d="M44.9999 43.1306C44.5041 43.1306 44.0286 42.9336 43.678 42.583C43.3273 42.2324 43.1304 41.7569 43.1304 41.261V18.8262C43.1304 18.3304 43.3273 17.8549 43.678 17.5042C44.0286 17.1536 44.5041 16.9567 44.9999 16.9567C45.4958 16.9567 45.9713 17.1536 46.3219 17.5042C46.6725 17.8549 46.8695 18.3304 46.8695 18.8262V41.261C46.8695 41.7569 46.6725 42.2324 46.3219 42.583C45.9713 42.9336 45.4958 43.1306 44.9999 43.1306Z" fill="#BAFAC8"/>
<path d="M27.2389 74.6849C26.8953 74.6844 26.5584 74.5892 26.2654 74.4098C25.9723 74.2303 25.7344 73.9736 25.5777 73.6678C25.421 73.362 25.3517 73.0189 25.3773 72.6762C25.4028 72.3335 25.5223 72.0046 25.7227 71.7254L38.819 53.4859C39.108 53.083 39.5453 52.8115 40.0346 52.731C40.5239 52.6506 41.0251 52.7678 41.428 53.0568C41.8308 53.3459 42.1024 53.7832 42.1828 54.2725C42.2633 54.7617 42.1461 55.2629 41.857 55.6658L28.7532 73.9053C28.5806 74.1459 28.3533 74.342 28.09 74.4776C27.8267 74.6131 27.535 74.6842 27.2389 74.6849Z" fill="#BAFAC8"/>
<path d="M45 20.6956C44.7569 20.6986 44.5156 20.6542 44.2896 20.5648C44.0623 20.4631 43.8538 20.3241 43.6726 20.1535C43.508 19.9713 43.3753 19.7628 43.28 19.5365C43.1752 19.3147 43.124 19.0713 43.1304 18.8261C43.1364 18.3309 43.3302 17.8564 43.6726 17.4987C43.9355 17.2393 44.2694 17.0635 44.632 16.9937C44.9947 16.9238 45.37 16.9629 45.7104 17.1061C45.9367 17.2014 46.1452 17.3341 46.3274 17.4987C46.669 17.857 46.8627 18.3311 46.8696 18.8261C46.8702 19.3226 46.6754 19.7994 46.3274 20.1535C46.146 20.3238 45.9375 20.4628 45.7104 20.5648C45.4844 20.6542 45.2431 20.6986 45 20.6956Z" fill="#B7E3FC"/>
<path d="M62.7606 74.6849C62.4633 74.6853 62.1701 74.6148 61.9054 74.4793C61.6407 74.3437 61.4122 74.1469 61.2388 73.9053L48.1519 55.6658C48.0087 55.4663 47.9063 55.2406 47.8504 55.0015C47.7945 54.7625 47.7862 54.5147 47.8261 54.2724C47.8659 54.0302 47.9531 53.7981 48.0826 53.5896C48.2121 53.381 48.3814 53.2 48.5809 53.0568C48.7804 52.9137 49.0061 52.8112 49.2452 52.7553C49.4843 52.6994 49.732 52.6912 49.9743 52.731C50.2165 52.7709 50.4486 52.858 50.6572 52.9876C50.8657 53.1171 51.0468 53.2864 51.1899 53.4859L64.2769 71.7254C64.4772 72.0045 64.5967 72.3335 64.6223 72.6762C64.6478 73.0189 64.5785 73.362 64.4218 73.6678C64.2651 73.9736 64.0272 74.2303 63.7341 74.4098C63.4411 74.5892 63.1043 74.6844 62.7606 74.6849Z" fill="#BAFAC8"/>
<path d="M51.9665 47.9013C51.5171 47.9011 51.0828 47.7391 50.7431 47.4448C50.4034 47.1506 50.1811 46.7438 50.1169 46.299C50.0526 45.8543 50.1507 45.4012 50.3932 45.0229C50.6357 44.6445 51.0064 44.3662 51.4374 44.2388L71.1557 38.4432C71.6273 38.3158 72.13 38.378 72.5563 38.6166C72.9826 38.8552 73.2986 39.2512 73.4366 39.7198C73.5746 40.1884 73.5238 40.6924 73.2949 41.124C73.066 41.5555 72.6773 41.8804 72.212 42.029L52.4937 47.8246C52.3226 47.8754 52.145 47.9013 51.9665 47.9013Z" fill="#BAFAC8"/>
<path d="M72.7534 34.8053C72.3373 34.806 71.9331 34.6671 71.6054 34.4109L49.7521 17.4128C49.5584 17.2619 49.3963 17.0744 49.275 16.8608C49.1538 16.6473 49.0758 16.412 49.0455 16.1684C49.0152 15.9247 49.0332 15.6775 49.0985 15.4408C49.1637 15.2041 49.275 14.9825 49.4259 14.7888C49.5767 14.5951 49.7643 14.433 49.9778 14.3118C50.1913 14.1906 50.4266 14.1126 50.6703 14.0823C50.9139 14.052 51.1611 14.07 51.3978 14.1352C51.6345 14.2005 51.8561 14.3117 52.0498 14.4626L73.9031 31.4607C74.2105 31.7 74.4355 32.0295 74.5465 32.4029C74.6575 32.7763 74.6492 33.1751 74.5225 33.5436C74.3958 33.912 74.1572 34.2316 73.8401 34.4579C73.5229 34.6841 73.1429 34.8056 72.7534 34.8053Z" fill="#BAFAC8"/>
<path d="M38.0341 47.9013C37.8556 47.9011 37.6781 47.8752 37.5069 47.8246L17.7886 42.029C17.3232 41.8804 16.9345 41.5555 16.7057 41.124C16.4768 40.6924 16.4259 40.1884 16.564 39.7198C16.702 39.2512 17.018 38.8552 17.4443 38.6166C17.8706 38.378 18.3733 38.3158 18.8449 38.4432L38.5632 44.2388C38.9942 44.3662 39.3649 44.6445 39.6074 45.0229C39.8499 45.4012 39.948 45.8543 39.8837 46.299C39.8195 46.7438 39.5971 47.1506 39.2575 47.4448C38.9178 47.7391 38.4835 47.9011 38.0341 47.9013Z" fill="#BAFAC8"/>
<path d="M44.9996 57.5871C43.2498 57.587 41.5394 57.0681 40.0846 56.096C38.6296 55.1238 37.4955 53.742 36.8258 52.1252C36.1562 50.5085 35.981 48.7295 36.3224 47.0132C36.6638 45.2969 37.5064 43.7203 38.7438 42.483C39.9812 41.2456 41.5577 40.4029 43.274 40.0615C44.9904 39.7201 46.7694 39.8953 48.3861 40.565C50.0028 41.2347 51.3847 42.3687 52.3569 43.8237C53.329 45.2786 53.8479 46.989 53.848 48.7387C53.8452 51.0846 52.9121 53.3336 51.2533 54.9924C49.5945 56.6512 47.3455 57.5843 44.9996 57.5871Z" fill="white" stroke="#E6F8ED"/>
<path d="M44.9996 20.1957C43.2498 20.1955 41.5394 19.6766 40.0846 18.7045C38.6296 17.7323 37.4955 16.3505 36.8258 14.7337C36.1562 13.117 35.981 11.338 36.3224 9.62171C36.6638 7.9054 37.5064 6.32886 38.7438 5.09147C39.9812 3.85408 41.5577 3.01141 43.274 2.67001C44.9904 2.32862 46.7694 2.50383 48.3861 3.1735C50.0028 3.84318 51.3847 4.97722 52.3569 6.43224C53.329 7.88709 53.8479 9.59751 53.848 11.3472C53.8452 13.6931 52.9121 15.9421 51.2533 17.6009C49.5945 19.2597 47.3455 20.1928 44.9996 20.1957Z" fill="white" stroke="#E6F8ED"/>
<path d="M78.6519 46.3696C76.9022 46.3695 75.1918 45.8506 73.7369 44.8785C72.2819 43.9063 71.1479 42.5244 70.4782 40.9077C69.8085 39.291 69.6333 37.512 69.9747 35.7957C70.3161 34.0793 71.1588 32.5028 72.3962 31.2654C73.6336 30.028 75.2101 29.1854 76.9264 28.844C78.6427 28.5026 80.4217 28.6778 82.0384 29.3475C83.6552 30.0171 85.037 31.1512 86.0092 32.6062C86.9813 34.061 87.5002 35.7715 87.5003 37.5212C87.4975 39.8671 86.5644 42.1161 84.9056 43.7749C83.2468 45.4337 80.9978 46.3668 78.6519 46.3696Z" fill="white" stroke="#E6F8ED"/>
<path d="M11.3472 46.3696C9.5975 46.3695 7.8871 45.8506 6.43224 44.8785C4.97722 43.9063 3.84318 42.5244 3.1735 40.9077C2.50383 39.291 2.32862 37.512 2.67001 35.7957C3.01141 34.0793 3.85408 32.5028 5.09147 31.2654C6.32886 30.028 7.9054 29.1854 9.62171 28.844C11.338 28.5026 13.117 28.6778 14.7337 29.3475C16.3505 30.0171 17.7323 31.1512 18.7045 32.6062C19.6766 34.061 20.1955 35.7715 20.1957 37.5212C20.1928 39.8671 19.2597 42.1161 17.6009 43.7749C15.9421 45.4337 13.6931 46.3668 11.3472 46.3696Z" fill="white" stroke="#E6F8ED"/>
<path d="M22.5645 87.5C20.8148 87.4999 19.1044 86.981 17.6495 86.0089C16.1945 85.0366 15.0605 83.6548 14.3908 82.0381C13.7211 80.4213 13.5459 78.6423 13.8873 76.926C14.2287 75.2097 15.0714 73.6332 16.3088 72.3958C17.5461 71.1584 19.1227 70.3157 20.839 69.9743C22.5553 69.6329 24.3343 69.8082 25.951 70.4778C27.5678 71.1475 28.9496 72.2815 29.9218 73.7366C30.8939 75.1914 31.4128 76.9018 31.4129 78.6516C31.4101 80.9974 30.477 83.2464 28.8182 84.9052C27.1594 86.564 24.9104 87.4972 22.5645 87.5Z" fill="white" stroke="#E6F8ED"/>
<path d="M67.4341 87.5C65.6844 87.4999 63.974 86.981 62.5192 86.0089C61.0641 85.0366 59.9301 83.6548 59.2604 82.0381C58.5907 80.4213 58.4155 78.6423 58.7569 76.926C59.0983 75.2097 59.941 73.6332 61.1784 72.3958C62.4158 71.1584 63.9923 70.3157 65.7086 69.9743C67.4249 69.6329 69.2039 69.8082 70.8207 70.4778C72.4374 71.1475 73.8192 72.2815 74.7914 73.7366C75.7635 75.1914 76.2825 76.9018 76.2826 78.6516C76.2798 80.9974 75.3466 83.2464 73.6878 84.9052C72.029 86.564 69.78 87.4972 67.4341 87.5Z" fill="white" stroke="#E6F8ED"/>
</g>
</g>
<defs>
<filter id="filter0_d_292_1875" x="-2" y="2" width="94.0005" height="94" filterUnits="userSpaceOnUse" color-interpolation-filters="sRGB">
<feFlood flood-opacity="0" result="BackgroundImageFix"/>
<feColorMatrix in="SourceAlpha" type="matrix" values="0 0 0 0 0 0 0 0 0 0 0 0 0 0 0 0 0 0 127 0" result="hardAlpha"/>
<feOffset dy="4"/>
<feGaussianBlur stdDeviation="2"/>
<feComposite in2="hardAlpha" operator="out"/>
<feColorMatrix type="matrix" values="0 0 0 0 0.307292 0 0 0 0 0.7375 0 0 0 0 0.530078 0 0 0 1 0"/>
<feBlend mode="normal" in2="BackgroundImageFix" result="effect1_dropShadow_292_1875"/>
<feBlend mode="normal" in="SourceGraphic" in2="effect1_dropShadow_292_1875" result="shape"/>
</filter>
<clipPath id="clip0_292_1875">
<rect width="90" height="90" fill="white"/>
</clipPath>
</defs>
</svg>
