<svg width="90" height="90" viewBox="0 0 90 90" fill="none" xmlns="http://www.w3.org/2000/svg">
<g clip-path="url(#clip0_292_1932)">
<g filter="url(#filter0_d_292_1932)">
<path d="M75.9108 43.7202H85.625V11.3393C85.625 9.82376 85.023 8.37031 83.9514 7.29868C82.8797 6.22704 81.4263 5.625 79.9108 5.625H47.5298V17.0536C47.5298 17.3053 47.4799 17.5546 47.383 17.7869C47.2861 18.0193 47.1441 18.2301 46.9652 18.4072C46.7863 18.5843 46.5741 18.7243 46.3408 18.8188C46.1075 18.9134 45.8577 18.9609 45.606 18.9583C44.5132 18.9757 43.4471 19.2996 42.5293 19.893C41.6114 20.4864 40.8786 21.3256 40.4141 22.315C39.9497 23.3044 39.7723 24.4043 39.9022 25.4895C40.0321 26.5747 40.464 27.6017 41.1489 28.4536C41.6604 29.1248 42.3347 29.6546 43.1079 29.9928C43.8811 30.3311 44.7277 30.4667 45.5679 30.3869C45.8228 30.3793 46.0767 30.4229 46.3144 30.5152C46.5521 30.6075 46.7689 30.7465 46.9519 30.9242C47.1348 31.1018 47.2803 31.3144 47.3795 31.5493C47.4788 31.7842 47.5299 32.0366 47.5298 32.2917V43.7202H57.2441C57.6813 41.5673 58.8493 39.6317 60.5503 38.2414C62.2512 36.8511 64.3806 36.0916 66.5774 36.0916C68.7743 36.0916 70.9036 36.8511 72.6046 38.2414C74.3056 39.6317 75.4736 41.5673 75.9108 43.7202Z" fill="#B1FFB1"/>
</g>
<g filter="url(#filter1_d_292_1932)">
<path d="M47.5298 75.9107V85.625H79.9107C81.4263 85.625 82.8797 85.0229 83.9513 83.9513C85.023 82.8797 85.625 81.4262 85.625 79.9107V47.5297H74.1965C73.9447 47.5298 73.6955 47.4799 73.4631 47.383C73.2308 47.286 73.0199 47.144 72.8428 46.9651C72.6657 46.7862 72.5258 46.574 72.4312 46.3407C72.3366 46.1074 72.2892 45.8577 72.2917 45.6059C72.2743 44.5131 71.9505 43.4471 71.357 42.5292C70.7636 41.6113 69.9245 40.8785 68.9351 40.4141C67.9457 39.9496 66.8458 39.7723 65.7605 39.9022C64.6753 40.032 63.6483 40.464 62.7965 41.1488C62.1252 41.6604 61.5955 42.3346 61.2572 43.1078C60.9189 43.881 60.7833 44.7277 60.8631 45.5678C60.8708 45.8227 60.8272 46.0766 60.7349 46.3143C60.6426 46.5521 60.5035 46.7688 60.3258 46.9518C60.1482 47.1348 59.9356 47.2802 59.7007 47.3795C59.4658 47.4788 59.2134 47.5299 58.9584 47.5297H47.5298V57.244C49.6827 57.6812 51.6183 58.8492 53.0086 60.5502C54.3989 62.2512 55.1584 64.3805 55.1584 66.5774C55.1584 68.7742 54.3989 70.9035 53.0086 72.6045C51.6183 74.3055 49.6827 75.4735 47.5298 75.9107Z" fill="white"/>
</g>
<g filter="url(#filter2_d_292_1932)">
<path d="M43.7202 15.3393V5.625H11.3393C9.82376 5.625 8.37031 6.22704 7.29868 7.29868C6.22704 8.37031 5.625 9.82376 5.625 11.3393V43.7202H17.0536C17.3053 43.7202 17.5546 43.7701 17.7869 43.867C18.0193 43.9639 18.2301 44.1059 18.4072 44.2848C18.5843 44.4637 18.7243 44.676 18.8188 44.9093C18.9134 45.1426 18.9609 45.3923 18.9583 45.644C18.9757 46.7369 19.2996 47.8029 19.893 48.7208C20.4864 49.6386 21.3256 50.3715 22.315 50.8359C23.3044 51.3004 24.4043 51.4777 25.4895 51.3478C26.5747 51.2179 27.6017 50.786 28.4536 50.1012C29.1248 49.5896 29.6546 48.9154 29.9928 48.1422C30.3311 47.369 30.4667 46.5223 30.3869 45.6821C30.3793 45.4272 30.4229 45.1734 30.5152 44.9357C30.6075 44.6979 30.7465 44.4811 30.9242 44.2982C31.1018 44.1152 31.3144 43.9698 31.5493 43.8705C31.7842 43.7712 32.0366 43.7201 32.2917 43.7202H43.7202V34.0059C41.5673 33.5688 39.6317 32.4008 38.2414 30.6998C36.8511 28.9988 36.0916 26.8695 36.0916 24.6726C36.0916 22.4757 36.8511 20.3464 38.2414 18.6455C39.6317 16.9445 41.5673 15.7765 43.7202 15.3393Z" fill="#EEFF83"/>
</g>
<g filter="url(#filter3_d_292_1932)">
<path d="M15.3393 47.5298H5.625V79.9108C5.625 81.4263 6.22704 82.8798 7.29868 83.9514C8.37031 85.023 9.82376 85.6251 11.3393 85.6251H43.7202V74.1965C43.7202 73.9448 43.7701 73.6955 43.867 73.4632C43.9639 73.2308 44.1059 73.02 44.2848 72.8429C44.4637 72.6657 44.676 72.5258 44.9093 72.4312C45.1426 72.3366 45.3923 72.2892 45.644 72.2918C46.7369 72.2744 47.8029 71.9505 48.7208 71.3571C49.6386 70.7637 50.3715 69.9245 50.8359 68.9351C51.3004 67.9457 51.4777 66.8458 51.3478 65.7606C51.2179 64.6753 50.786 63.6484 50.1012 62.7965C49.5896 62.1253 48.9154 61.5955 48.1422 61.2573C47.369 60.919 46.5223 60.7834 45.6821 60.8632C45.4272 60.8708 45.1734 60.8272 44.9357 60.7349C44.6979 60.6426 44.4811 60.5035 44.2982 60.3259C44.1152 60.1483 43.9698 59.9357 43.8705 59.7008C43.7712 59.4659 43.7201 59.2134 43.7202 58.9584V47.5298H34.0059C33.5688 49.6828 32.4008 51.6184 30.6998 53.0087C28.9988 54.399 26.8695 55.1584 24.6726 55.1584C22.4757 55.1584 20.3464 54.399 18.6455 53.0087C16.9445 51.6184 15.7765 49.6828 15.3393 47.5298Z" fill="#A6D4FF"/>
</g>
</g>
<defs>
<filter id="filter0_d_292_1932" x="35.8608" y="5.625" width="53.7642" height="46.0952" filterUnits="userSpaceOnUse" color-interpolation-filters="sRGB">
<feFlood flood-opacity="0" result="BackgroundImageFix"/>
<feColorMatrix in="SourceAlpha" type="matrix" values="0 0 0 0 0 0 0 0 0 0 0 0 0 0 0 0 0 0 127 0" result="hardAlpha"/>
<feOffset dy="4"/>
<feGaussianBlur stdDeviation="2"/>
<feComposite in2="hardAlpha" operator="out"/>
<feColorMatrix type="matrix" values="0 0 0 0 0.105882 0 0 0 0 0.568627 0 0 0 0 0.709804 0 0 0 1 0"/>
<feBlend mode="normal" in2="BackgroundImageFix" result="effect1_dropShadow_292_1932"/>
<feBlend mode="normal" in="SourceGraphic" in2="effect1_dropShadow_292_1932" result="shape"/>
</filter>
<filter id="filter1_d_292_1932" x="43.5298" y="39.8608" width="46.0952" height="53.7642" filterUnits="userSpaceOnUse" color-interpolation-filters="sRGB">
<feFlood flood-opacity="0" result="BackgroundImageFix"/>
<feColorMatrix in="SourceAlpha" type="matrix" values="0 0 0 0 0 0 0 0 0 0 0 0 0 0 0 0 0 0 127 0" result="hardAlpha"/>
<feOffset dy="4"/>
<feGaussianBlur stdDeviation="2"/>
<feComposite in2="hardAlpha" operator="out"/>
<feColorMatrix type="matrix" values="0 0 0 0 0.105882 0 0 0 0 0.568627 0 0 0 0 0.709804 0 0 0 1 0"/>
<feBlend mode="normal" in2="BackgroundImageFix" result="effect1_dropShadow_292_1932"/>
<feBlend mode="normal" in="SourceGraphic" in2="effect1_dropShadow_292_1932" result="shape"/>
</filter>
<filter id="filter2_d_292_1932" x="1.625" y="5.625" width="46.0952" height="53.7642" filterUnits="userSpaceOnUse" color-interpolation-filters="sRGB">
<feFlood flood-opacity="0" result="BackgroundImageFix"/>
<feColorMatrix in="SourceAlpha" type="matrix" values="0 0 0 0 0 0 0 0 0 0 0 0 0 0 0 0 0 0 127 0" result="hardAlpha"/>
<feOffset dy="4"/>
<feGaussianBlur stdDeviation="2"/>
<feComposite in2="hardAlpha" operator="out"/>
<feColorMatrix type="matrix" values="0 0 0 0 0.105882 0 0 0 0 0.568627 0 0 0 0 0.709804 0 0 0 1 0"/>
<feBlend mode="normal" in2="BackgroundImageFix" result="effect1_dropShadow_292_1932"/>
<feBlend mode="normal" in="SourceGraphic" in2="effect1_dropShadow_292_1932" result="shape"/>
</filter>
<filter id="filter3_d_292_1932" x="1.625" y="47.5298" width="53.7642" height="46.0952" filterUnits="userSpaceOnUse" color-interpolation-filters="sRGB">
<feFlood flood-opacity="0" result="BackgroundImageFix"/>
<feColorMatrix in="SourceAlpha" type="matrix" values="0 0 0 0 0 0 0 0 0 0 0 0 0 0 0 0 0 0 127 0" result="hardAlpha"/>
<feOffset dy="4"/>
<feGaussianBlur stdDeviation="2"/>
<feComposite in2="hardAlpha" operator="out"/>
<feColorMatrix type="matrix" values="0 0 0 0 0.105882 0 0 0 0 0.568627 0 0 0 0 0.709804 0 0 0 1 0"/>
<feBlend mode="normal" in2="BackgroundImageFix" result="effect1_dropShadow_292_1932"/>
<feBlend mode="normal" in="SourceGraphic" in2="effect1_dropShadow_292_1932" result="shape"/>
</filter>
<clipPath id="clip0_292_1932">
<rect width="90" height="90" fill="white"/>
</clipPath>
</defs>
</svg>
