<svg width="24" height="24" viewBox="0 0 24 24" fill="none" xmlns="http://www.w3.org/2000/svg">
<g clip-path="url(#clip0_353_1573)">
<g filter="url(#filter0_d_353_1573)">
<rect x="1" y="2" width="22" height="20.5714" rx="2" fill="white" fill-opacity="0.2"/>
<g clip-path="url(#clip1_353_1573)">
<circle cx="12.1429" cy="12.2858" r="4.28571" stroke="white" stroke-width="4"/>
<path d="M12.1428 4.85718V7.71432" stroke="#E86C60" stroke-linecap="round" stroke-linejoin="round"/>
<path d="M12.1428 16.8572V19.7143" stroke="#E86C60" stroke-linecap="round" stroke-linejoin="round"/>
<path d="M4.71436 12.2858L7.5715 12.2858" stroke="#E86C60" stroke-linecap="round" stroke-linejoin="round"/>
<path d="M16.7144 12.2858L19.5715 12.2858" stroke="#E86C60" stroke-linecap="round" stroke-linejoin="round"/>
</g>
<path d="M6.28544 2H3.14258C2.03801 2 1.14258 2.89543 1.14258 4V7.14286" stroke="white" stroke-linecap="round" stroke-linejoin="round"/>
<path d="M6.28544 22.5714H3.14258C2.03801 22.5714 1.14258 21.676 1.14258 20.5714V17.4286" stroke="white" stroke-linecap="round" stroke-linejoin="round"/>
<path d="M17.7146 2H20.8574C21.962 2 22.8574 2.89543 22.8574 4V7.14286" stroke="white" stroke-linecap="round" stroke-linejoin="round"/>
<path d="M17.7146 22.5714H20.8574C21.962 22.5714 22.8574 21.676 22.8574 20.5714V17.4286" stroke="white" stroke-linecap="round" stroke-linejoin="round"/>
</g>
</g>
<defs>
<filter id="filter0_d_353_1573" x="-3.35742" y="1.5" width="30.7148" height="29.5714" filterUnits="userSpaceOnUse" color-interpolation-filters="sRGB">
<feFlood flood-opacity="0" result="BackgroundImageFix"/>
<feColorMatrix in="SourceAlpha" type="matrix" values="0 0 0 0 0 0 0 0 0 0 0 0 0 0 0 0 0 0 127 0" result="hardAlpha"/>
<feOffset dy="4"/>
<feGaussianBlur stdDeviation="2"/>
<feComposite in2="hardAlpha" operator="out"/>
<feColorMatrix type="matrix" values="0 0 0 0 0 0 0 0 0 0 0 0 0 0 0 0 0 0 0.1 0"/>
<feBlend mode="normal" in2="BackgroundImageFix" result="effect1_dropShadow_353_1573"/>
<feBlend mode="normal" in="SourceGraphic" in2="effect1_dropShadow_353_1573" result="shape"/>
</filter>
<clipPath id="clip0_353_1573">
<rect width="24" height="24" fill="white"/>
</clipPath>
<clipPath id="clip1_353_1573">
<rect width="16" height="16" fill="white" transform="translate(4.14282 4.28577)"/>
</clipPath>
</defs>
</svg>
