<svg width="348" height="280" viewBox="0 0 348 280" fill="none" xmlns="http://www.w3.org/2000/svg">
<circle cx="202.086" cy="140.5" r="114.004" fill="#E86C60"/>
<mask id="path-2-inside-1_428_1942" fill="white">
<path d="M317.508 124.689C314.021 99.2305 302.214 75.6394 283.926 57.5881C265.639 39.5368 241.896 28.0381 216.395 24.8821C190.893 21.726 165.064 27.0897 142.927 40.1381C120.791 53.1866 103.589 73.1876 94.0008 97.0277C84.4122 120.868 82.9745 147.209 89.9116 171.951C96.8486 196.693 111.771 218.447 132.356 233.827C152.941 249.207 178.033 257.35 203.727 256.988C229.42 256.627 254.273 247.78 274.417 231.826L202.086 140.5L317.508 124.689Z"/>
</mask>
<path d="M317.508 124.689C314.021 99.2305 302.214 75.6394 283.926 57.5881C265.639 39.5368 241.896 28.0381 216.395 24.8821C190.893 21.726 165.064 27.0897 142.927 40.1381C120.791 53.1866 103.589 73.1876 94.0008 97.0277C84.4122 120.868 82.9745 147.209 89.9116 171.951C96.8486 196.693 111.771 218.447 132.356 233.827C152.941 249.207 178.033 257.35 203.727 256.988C229.42 256.627 254.273 247.78 274.417 231.826L202.086 140.5L317.508 124.689Z" fill="#FFBF48" stroke="white" stroke-width="10" mask="url(#path-2-inside-1_428_1942)"/>
<path fill-rule="evenodd" clip-rule="evenodd" d="M31 137.171C29.8954 137.171 29 138.067 29 139.171V161.8C29 162.905 29.8954 163.8 31 163.8H80.2571C81.3617 163.8 82.2571 162.905 82.2571 161.8V154.23L86.4179 151.318L82.2571 147.989V139.171C82.2571 138.067 81.3617 137.171 80.2571 137.171H31Z" fill="#FFBF48" fill-opacity="0.24"/>
<path d="M40.9545 153.128C40.2314 153.128 39.7463 152.496 39.6364 151.16C40.0392 150.583 40.4968 150.373 40.8905 150.373C41.6136 150.373 41.998 150.858 41.998 151.728C41.998 152.597 41.5404 153.128 40.9545 153.128ZM42.8676 147.672C42.4832 147.27 41.934 146.949 41.1834 146.949C39.8561 146.949 38.6387 147.984 38.6387 150.574C38.6387 152.863 39.6822 153.934 40.9637 153.934C42.0621 153.934 42.9775 153.064 42.9775 151.728C42.9775 150.3 42.2177 149.604 41.0827 149.604C40.5975 149.604 40.0117 149.897 39.6181 150.382C39.6639 148.46 40.3779 147.81 41.2383 147.81C41.6319 147.81 42.0438 148.02 42.2909 148.313L42.8676 147.672Z" fill="#835D17"/>
<path d="M46.6839 155.636L47.343 155.343C46.5558 154.034 46.1897 152.487 46.1897 150.949C46.1897 149.421 46.5558 147.874 47.343 146.556L46.6839 146.272C45.8327 147.654 45.3292 149.146 45.3292 150.949C45.3292 152.771 45.8327 154.245 46.6839 155.636Z" fill="#835D17"/>
<path d="M48.0979 153.815H51.9424V152.945H50.6243V147.077H49.8279C49.4435 147.315 48.9949 147.471 48.3633 147.59V148.258H49.5716V152.945H48.0979V153.815Z" fill="#835D17"/>
<path d="M54.6822 153.934C56.0003 153.934 56.8607 152.762 56.8607 150.419C56.8607 148.094 56.0003 146.949 54.6822 146.949C53.3549 146.949 52.5036 148.084 52.5036 150.419C52.5036 152.762 53.3549 153.934 54.6822 153.934ZM54.6822 153.101C53.9956 153.101 53.5105 152.368 53.5105 150.419C53.5105 148.487 53.9956 147.782 54.6822 147.782C55.3687 147.782 55.8538 148.487 55.8538 150.419C55.8538 152.368 55.3687 153.101 54.6822 153.101Z" fill="#835D17"/>
<path d="M59.4449 153.934C60.763 153.934 61.6234 152.762 61.6234 150.419C61.6234 148.094 60.763 146.949 59.4449 146.949C58.1176 146.949 57.2663 148.084 57.2663 150.419C57.2663 152.762 58.1176 153.934 59.4449 153.934ZM59.4449 153.101C58.7584 153.101 58.2732 152.368 58.2732 150.419C58.2732 148.487 58.7584 147.782 59.4449 147.782C60.1314 147.782 60.6165 148.487 60.6165 150.419C60.6165 152.368 60.1314 153.101 59.4449 153.101Z" fill="#835D17"/>
<path d="M63.5028 151.215C64.4456 151.215 65.0863 150.428 65.0863 149.073C65.0863 147.718 64.4456 146.949 63.5028 146.949C62.56 146.949 61.9284 147.718 61.9284 149.073C61.9284 150.428 62.56 151.215 63.5028 151.215ZM63.5028 150.592C63.0359 150.592 62.6973 150.107 62.6973 149.073C62.6973 148.029 63.0359 147.572 63.5028 147.572C63.9788 147.572 64.3174 148.029 64.3174 149.073C64.3174 150.107 63.9788 150.592 63.5028 150.592ZM63.7133 153.934H64.3724L68.0704 146.949H67.4022L63.7133 153.934ZM68.2901 153.934C69.2238 153.934 69.8645 153.155 69.8645 151.801C69.8645 150.446 69.2238 149.677 68.2901 149.677C67.3473 149.677 66.7065 150.446 66.7065 151.801C66.7065 153.155 67.3473 153.934 68.2901 153.934ZM68.2901 153.32C67.8141 153.32 67.4754 152.835 67.4754 151.801C67.4754 150.757 67.8141 150.3 68.2901 150.3C68.7569 150.3 69.0956 150.757 69.0956 151.801C69.0956 152.835 68.7569 153.32 68.2901 153.32Z" fill="#835D17"/>
<path d="M70.8206 155.636C71.6811 154.245 72.1845 152.771 72.1845 150.949C72.1845 149.146 71.6811 147.654 70.8206 146.272L70.1616 146.556C70.9488 147.874 71.3149 149.421 71.3149 150.949C71.3149 152.487 70.9488 154.034 70.1616 155.343L70.8206 155.636Z" fill="#835D17"/>
</svg>
