<svg width="48" height="48" viewBox="0 0 48 48" fill="none" xmlns="http://www.w3.org/2000/svg">
<path d="M8 42C7.73478 42 7.48043 41.8946 7.29289 41.7071C7.10536 41.5196 7 41.2652 7 41V4C7 3.73478 7.10536 3.48043 7.29289 3.29289C7.48043 3.10536 7.73478 3 8 3C8.26522 3 8.51957 3.10536 8.70711 3.29289C8.89464 3.48043 9 3.73478 9 4V41C9 41.2652 8.89464 41.5196 8.70711 41.7071C8.51957 41.8946 8.26522 42 8 42Z" fill="#C5EDC5"/>
<path d="M24 47C23.7348 47 23.4804 46.8946 23.2929 46.7071C23.1054 46.5196 23 46.2652 23 46V13C23 12.7348 23.1054 12.4804 23.2929 12.2929C23.4804 12.1054 23.7348 12 24 12C24.2652 12 24.5196 12.1054 24.7071 12.2929C24.8946 12.4804 25 12.7348 25 13V46C25 46.2652 24.8946 46.5196 24.7071 46.7071C24.5196 46.8946 24.2652 47 24 47Z" fill="#FFB4AD"/>
<path d="M40 45C39.7348 45 39.4804 44.8946 39.2929 44.7071C39.1054 44.5196 39 44.2652 39 44V4C39 3.73478 39.1054 3.48043 39.2929 3.29289C39.4804 3.10536 39.7348 3 40 3C40.2652 3 40.5196 3.10536 40.7071 3.29289C40.8946 3.48043 41 3.73478 41 4V44C41 44.2652 40.8946 44.5196 40.7071 44.7071C40.5196 44.8946 40.2652 45 40 45Z" fill="#C5EDC5"/>
<path d="M28 40H20C19.7348 40 19.4804 39.8946 19.2929 39.7071C19.1054 39.5196 19 39.2652 19 39V23C19 22.7348 19.1054 22.4804 19.2929 22.2929C19.4804 22.1054 19.7348 22 20 22H28C28.2652 22 28.5196 22.1054 28.7071 22.2929C28.8946 22.4804 29 22.7348 29 23V39C29 39.2652 28.8946 39.5196 28.7071 39.7071C28.5196 39.8946 28.2652 40 28 40Z" fill="#FF7163"/>
<path d="M12 33H4C3.73478 33 3.48043 32.8946 3.29289 32.7071C3.10536 32.5196 3 32.2652 3 32V8C3 7.73478 3.10536 7.48043 3.29289 7.29289C3.48043 7.10536 3.73478 7 4 7H12C12.2652 7 12.5196 7.10536 12.7071 7.29289C12.8946 7.48043 13 7.73478 13 8V32C13 32.2652 12.8946 32.5196 12.7071 32.7071C12.5196 32.8946 12.2652 33 12 33Z" fill="#78D478"/>
<path d="M44 39H36C35.7348 39 35.4804 38.8946 35.2929 38.7071C35.1054 38.5196 35 38.2652 35 38V15C35 14.7348 35.1054 14.4804 35.2929 14.2929C35.4804 14.1054 35.7348 14 36 14H44C44.2652 14 44.5196 14.1054 44.7071 14.2929C44.8946 14.4804 45 14.7348 45 15V38C45 38.2652 44.8946 38.5196 44.7071 38.7071C44.5196 38.8946 44.2652 39 44 39Z" fill="#78D478"/>
</svg>
