<svg width="48" height="48" viewBox="0 0 48 48" fill="none" xmlns="http://www.w3.org/2000/svg">
<path d="M42 1H6C5.448 1 5 1.448 5 2V46C5 46.552 5.448 47 6 47H42C42.552 47 43 46.552 43 46V2C43 1.448 42.552 1 42 1Z" fill="#E6E6E6"/>
<path d="M24.828 41.828C24.316 41.828 23.805 41.633 23.414 41.242L16 33.828L18.828 31L24.828 37L36.828 25L39.656 27.828L26.242 41.242C25.851 41.633 25.34 41.828 24.828 41.828Z" fill="#72C472"/>
<path d="M31 21H20C19.448 21 19 20.552 19 20C19 19.448 19.448 19 20 19H31C31.552 19 32 19.448 32 20C32 20.552 31.552 21 31 21Z" fill="#B3B3B3"/>
<path d="M35 13H20C19.448 13 19 12.552 19 12C19 11.448 19.448 11 20 11H35C35.552 11 36 11.448 36 12C36 12.552 35.552 13 35 13Z" fill="#444444"/>
<path d="M14 22C12.897 22 12 21.103 12 20C12 18.897 12.897 18 14 18C15.103 18 16 18.897 16 20C16 21.103 15.103 22 14 22Z" fill="#B3B3B3"/>
<path d="M14 14C12.897 14 12 13.103 12 12C12 10.897 12.897 10 14 10C15.103 10 16 10.897 16 12C16 13.103 15.103 14 14 14Z" fill="#4DA34D"/>
</svg>
